<?xml version="1.0" standalone="no"?>
<!DOCTYPE svg PUBLIC "-//W3C//DTD SVG 20010904//EN"
 "http://www.w3.org/TR/2001/REC-SVG-20010904/DTD/svg10.dtd">
<svg version="1.0" xmlns="http://www.w3.org/2000/svg"
 width="939.000000pt" height="939.000000pt" viewBox="0 0 939.000000 939.000000"
 preserveAspectRatio="xMidYMid meet">
<metadata>
Created by potrace 1.14, written by Peter Selinger 2001-2017
</metadata>
<g transform="translate(0.000000,939.000000) scale(0.100000,-0.100000)"
fill="#000000" stroke="none">
<path d="M3856 9366 c-20 -22 -25 -24 -35 -12 -12 14 -51 11 -51 -5 0 -5 -6
-9 -14 -9 -8 0 -21 -8 -28 -17 -11 -15 -30 -18 -105 -19 -57 -1 -98 -6 -107
-14 -8 -6 -20 -9 -25 -6 -6 4 -15 -3 -21 -14 -6 -11 -16 -20 -21 -20 -6 0 -24
-11 -41 -25 -18 -16 -42 -25 -62 -25 -32 0 -66 -25 -66 -48 0 -6 -11 -14 -25
-18 -14 -3 -25 -12 -25 -19 0 -15 -31 -25 -76 -25 -37 0 -77 -19 -105 -49 -11
-12 -38 -33 -59 -46 -21 -13 -41 -33 -45 -45 -3 -11 -13 -20 -22 -20 -12 0
-14 7 -9 28 4 15 9 65 13 113 9 140 -24 174 -192 199 -44 6 -124 22 -177 36
-106 26 -183 30 -305 13 -66 -9 -96 -8 -165 5 -147 28 -160 23 -280 -91 -86
-82 -129 -105 -233 -123 -108 -20 -137 -58 -190 -248 -4 -12 -1 -38 5 -58 17
-49 60 -67 245 -98 227 -38 266 -40 395 -21 125 18 171 16 270 -16 36 -12 79
-22 95 -23 26 -2 30 -5 27 -29 -4 -35 -46 -98 -78 -115 -13 -7 -31 -28 -39
-47 -16 -40 -59 -63 -81 -44 -11 9 -14 8 -14 -5 0 -25 -28 -31 -50 -11 -18 16
-20 17 -20 2 0 -10 -7 -17 -16 -17 -10 0 -14 -6 -11 -14 9 -22 -12 -86 -28
-86 -17 0 -34 -30 -28 -47 7 -19 -17 -55 -33 -49 -8 3 -14 -1 -14 -10 0 -8
-12 -26 -26 -39 -15 -14 -24 -31 -21 -39 3 -8 -5 -29 -19 -47 -13 -18 -24 -41
-24 -51 0 -10 -14 -30 -32 -45 -18 -16 -42 -37 -54 -48 -12 -11 -30 -25 -40
-31 -10 -6 -19 -24 -20 -40 -1 -16 -3 -33 -5 -39 -1 -5 3 -23 10 -40 9 -22 9
-31 1 -33 -6 -2 -15 -15 -20 -28 -5 -13 -16 -24 -25 -24 -17 0 -21 -45 -6 -55
6 -3 17 -19 25 -37 15 -29 12 -96 -10 -196 -4 -20 -2 -22 21 -16 26 6 26 5 20
-30 -6 -31 -5 -35 9 -30 22 8 21 -20 -4 -75 -22 -49 -24 -55 -11 -47 5 3 7
-26 5 -67 -3 -67 -10 -103 -51 -277 -21 -90 -36 -430 -19 -430 9 0 2 -117 -10
-158 -5 -18 -3 -21 10 -16 12 4 16 0 16 -15 0 -12 4 -21 9 -21 10 0 13 -39 12
-132 -1 -31 4 -69 10 -85 6 -15 14 -59 19 -98 18 -136 22 -160 30 -180 8 -19
29 -128 50 -270 5 -33 10 -86 10 -117 0 -31 5 -60 10 -63 15 -9 12 -36 -5 -55
-18 -19 -10 -50 12 -50 8 0 13 -6 10 -12 -2 -7 -9 -12 -14 -11 -6 1 -9 -35 -8
-88 0 -49 -1 -89 -3 -89 -2 0 -25 20 -50 45 -25 25 -51 45 -59 45 -7 0 -16 0
-20 1 -4 0 -9 -4 -11 -10 -2 -6 3 -11 12 -11 10 0 16 -9 16 -24 0 -14 4 -27 9
-30 5 -3 12 -23 16 -43 4 -21 14 -46 22 -55 8 -9 12 -22 8 -27 -9 -15 6 -13
27 3 10 7 18 21 18 30 0 9 7 16 15 16 8 0 15 -6 15 -14 0 -8 7 -16 15 -20 17
-6 30 31 23 68 -8 39 20 26 30 -16 8 -30 7 -38 -4 -38 -16 0 -19 -26 -4 -35 6
-4 20 -27 32 -51 11 -24 30 -52 43 -62 15 -12 27 -41 39 -92 10 -41 21 -84 26
-95 5 -11 11 -33 14 -50 24 -138 32 -165 53 -165 8 0 11 -4 8 -10 -7 -11 38
-93 71 -128 l21 -24 6 38 c4 21 2 43 -4 50 -6 8 -5 14 7 18 11 4 13 10 6 19
-20 25 -36 195 -20 214 8 10 7 17 -7 27 -13 9 -19 31 -22 87 -3 41 -9 81 -14
91 -5 9 -5 37 0 62 7 36 6 46 -5 46 -15 0 -19 26 -5 32 5 2 5 28 -1 63 -5 33
-6 70 -3 83 3 13 2 21 -3 18 -4 -3 -5 25 0 61 5 41 4 72 -3 84 -5 11 -7 24 -4
29 3 5 0 19 -7 30 -11 18 -10 23 4 31 10 5 30 30 44 56 22 36 25 49 16 63 -9
15 -7 18 11 18 48 0 62 8 63 38 1 16 2 31 3 34 9 20 6 58 -5 71 -15 17 -15 60
0 70 13 10 -2 29 -18 23 -16 -6 -19 76 -5 114 8 20 6 25 -11 29 -24 6 -25 12
-4 28 14 9 14 16 5 33 -6 12 -18 22 -27 22 -14 0 -13 18 1 67 2 6 -2 19 -10
29 -8 11 -10 26 -5 39 8 22 -4 65 -19 65 -13 0 -20 60 -10 94 5 17 4 36 -2 48
-7 13 -7 23 0 32 6 7 8 15 5 18 -4 5 -9 35 -18 133 -2 19 3 35 13 42 14 11 14
12 -3 13 -14 0 -16 3 -7 13 10 12 10 54 0 82 -2 6 5 23 16 40 15 21 21 49 22
105 2 80 7 116 17 140 3 8 5 26 4 40 -4 53 2 90 15 90 9 0 11 12 9 41 -3 22 1
46 7 52 6 6 11 19 11 29 0 10 6 21 14 24 8 3 12 13 9 25 -4 15 0 19 19 19 16
0 30 10 43 33 11 17 19 35 17 40 -1 4 9 7 23 7 16 0 42 -15 66 -37 23 -21 51
-42 62 -47 39 -15 111 -24 134 -15 12 4 23 4 25 -1 5 -13 98 -24 98 -11 0 6 7
11 16 11 14 0 14 -3 4 -15 -11 -13 -8 -15 13 -15 14 0 28 -4 32 -9 3 -6 13
-10 23 -10 25 0 73 -7 105 -16 15 -4 33 -3 40 3 8 7 24 6 50 -3 20 -7 37 -10
37 -8 0 9 -35 68 -45 75 -25 19 20 5 65 -19 32 -17 50 -34 50 -45 0 -19 16
-25 22 -8 2 7 14 7 36 -1 23 -8 37 -8 44 -1 7 7 17 2 33 -16 26 -30 43 -25 26
7 -9 16 -7 25 13 46 l24 26 29 -35 c15 -20 30 -36 33 -36 3 0 3 21 1 46 -3 40
1 50 23 71 21 19 30 22 46 13 18 -9 20 -7 22 17 0 15 1 36 0 46 -1 9 5 17 13
17 10 0 21 -21 32 -60 18 -66 33 -78 34 -27 0 17 2 42 3 54 1 12 -1 20 -6 17
-4 -3 -8 1 -8 9 0 27 40 28 65 1 20 -21 24 -22 35 -9 21 25 30 17 30 -24 0
-45 14 -62 25 -28 4 13 8 17 12 10 7 -19 20 -16 26 7 3 11 10 20 17 20 7 0 9
-8 4 -22 l-6 -23 25 23 c14 13 28 19 31 14 3 -5 -1 -15 -9 -22 -19 -16 -19
-34 0 -26 8 3 15 1 15 -4 0 -6 5 -10 10 -10 6 0 10 9 10 19 0 27 17 36 37 19
13 -10 17 -10 20 0 8 22 34 14 31 -10 -2 -14 2 -22 10 -20 6 1 12 -5 12 -13 0
-18 12 -19 28 -3 9 9 13 8 17 -4 7 -19 96 -18 119 1 8 7 17 8 20 3 3 -6 21 -8
40 -5 32 4 34 3 29 -18 -6 -23 -6 -22 21 4 33 33 46 34 47 5 l0 -23 9 21 c5
12 24 27 44 34 20 6 36 16 36 21 0 5 7 9 15 9 8 0 15 -7 15 -15 0 -21 13 -19
28 5 15 24 32 26 32 4 0 -11 6 -15 20 -11 11 3 23 1 26 -4 3 -5 18 -2 35 8 21
12 32 14 40 6 8 -8 18 -7 37 2 19 9 42 11 75 6 48 -8 49 -8 94 38 25 25 42 40
38 34 -8 -17 10 -16 24 1 6 7 29 16 50 20 21 3 41 13 45 21 3 9 12 12 22 8 11
-4 15 -3 10 5 -3 6 3 16 15 22 15 8 19 9 15 1 -4 -6 -2 -11 4 -11 6 0 14 8 17
18 8 20 61 72 74 72 4 0 17 10 28 21 15 16 27 20 50 16 21 -4 31 -2 35 9 8 21
25 8 19 -15 -6 -24 11 -35 36 -22 24 13 17 51 -11 58 -21 6 -23 14 -6 31 17
17 41 15 34 -3 -9 -25 10 -17 24 10 14 25 68 44 90 30 6 -4 27 10 47 32 30 31
35 34 31 16 -8 -30 8 -39 29 -17 13 13 14 19 5 22 -6 2 -12 7 -12 10 0 12 59
34 70 27 6 -3 24 1 41 9 29 15 31 14 36 -5 4 -16 11 -19 29 -15 24 6 34 -9 12
-17 -7 -2 -9 -8 -5 -13 4 -5 12 -2 17 6 8 12 13 13 27 2 10 -7 33 -22 50 -33
31 -20 36 -46 7 -35 -8 3 -14 -1 -14 -9 0 -8 7 -15 16 -15 10 0 14 -6 11 -14
-4 -10 2 -16 21 -18 15 -2 25 -7 22 -13 -3 -5 -10 -9 -17 -9 -6 1 -13 -10 -16
-23 -3 -18 -1 -21 6 -14 17 17 26 13 20 -9 -5 -20 21 -55 35 -46 13 8 28 -7
51 -49 18 -35 19 -41 6 -61 -12 -19 -12 -24 0 -34 12 -10 12 -16 4 -26 -9 -11
-7 -15 5 -20 9 -3 16 -12 16 -19 0 -7 7 -18 15 -25 8 -7 15 -21 15 -31 0 -11
4 -19 9 -19 5 0 11 -12 13 -27 2 -17 9 -28 19 -28 8 0 23 -7 32 -17 9 -9 21
-18 27 -20 6 -2 13 -23 15 -48 2 -25 9 -46 15 -48 17 -6 11 -22 -12 -31 -23
-9 -23 -9 5 -20 29 -11 37 -41 12 -41 -12 0 -13 -4 -6 -19 6 -10 7 -21 4 -25
-3 -3 -1 -6 5 -6 7 0 12 7 12 15 0 8 4 15 9 15 6 0 9 -8 9 -17 0 -10 3 -26 7
-36 6 -14 3 -16 -11 -11 -18 5 -18 5 -2 -9 13 -10 17 -25 14 -56 -2 -22 0 -44
5 -47 5 -3 9 0 9 5 0 6 4 11 9 11 5 0 7 -9 4 -20 -3 -11 -2 -28 2 -37 5 -10 7
-24 6 -31 -1 -7 5 -19 13 -28 8 -8 13 -21 9 -29 -3 -9 0 -22 7 -30 11 -13 10
-14 -4 -9 -9 3 -16 1 -16 -5 0 -6 5 -11 10 -11 6 0 10 -10 10 -23 0 -13 5 -28
12 -35 8 -8 8 -15 -2 -27 -10 -13 -9 -15 8 -15 16 0 20 -4 15 -16 -3 -9 0 -19
6 -23 18 -12 3 -64 -17 -56 -12 4 -12 3 -3 -9 8 -10 9 -21 1 -41 -10 -27 -10
-27 20 -21 19 3 29 2 25 -4 -3 -6 3 -10 14 -10 13 0 21 -7 21 -16 0 -14 3 -14
16 -3 13 11 14 9 9 -13 -4 -14 -2 -29 3 -32 6 -4 8 2 5 14 -6 22 4 25 27 9 10
-7 11 -12 4 -15 -7 -3 -1 -16 15 -33 14 -16 28 -26 31 -22 10 14 45 -15 48
-39 1 -14 9 -30 17 -36 11 -8 13 -21 8 -44 -5 -26 -2 -36 13 -47 14 -10 16
-18 8 -30 -7 -12 -3 -22 17 -44 15 -16 35 -29 46 -30 15 0 15 -2 -4 -11 -13
-6 -23 -18 -23 -27 0 -9 -3 -27 -7 -40 -4 -16 -3 -22 5 -17 7 4 14 -7 18 -31
6 -34 54 -97 54 -71 0 6 8 16 17 23 14 10 21 10 40 -2 31 -20 29 -33 -4 -33
-23 0 -25 -2 -11 -12 20 -16 31 -78 18 -98 -8 -13 -10 -12 -10 3 0 9 -5 17
-11 17 -18 0 -5 -45 13 -48 10 -2 26 4 35 14 12 12 18 13 21 4 3 -7 -1 -16 -8
-20 -8 -5 -2 -17 22 -40 20 -19 28 -34 21 -37 -7 -2 -9 -11 -7 -18 3 -8 -1
-24 -10 -37 -20 -28 -20 -38 -2 -38 7 0 19 -6 25 -14 10 -12 8 -19 -10 -37
-17 -17 -19 -23 -8 -30 12 -8 11 -12 -3 -23 -18 -13 -26 -32 -9 -22 10 6 31
-37 31 -64 0 -10 5 -22 10 -25 6 -4 9 -14 8 -23 -2 -11 3 -16 15 -14 9 2 17
-2 17 -8 0 -5 -7 -10 -15 -10 -17 0 -20 -16 -4 -26 6 -3 8 -15 6 -26 -4 -15
-2 -18 15 -12 18 5 20 3 15 -17 -4 -14 0 -30 8 -40 14 -14 11 -16 -28 -15 -36
0 -43 3 -40 17 4 15 -9 31 -29 35 -5 1 -9 3 -10 4 -2 1 -15 3 -30 4 -29 2 -36
-12 -16 -32 9 -9 7 -13 -5 -18 -9 -3 -14 -10 -11 -15 3 -5 10 -6 16 -3 6 4 8
-1 6 -12 -6 -34 -33 -22 -32 14 2 27 -1 32 -21 32 -21 0 -35 17 -35 41 0 18
27 8 37 -13 10 -22 11 -22 19 -4 5 14 1 24 -17 39 -13 10 -24 23 -24 27 0 5
-3 12 -7 16 -5 4 -8 -1 -8 -11 0 -15 -3 -16 -12 -7 -7 7 -15 12 -19 12 -11 0
-17 -38 -8 -47 10 -10 13 -48 7 -93 -2 -19 1 -25 15 -24 9 1 17 -2 17 -7 0 -5
11 -7 24 -3 16 4 25 1 30 -11 3 -9 10 -13 16 -10 15 9 12 -11 -4 -24 -8 -6
-20 -10 -27 -9 -10 2 -14 -10 -15 -44 -2 -48 9 -61 33 -37 7 7 9 3 6 -15 -3
-14 -11 -26 -18 -26 -20 0 -38 -49 -23 -64 24 -23 50 -27 74 -11 28 18 31 13
8 -14 -11 -12 -26 -18 -40 -15 -12 2 -26 -1 -30 -7 -5 -8 1 -10 20 -7 25 5 27
3 21 -16 -4 -11 -7 -31 -7 -43 0 -25 -13 -31 -21 -10 -2 7 -8 8 -13 3 -5 -5
-4 -11 4 -13 6 -3 12 -11 12 -19 0 -8 -6 -14 -12 -14 -8 0 -5 -7 6 -15 17 -13
17 -15 3 -21 -24 -9 -19 -74 6 -74 19 0 23 -15 7 -25 -14 -9 -2 -25 13 -19 20
7 39 -53 24 -77 -10 -16 -9 -22 3 -30 12 -8 10 -9 -8 -4 -21 6 -23 5 -13 -13
6 -11 8 -21 6 -24 -3 -3 0 -19 6 -37 8 -23 8 -35 -1 -46 -6 -8 -10 -36 -9 -66
2 -38 -1 -54 -13 -63 -15 -11 -15 -13 0 -22 10 -7 13 -17 9 -28 -6 -15 -10
-16 -23 -5 -13 10 -17 10 -25 -2 -6 -10 -9 -10 -9 -1 0 6 -7 12 -16 12 -11 0
-14 -5 -10 -16 4 -9 2 -22 -2 -28 -5 -6 -12 -31 -16 -55 -4 -26 -15 -50 -29
-62 -12 -10 -16 -18 -9 -19 17 0 15 -20 -2 -20 -8 0 -16 -7 -20 -15 -3 -8 -1
-15 4 -15 6 0 10 -4 10 -10 0 -5 -6 -7 -14 -4 -8 3 -16 -3 -19 -15 -3 -14 -13
-21 -30 -21 -18 0 -27 -7 -31 -25 -4 -14 -11 -25 -16 -25 -5 0 -7 -7 -4 -15 4
-11 0 -15 -16 -15 -15 0 -20 -4 -17 -15 4 -8 2 -17 -4 -21 -5 -3 -7 -14 -4
-24 3 -10 1 -21 -5 -25 -5 -3 -10 -17 -10 -31 0 -20 -3 -23 -17 -15 -62 31
-68 32 -111 17 -43 -15 -137 -12 -148 5 -10 16 -24 9 -24 -11 0 -19 -1 -19
-36 2 -20 12 -38 27 -41 35 -3 8 -13 11 -23 8 -19 -6 -40 14 -44 41 -2 10 -16
22 -32 28 -16 5 -35 15 -42 23 -8 7 -18 10 -24 7 -6 -4 -8 -3 -5 3 3 5 -12 17
-34 27 -22 10 -47 29 -56 42 -12 19 -18 22 -24 12 -7 -10 -12 -8 -24 10 -16
23 -127 102 -143 102 -4 0 -17 8 -28 19 -11 10 -43 24 -72 31 -29 6 -67 22
-86 35 -20 13 -39 20 -46 15 -15 -9 -5 -30 14 -30 8 0 16 -9 19 -19 3 -14 11
-18 25 -15 14 4 26 -3 41 -24 24 -34 27 -52 9 -53 -94 -8 -124 -1 -100 23 6 6
12 20 12 30 0 14 -8 18 -34 18 -18 0 -39 6 -46 14 -6 8 -18 12 -25 10 -9 -4
-13 2 -11 20 2 14 -1 26 -5 26 -14 0 -11 28 4 33 6 2 -9 5 -35 5 -28 1 -48 -3
-48 -9 0 -6 7 -9 15 -5 12 4 15 -3 15 -36 0 -23 3 -38 7 -35 3 4 21 -24 39
-63 18 -38 37 -70 43 -70 10 0 26 -65 23 -92 -1 -9 5 -29 13 -45 19 -36 19
-45 -2 -110 -11 -34 -22 -53 -32 -53 -9 0 -26 -15 -39 -34 -18 -26 -33 -35
-77 -45 -30 -7 -61 -19 -69 -27 -17 -16 -30 -19 -21 -4 4 7 -10 9 -41 7 -46
-4 -49 -7 -66 -46 -9 -23 -24 -41 -33 -41 -8 0 -15 -4 -15 -10 0 -5 -20 -28
-45 -51 -25 -23 -45 -46 -45 -51 0 -16 -78 -88 -95 -88 -9 0 -28 -6 -43 -13
-28 -14 -91 -15 -110 -3 -7 4 -18 4 -25 -1 -18 -12 -145 -12 -197 0 -48 11
-90 41 -90 66 0 11 -3 10 -15 -5 -14 -19 -14 -18 -15 4 0 15 -6 22 -19 22 -11
0 -23 4 -26 10 -3 5 -32 9 -63 9 -31 0 -83 7 -115 15 -32 9 -69 16 -82 16 -13
0 -25 4 -27 10 -2 6 -9 6 -17 0 -12 -7 -8 -17 21 -52 29 -35 34 -49 30 -76 -4
-29 -8 -33 -28 -29 -16 3 -28 -4 -44 -25 -16 -22 -29 -28 -56 -28 -30 0 -35
-3 -30 -17 8 -19 -12 -121 -27 -140 -7 -10 -3 -13 17 -13 19 0 26 -5 26 -20 0
-23 18 -27 26 -5 4 8 15 15 25 15 20 0 22 5 20 60 -2 42 18 80 20 40 1 -14 1
-29 0 -33 -1 -5 8 -5 20 -2 17 6 21 4 16 -8 -3 -9 4 -19 18 -27 14 -7 29 -25
34 -39 9 -26 10 -26 16 -4 l7 22 22 -21 c37 -35 86 -48 86 -23 0 8 -4 15 -9
15 -15 0 -22 32 -11 46 8 9 7 20 -6 39 -13 19 -14 31 -7 48 10 21 10 21 27
-11 10 -19 15 -40 12 -48 -3 -8 1 -14 9 -14 9 0 12 -6 9 -15 -8 -20 10 -19 41
1 23 15 27 15 51 -1 24 -16 26 -16 40 2 7 10 14 26 14 36 0 35 80 5 80 -30 0
-14 2 -14 19 1 18 16 20 16 35 -6 14 -19 25 -23 70 -23 45 0 57 -4 73 -24 17
-21 22 -22 42 -12 18 10 27 10 45 -2 23 -15 116 -17 196 -3 19 3 62 7 94 9 34
2 62 9 64 15 7 23 23 12 17 -10 -6 -18 -5 -20 5 -11 7 6 18 22 24 35 10 19 20
23 54 23 27 0 42 4 42 12 0 7 14 26 30 41 17 16 30 34 30 40 0 8 8 9 25 2 14
-5 25 -8 26 -7 0 1 3 16 5 32 3 17 9 34 14 39 11 11 43 -1 35 -14 -13 -21 7
-9 41 25 l35 35 22 -20 c20 -20 22 -20 34 -4 7 10 13 25 13 35 0 17 26 29 48
22 6 -3 12 -13 12 -23 0 -10 10 -26 22 -34 21 -15 21 -16 2 -37 -14 -16 -15
-23 -6 -26 6 -3 12 -9 12 -14 0 -4 -7 -6 -15 -3 -9 4 -15 0 -15 -10 0 -9 -3
-15 -8 -14 -4 2 -21 -9 -37 -24 -18 -18 -33 -24 -40 -18 -7 6 -15 2 -24 -11
-7 -12 -18 -18 -26 -15 -7 2 -16 -2 -19 -11 -5 -13 -9 -13 -22 -2 -14 11 -18
11 -29 -4 -7 -10 -19 -15 -29 -11 -9 3 -16 1 -16 -5 0 -6 -17 -9 -45 -7 -25 2
-48 -1 -51 -5 -3 -5 2 -9 10 -9 9 0 16 -4 16 -9 0 -5 -17 -8 -37 -6 -30 2 -43
-3 -66 -26 -16 -16 -37 -29 -47 -29 -10 0 -22 -4 -25 -10 -3 -5 -15 -10 -26
-10 -10 0 -19 -5 -19 -11 0 -5 -8 -9 -17 -8 -10 1 -38 -8 -63 -19 -25 -12 -53
-22 -63 -22 -10 0 -29 -7 -42 -16 -13 -9 -29 -13 -35 -9 -5 3 -10 1 -10 -5 0
-7 -12 -10 -28 -9 -15 2 -33 0 -40 -4 -7 -5 -12 -3 -12 7 0 17 -12 21 -24 8
-4 -4 -13 -7 -19 -7 -7 0 -11 -8 -11 -18 2 -21 0 -21 -21 -1 -15 15 -17 15
-36 -1 -17 -16 -23 -16 -44 -5 -18 9 -28 10 -37 2 -16 -13 -62 -9 -82 7 -8 7
-17 8 -19 4 -3 -5 -34 -6 -69 -3 -35 4 -73 3 -85 -1 -13 -5 -23 -5 -23 1 0 5
-23 8 -50 7 -28 -1 -50 1 -50 6 0 4 -17 5 -37 1 -27 -4 -57 2 -106 20 -37 14
-76 26 -87 26 -11 0 -28 9 -37 20 -10 11 -23 20 -30 20 -6 0 -15 10 -19 23
-11 37 -25 49 -41 36 -9 -8 -11 -22 -7 -45 4 -21 2 -34 -4 -34 -6 0 -12 5 -14
10 -2 6 -20 12 -40 13 -20 1 -40 6 -44 10 -4 4 -16 7 -26 7 -14 0 -17 5 -12
24 6 25 -10 44 -21 26 -4 -6 -10 -8 -15 -5 -6 4 -5 13 2 24 9 14 6 23 -17 45
-15 15 -24 33 -21 41 3 8 1 17 -4 20 -6 4 -10 1 -10 -4 0 -6 -6 -11 -14 -11
-9 0 -12 7 -9 21 5 16 2 20 -13 17 -12 -2 -21 -16 -27 -41 -10 -40 -27 -50
-27 -15 l0 21 -25 -23 c-15 -14 -31 -21 -45 -17 -12 3 -20 0 -20 -8 0 -9 8
-11 23 -7 21 5 21 4 -4 -19 -34 -31 -48 -75 -37 -116 10 -37 13 -38 47 -19 15
8 35 11 55 6 38 -8 76 -28 76 -38 0 -5 16 -14 35 -21 19 -7 35 -17 35 -23 0
-6 6 -6 15 2 12 10 15 10 15 -4 0 -12 10 -16 39 -16 43 0 109 -24 117 -43 2
-7 16 -13 30 -14 16 0 36 -12 49 -29 15 -18 24 -24 29 -16 11 18 29 14 22 -4
-5 -13 -1 -15 19 -10 20 5 23 3 18 -10 -5 -13 -2 -15 17 -9 19 6 22 4 17 -9
-4 -9 -3 -16 1 -16 14 0 32 24 32 43 0 23 31 77 44 77 5 0 14 -7 21 -17 11
-15 14 -15 36 0 33 24 70 21 113 -8 l37 -25 28 19 c20 15 39 19 71 16 63 -7
75 -12 91 -43 l13 -27 4 27 c5 38 55 59 150 62 60 2 83 -2 104 -16 14 -10 31
-18 37 -18 6 0 11 -5 11 -11 0 -6 16 3 35 20 20 17 42 31 50 31 8 0 18 7 22
15 6 10 30 16 78 19 60 3 73 1 93 -17 l22 -21 33 32 c18 18 37 32 42 32 4 0
17 8 28 17 11 10 18 13 14 8 -3 -7 18 -10 61 -9 63 1 68 3 87 33 14 22 35 35
70 46 28 9 59 21 69 27 15 8 22 7 33 -8 15 -21 17 -60 3 -69 -5 -3 -10 -13
-10 -21 0 -15 18 -14 64 5 27 11 31 10 52 -16 l22 -28 26 24 c14 14 26 34 26
46 0 15 10 25 35 35 24 9 35 20 35 34 0 25 16 53 25 44 4 -3 22 9 40 28 19 19
38 34 43 34 5 0 24 18 43 40 19 22 46 45 61 51 15 6 29 17 32 25 3 8 12 14 21
14 8 0 15 3 15 8 1 13 67 82 73 75 4 -3 9 2 13 11 3 9 13 16 21 16 8 0 12 4 9
9 -4 5 -4 16 0 24 6 16 79 13 100 -4 7 -6 22 -5 39 3 l26 12 -23 18 c-13 10
-17 18 -10 18 8 0 12 17 12 50 0 38 4 50 15 50 15 0 20 21 8 34 -10 10 -11 46
-1 46 4 0 8 -6 8 -13 0 -8 9 -22 20 -32 19 -18 20 -17 20 3 0 14 -6 22 -17 22
-14 0 -14 3 -5 12 10 10 15 10 21 -1 5 -7 23 -14 40 -15 20 -1 37 -10 48 -25
16 -23 16 -24 -5 -19 -12 4 -22 2 -22 -2 0 -15 41 -39 56 -33 8 3 14 1 14 -3
0 -5 14 -15 30 -22 29 -13 34 -37 5 -25 -9 3 -15 -1 -15 -10 0 -8 7 -17 15
-21 8 -3 15 -12 15 -21 0 -8 -7 -15 -15 -15 -21 0 -19 -27 3 -39 15 -9 15 -10
-5 -11 -18 0 -23 -6 -23 -25 0 -16 -6 -25 -15 -25 -8 0 -15 -7 -15 -15 0 -8 4
-15 10 -15 5 0 7 -7 3 -16 -3 -9 3 -21 16 -30 26 -19 27 -34 2 -27 -20 5 -42
-18 -23 -25 7 -2 12 -10 12 -18 0 -8 5 -14 10 -14 15 0 12 -21 -7 -42 -15 -17
-15 -18 8 -19 18 -1 20 -2 6 -6 -14 -4 -17 -11 -13 -28 3 -13 2 -27 -4 -30 -5
-3 -10 2 -10 12 -1 14 -4 13 -15 -7 -21 -36 -19 -53 5 -45 11 4 20 2 20 -4 0
-6 -8 -11 -19 -11 -10 0 -24 -7 -31 -15 -10 -12 -9 -16 6 -22 32 -11 46 -43
19 -43 -8 0 -14 3 -13 8 2 4 -1 8 -7 10 -5 2 -14 -11 -19 -30 -6 -18 -15 -36
-22 -41 -7 -4 -11 -13 -8 -21 3 -7 -2 -19 -11 -26 -14 -12 -18 -11 -27 1 -7
11 -8 8 -5 -10 4 -17 1 -25 -14 -28 -14 -4 -18 -11 -14 -24 5 -14 1 -19 -14
-19 -21 0 -24 -18 -6 -33 6 -6 6 -10 -2 -14 -7 -2 -13 -11 -13 -18 0 -8 -7
-11 -18 -8 -16 4 -18 -1 -16 -36 1 -23 6 -47 12 -54 9 -10 6 -17 -8 -27 -11
-8 -20 -20 -20 -27 0 -7 -6 -10 -12 -8 -24 8 -50 -22 -51 -59 -1 -35 -18 -48
-33 -25 -4 8 -11 3 -20 -12 -15 -28 -8 -45 12 -28 10 8 14 8 14 1 0 -6 -9 -16
-20 -22 -11 -6 -20 -17 -20 -25 0 -8 -5 -15 -10 -15 -6 0 -8 -11 -4 -25 5 -19
2 -25 -10 -25 -20 0 -41 -39 -28 -52 13 -13 -5 -68 -20 -65 -6 1 -13 -4 -15
-10 -3 -7 0 -13 6 -13 18 0 13 -24 -9 -43 -21 -17 -29 -64 -9 -52 6 4 8 14 5
22 -4 9 -1 13 6 10 19 -6 11 -33 -18 -64 -15 -16 -24 -36 -22 -49 2 -12 -7
-34 -19 -48 -13 -14 -20 -32 -17 -41 4 -9 -2 -23 -14 -33 -21 -19 -28 -38 -36
-110 -7 -53 -14 -65 -33 -58 -8 3 -11 2 -8 -3 3 -5 1 -12 -5 -16 -5 -3 -10
-17 -10 -31 0 -13 -5 -24 -10 -24 -6 0 -16 -11 -22 -25 -7 -16 -22 -27 -45
-31 -27 -5 -32 -10 -28 -25 5 -14 0 -20 -18 -24 -13 -4 -33 -5 -43 -3 -19 3
-20 -1 -23 -50 -1 -21 -3 -22 -16 -8 -9 8 -12 22 -8 33 6 17 5 17 -15 -1 -12
-10 -19 -23 -16 -27 5 -8 -17 -14 -39 -10 -4 0 -6 -2 -5 -6 3 -16 -15 -43 -28
-43 -8 0 -14 -6 -14 -14 0 -17 -27 -46 -42 -46 -5 0 -8 7 -4 15 4 12 2 13 -14
2 -11 -6 -20 -17 -20 -23 0 -25 -35 -54 -57 -48 -13 4 -20 10 -17 15 11 18
-12 8 -43 -20 -18 -16 -33 -34 -33 -40 0 -7 -6 -11 -12 -10 -16 3 -49 -10 -69
-27 -8 -8 -36 -14 -62 -15 -45 -2 -60 -12 -34 -22 6 -3 -3 -3 -22 0 -22 4 -36
1 -42 -8 -7 -12 -9 -12 -9 0 0 8 -6 11 -17 7 -10 -4 -14 -4 -10 0 12 12 -24
44 -50 44 -25 0 -30 -19 -11 -38 20 -20 1 -25 -67 -15 -36 5 -65 6 -65 2 0
-14 -88 -8 -94 7 -6 16 -36 19 -36 4 0 -7 -7 -7 -21 1 -12 6 -38 9 -59 5 -27
-4 -39 -2 -43 8 -3 8 -21 13 -44 13 -57 0 -113 21 -106 39 4 10 -2 14 -21 14
-16 0 -38 12 -56 30 -20 21 -30 26 -30 15 0 -18 -9 -19 -35 -2 -25 16 -90 39
-102 35 -7 -2 -45 35 -138 133 -14 14 -25 31 -25 38 0 6 -6 14 -14 17 -8 3
-20 19 -26 35 -7 16 -16 29 -21 29 -5 0 -9 6 -9 14 0 8 -7 16 -15 20 -8 3 -15
12 -15 21 0 8 -4 15 -10 15 -5 0 -10 9 -10 19 0 11 -8 22 -18 25 -9 3 -25 24
-35 46 -9 22 -21 40 -26 40 -11 0 -41 56 -41 77 0 7 -4 13 -10 13 -5 0 -10 7
-10 15 0 8 -5 15 -10 15 -6 0 -15 11 -21 24 -7 14 -23 27 -36 31 -14 3 -32 13
-41 22 -14 14 -13 17 9 34 22 18 23 20 6 30 -9 6 -15 14 -12 19 3 4 -2 11 -11
14 -8 3 -12 10 -9 16 3 5 2 10 -2 10 -5 0 -14 -9 -21 -20 -16 -26 -25 -25 -37
3 -6 12 -16 21 -22 20 -6 -1 -17 18 -24 42 -7 25 -19 45 -26 45 -16 0 -17 12
-3 26 7 7 5 17 -5 30 -13 16 -16 17 -26 4 -8 -12 -9 -8 -5 17 4 25 2 31 -9 26
-9 -3 -15 1 -15 11 0 19 -21 21 -38 4 -9 -9 -12 -6 -12 16 0 22 -4 27 -16 22
-13 -5 -15 -1 -10 19 4 14 2 25 -4 25 -5 0 -10 -4 -10 -8 0 -4 -16 -6 -35 -4
-21 3 -35 0 -35 -7 0 -6 -5 -11 -11 -11 -5 0 -7 5 -4 10 3 5 2 10 -4 10 -5 0
-15 -14 -23 -30 -7 -17 -17 -29 -22 -27 -18 6 -16 23 4 45 25 26 25 32 1 32
-11 0 -23 -9 -26 -20 -7 -21 -35 -28 -35 -9 0 5 -6 7 -12 3 -10 -6 -10 -4 0 8
10 13 10 17 -4 22 -39 15 -26 -31 14 -49 12 -5 25 -19 28 -30 4 -11 28 -47 54
-80 26 -33 62 -85 80 -115 64 -107 154 -266 186 -329 18 -35 38 -69 43 -74 6
-6 11 -24 11 -39 0 -22 4 -27 21 -25 15 1 27 -7 39 -28 16 -29 16 -70 0 -60
-12 7 -25 -16 -14 -24 5 -3 15 -17 21 -31 11 -24 12 -25 12 -2 1 21 21 33 21
12 0 -5 6 -7 14 -4 16 6 91 -40 91 -55 0 -16 77 -101 91 -101 8 0 14 -5 14
-12 0 -6 18 -29 40 -50 22 -22 40 -44 40 -49 0 -6 6 -9 14 -7 8 2 27 -10 44
-27 47 -48 76 -70 92 -70 8 0 16 -9 18 -20 2 -11 8 -30 14 -42 9 -18 14 -20
33 -11 29 13 59 -3 77 -40 9 -18 22 -28 41 -30 37 -5 34 -20 -9 -38 -51 -21
-39 -24 36 -8 75 16 113 18 106 5 -6 -9 37 -31 62 -31 9 0 23 -9 30 -20 7 -11
18 -20 25 -20 7 0 18 -9 25 -20 10 -17 16 -19 33 -10 16 9 26 8 45 -5 20 -13
28 -14 40 -4 8 6 17 9 21 5 3 -3 1 -6 -6 -6 -7 0 -9 -4 -6 -10 3 -5 16 -10 28
-10 12 0 42 -12 67 -26 35 -20 54 -25 88 -21 27 3 42 1 42 -7 0 -6 5 -4 10 4
9 13 12 13 24 -2 14 -19 41 -24 51 -9 3 6 17 4 33 -5 15 -7 44 -14 64 -14 20
0 40 -5 43 -11 4 -6 14 -7 24 -4 31 12 120 16 126 5 5 -8 11 -8 20 0 10 8 15
8 20 0 5 -8 11 -8 21 0 10 9 21 8 44 -4 17 -8 38 -12 46 -9 9 3 14 -1 14 -12
0 -15 6 -16 33 -10 52 11 82 11 82 -2 0 -6 3 -15 8 -19 12 -12 8 -24 -8 -24
-8 0 -15 -7 -15 -17 0 -15 1 -15 18 0 10 10 21 14 24 11 7 -7 96 31 168 72 14
7 32 14 41 14 9 0 19 6 22 14 4 9 14 12 26 9 12 -3 21 -1 21 5 0 9 28 22 55
26 5 0 11 10 14 21 5 28 28 42 88 55 54 12 83 39 83 80 0 11 5 20 11 20 6 0 8
-8 5 -17 -3 -10 -2 -23 2 -30 10 -15 37 4 46 35 6 17 3 22 -10 22 -13 0 -14 3
-4 15 7 8 18 15 25 15 20 0 47 37 43 62 -2 17 2 23 15 22 12 -1 17 5 17 21 0
13 6 25 12 27 7 3 13 11 13 19 0 8 2 14 5 14 12 2 50 41 50 53 0 7 16 28 35
48 19 19 35 39 35 44 0 6 5 10 11 10 6 0 9 6 6 14 -3 7 6 25 19 39 13 14 24
36 24 47 0 17 4 20 22 15 16 -6 20 -4 15 7 -3 8 4 23 14 32 14 12 18 23 13 39
-8 24 -8 25 2 84 4 29 11 40 20 36 10 -4 12 7 9 46 -3 42 -1 51 13 52 11 0 12
3 5 6 -18 7 -16 20 5 27 35 13 59 31 54 44 -2 7 2 10 12 6 9 -3 16 -10 16 -15
0 -5 5 -9 11 -9 6 0 8 8 5 18 -4 12 4 28 24 47 24 23 30 25 30 12 0 -10 6 -26
13 -37 10 -17 9 -22 -3 -30 -8 -5 -11 -12 -8 -15 12 -13 50 32 44 52 -3 10 0
34 7 55 11 30 16 35 30 27 19 -11 37 -4 37 14 0 7 9 18 19 24 24 15 46 -6 38
-37 -7 -27 3 -25 30 6 13 15 27 23 34 18 9 -5 7 -11 -6 -20 -15 -11 -16 -16
-5 -30 13 -14 15 -14 22 5 8 22 28 29 28 9 0 -6 15 -24 33 -41 30 -27 31 -29
8 -25 -13 1 -26 -2 -28 -8 -2 -6 8 -10 26 -9 17 1 32 -4 35 -12 3 -7 1 -13 -4
-13 -5 0 -7 -6 -4 -14 3 -8 1 -17 -5 -21 -6 -3 -11 -14 -11 -25 0 -13 5 -17
19 -13 17 4 19 0 16 -46 -2 -27 -7 -55 -11 -62 -5 -9 -2 -10 9 -6 24 9 47 -2
47 -24 0 -10 20 -33 45 -51 46 -35 55 -48 30 -48 -18 0 -19 -12 -3 -28 9 -9 7
-13 -5 -18 -24 -9 -21 -34 4 -34 16 0 20 -5 16 -19 -3 -14 -1 -18 9 -14 8 3
14 -1 14 -10 0 -8 -6 -17 -12 -20 -7 -2 -9 -8 -5 -13 4 -5 12 -2 16 5 11 17
34 4 27 -14 -3 -8 0 -15 5 -17 7 -2 7 -13 0 -31 -6 -16 -11 -35 -11 -44 0 -14
3 -14 20 2 23 21 32 16 36 -22 5 -46 14 -73 24 -73 6 0 10 7 10 15 0 8 -5 15
-11 15 -5 0 -7 4 -4 10 10 15 35 12 35 -5 0 -19 14 -19 30 0 9 11 16 13 24 5
13 -13 26 -13 26 0 0 6 -6 10 -14 10 -20 0 -38 26 -33 47 4 16 6 15 12 -5 5
-16 15 -22 35 -22 15 0 35 -9 45 -20 23 -25 32 -25 40 0 3 11 12 20 20 20 17
0 28 31 19 55 -5 12 -3 16 6 13 16 -5 34 -48 20 -48 -6 0 -10 -6 -10 -14 0 -7
-8 -16 -19 -19 -22 -5 -33 -53 -17 -70 27 -27 26 -50 -4 -108 -16 -32 -40 -69
-52 -82 -41 -43 -74 -81 -122 -140 -26 -32 -55 -67 -64 -78 -31 -37 -128 -133
-178 -176 l-49 -42 730 0 c402 -1 735 3 742 7 6 4 11 14 10 22 -1 8 7 33 17
55 10 22 22 49 26 60 4 11 21 49 38 85 30 63 46 104 79 202 9 27 19 48 23 48
9 0 44 119 99 345 26 105 43 244 37 297 -8 62 -9 63 -127 163 -45 39 -107 93
-137 120 -62 57 -292 336 -369 448 -63 92 -91 112 -153 111 -56 0 -454 -32
-497 -39 -17 -3 -114 -12 -215 -19 -162 -13 -185 -12 -200 1 -9 8 -32 22 -50
31 -21 11 -41 33 -55 62 -25 51 -64 194 -87 320 -22 117 -37 494 -25 637 6 81
6 121 -2 135 -7 14 -8 18 0 14 6 -4 10 8 9 36 0 24 2 61 5 83 11 75 30 264 27
278 -1 5 6 14 16 21 14 10 16 21 10 52 -10 50 -9 44 -2 147 7 95 0 169 -15
145 -5 -7 -9 -8 -9 -3 0 6 9 19 21 28 11 10 18 24 16 31 -3 8 0 13 6 13 25 -3
124 15 172 30 53 17 117 56 149 92 27 30 13 26 -26 -7 -53 -46 -105 -71 -158
-78 -47 -6 -50 -5 -50 15 0 12 -7 24 -15 27 -9 4 -13 16 -11 35 2 15 -2 30 -8
32 -8 3 -7 12 3 30 11 21 12 29 2 41 -9 10 -9 21 -3 32 5 9 7 25 5 35 -3 11 0
19 7 19 7 0 10 7 6 16 -5 12 -1 14 17 9 17 -5 19 -4 7 4 -12 8 -12 13 -2 23
16 16 16 29 0 23 -7 -2 -25 6 -40 20 -31 27 -34 35 -14 35 20 0 27 40 10 57
-19 19 -18 33 6 101 12 31 23 77 25 102 6 50 21 73 31 47 3 -9 10 -17 16 -17
5 0 6 5 3 10 -3 6 1 13 10 16 15 6 34 -10 62 -53 12 -17 13 -17 28 1 8 11 15
31 15 45 0 14 7 35 15 45 8 11 15 29 15 40 0 16 2 18 9 7 15 -23 19 2 11 64
-4 33 -8 51 -9 40 -1 -21 -96 -123 -106 -114 -12 12 -17 69 -6 69 6 0 10 10 9
23 -1 12 2 36 5 52 4 17 3 36 -1 43 -5 7 -4 40 1 74 8 45 15 62 29 66 10 2 18
7 19 11 0 3 2 17 3 29 3 24 21 42 44 42 7 0 10 4 7 10 -3 5 2 21 11 35 13 19
14 28 5 39 -10 11 -8 17 6 25 10 6 12 11 6 11 -7 0 -13 4 -13 10 0 5 6 7 14 4
10 -4 12 2 8 22 -4 22 -2 26 10 21 12 -4 17 2 20 23 3 16 0 32 -6 34 -6 2 -5
5 3 5 11 1 11 4 2 15 -9 11 -9 20 -2 35 8 14 8 21 -2 25 -9 5 -9 7 1 12 6 3
12 10 12 15 0 6 -4 7 -10 4 -5 -3 -10 -1 -10 4 0 6 5 11 10 11 6 0 10 7 10 16
0 9 5 12 13 8 9 -6 9 -4 -1 8 -11 13 -20 71 -37 240 -3 30 -1 36 11 31 16 -6
15 -2 -8 92 -9 37 -11 38 -24 20 -8 -11 -14 -13 -14 -6 0 23 -61 -24 -84 -64
-11 -21 -25 -37 -31 -37 -5 1 -10 28 -11 59 -1 40 -8 70 -23 97 -17 29 -19 41
-10 52 9 11 7 14 -15 14 -22 0 -27 5 -32 40 -4 22 -11 40 -16 40 -5 0 -7 3 -4
8 2 4 -2 34 -10 67 -9 37 -12 81 -8 116 4 37 2 59 -5 63 -6 4 -11 29 -11 55 0
49 -24 150 -60 255 -11 32 -17 62 -14 68 3 5 1 15 -6 23 -7 8 -9 27 -5 49 5
22 1 56 -8 88 -17 57 -21 78 -43 228 -4 25 -15 62 -26 83 -11 22 -14 37 -8 37
14 0 4 35 -18 70 -9 14 -17 43 -19 65 -6 106 -13 144 -34 180 -12 22 -21 54
-20 72 1 17 -7 46 -18 65 -11 18 -22 49 -25 68 -2 19 -11 49 -20 65 -9 17 -16
35 -16 41 0 6 -7 17 -15 24 -8 7 -15 22 -15 35 0 12 -11 43 -25 69 -14 26 -25
53 -25 60 0 8 -7 16 -15 20 -8 3 -15 12 -15 20 0 8 -13 27 -30 42 -18 18 -26
32 -20 39 5 6 7 20 5 30 -2 11 -4 25 -4 32 -1 7 -16 27 -35 45 -18 18 -37 43
-40 56 -4 12 -13 22 -21 22 -8 0 -17 9 -20 20 -3 11 -14 20 -23 20 -9 0 -28
16 -42 35 -14 18 -42 43 -62 55 -21 12 -38 28 -38 36 0 8 -7 14 -15 14 -9 0
-20 11 -25 25 -6 15 -20 27 -37 31 -15 4 -37 13 -48 20 -11 8 -27 14 -37 14
-20 0 -24 15 -8 25 15 9 2 25 -14 19 -17 -6 -31 12 -16 21 5 3 10 11 10 16 0
6 -3 8 -8 5 -13 -8 -38 18 -45 46 -5 18 -16 30 -32 34 -14 3 -25 10 -25 15 0
5 -9 9 -19 9 -11 0 -26 7 -35 15 -8 8 -22 15 -31 15 -8 0 -20 11 -26 24 -7 14
-22 27 -35 30 -13 4 -24 13 -24 22 0 8 -7 17 -15 20 -8 4 -15 11 -15 18 0 11
-69 46 -91 46 -6 0 -20 11 -31 25 -11 14 -25 25 -33 25 -7 0 -15 6 -18 14 -3
8 -30 22 -59 31 -29 10 -57 24 -61 32 -5 7 -12 11 -16 8 -5 -2 -14 2 -21 10
-7 8 -19 15 -27 15 -7 0 -16 6 -18 13 -3 6 -21 13 -40 14 -19 1 -47 11 -61 22
-15 12 -37 21 -50 21 -13 0 -24 4 -24 8 0 10 -4 11 -98 15 -50 2 -76 8 -83 18
-6 10 -11 11 -17 2 -5 -8 -25 -3 -70 18 -37 18 -71 27 -82 24 -11 -3 -28 -2
-38 4 -13 7 -22 7 -29 0 -8 -8 -18 -7 -34 3 -19 10 -122 14 -486 16 l-463 3
-24 -25z m2744 -1107 c0 -5 -4 -9 -10 -9 -5 0 -10 7 -10 16 0 8 5 12 10 9 6
-3 10 -10 10 -16z m-1138 -691 c-9 -9 -12 -7 -12 12 0 19 3 21 12 12 9 -9 9
-15 0 -24z m-221 -111 c-8 -8 -11 -3 -11 19 1 25 2 27 11 11 8 -14 8 -22 0
-30z m699 -63 c0 -8 -4 -12 -10 -9 -5 3 -10 10 -10 16 0 5 5 9 10 9 6 0 10 -7
10 -16z m-1280 -204 c0 -5 -5 -10 -11 -10 -5 0 -7 5 -4 10 3 6 8 10 11 10 2 0
4 -4 4 -10z m1590 -530 c0 -5 -4 -10 -10 -10 -5 0 -10 5 -10 10 0 6 5 10 10
10 6 0 10 -4 10 -10z m400 -815 c0 -8 -4 -17 -10 -20 -5 -3 -10 -15 -10 -26 0
-10 -4 -19 -10 -19 -5 0 -10 11 -10 25 0 14 5 25 11 25 6 0 8 9 4 20 -5 15 -3
18 9 14 9 -3 16 -12 16 -19z m116 -201 c-3 -9 -6 -23 -6 -32 -1 -15 -3 -14
-15 2 -11 14 -12 23 -4 33 16 18 32 16 25 -3z m-70 -29 c6 -14 -3 -52 -10 -44
-2 2 -6 16 -10 32 -7 29 10 39 20 12z m114 -115 c0 -5 -7 -7 -15 -4 -8 4 -12
10 -9 15 6 11 24 2 24 -11z m-4630 -230 c0 -5 -2 -10 -4 -10 -3 0 -8 5 -11 10
-3 6 -1 10 4 10 6 0 11 -4 11 -10z m4680 -146 c0 -8 -5 -12 -10 -9 -6 4 -8 11
-5 16 9 14 15 11 15 -7z m27 -97 c2 -26 0 -29 -8 -14 -6 10 -8 25 -5 33 8 21
11 17 13 -19z m43 -57 c0 -5 -2 -10 -4 -10 -3 0 -8 5 -11 10 -3 6 -1 10 4 10
6 0 11 -4 11 -10z m-61 -181 c-22 -14 -33 -10 -19 6 7 8 17 12 22 9 6 -4 5
-10 -3 -15z m-119 -88 c0 -6 -4 -13 -10 -16 -5 -3 -10 1 -10 9 0 9 5 16 10 16
6 0 10 -4 10 -9z m70 -111 c0 -5 -5 -10 -11 -10 -5 0 -7 5 -4 10 3 6 8 10 11
10 2 0 4 -4 4 -10z m27 -126 c-3 -3 -12 -4 -19 -1 -8 3 -5 6 6 6 11 1 17 -2
13 -5z m-14 -134 c-6 -23 -19 -26 -26 -6 -4 9 1 17 11 19 9 3 18 5 19 6 0 0
-1 -8 -4 -19z m-79 -31 c-31 -12 -40 -9 -20 6 10 8 24 11 29 8 6 -4 2 -10 -9
-14z m365 -6 c0 -25 -16 -75 -19 -63 -1 3 -2 24 -4 48 -2 29 2 42 11 42 8 0
13 -11 12 -27z m-277 -55 c-7 -7 -16 -7 -28 0 -14 8 -13 10 10 10 18 0 24 -4
18 -10z m42 -91 c-10 -26 -22 -20 -16 9 3 15 8 22 14 16 5 -5 6 -16 2 -25z
m-94 -327 c0 -5 -5 -10 -11 -10 -5 0 -7 5 -4 10 3 6 8 10 11 10 2 0 4 -4 4
-10z m-82 -118 c2 -7 -6 -12 -17 -12 -21 0 -27 11 -14 24 9 9 26 2 31 -12z
m-1054 -160 c33 -26 65 -53 69 -59 4 -7 12 -13 17 -13 5 0 33 -18 62 -39 28
-22 55 -38 59 -36 4 3 13 -3 20 -11 21 -26 89 -65 99 -59 5 3 7 -1 4 -9 -4
-11 3 -20 23 -28 32 -14 73 -57 73 -75 0 -17 -6 -16 -35 3 -14 9 -25 12 -26 8
0 -5 -5 0 -10 11 -7 15 -7 11 -3 -15 3 -19 8 -43 10 -52 7 -23 -22 -24 -30 -2
-4 9 -9 14 -13 11 -3 -4 -11 1 -18 10 -15 21 -45 10 -45 -16 0 -32 -34 -35
-65 -7 -15 14 -33 22 -41 19 -18 -7 -18 -9 5 -30 19 -18 46 -127 35 -144 -11
-19 -43 -8 -69 24 -38 45 -52 51 -64 29 -8 -15 -6 -24 8 -39 24 -25 35 -60 22
-67 -5 -4 -14 2 -20 11 -6 10 -11 15 -11 11 -1 -21 -61 60 -66 88 -1 6 -5 20
-8 31 -8 25 17 47 44 40 17 -4 19 -2 14 21 -4 15 -9 32 -13 37 -6 11 -8 17
-10 40 0 9 -7 15 -13 13 -7 -1 -23 3 -35 10 -13 7 -23 10 -23 6 0 -4 -9 1 -20
11 -11 10 -20 23 -20 29 0 6 -12 22 -26 35 -14 13 -23 29 -21 36 3 6 -1 33 -8
60 -6 27 -14 43 -17 35 -4 -12 -8 -12 -18 -3 -7 6 -18 9 -24 7 -8 -3 -11 6 -8
31 3 21 0 35 -7 35 -6 0 -11 4 -11 9 0 5 9 7 20 4 14 -4 20 0 20 10 0 17 12
21 83 24 45 2 55 -2 111 -45z m1328 -212 c-6 -15 -11 -19 -16 -12 -4 7 -1 18
6 26 17 19 20 14 10 -14z m-652 -61 c0 -32 -24 -51 -52 -40 -28 11 -54 39 -44
48 4 4 16 2 26 -5 26 -16 40 -15 40 3 0 8 7 15 15 15 9 0 15 -9 15 -21z m37
-81 c-3 -8 -6 -5 -6 6 -1 11 2 17 5 13 3 -3 4 -12 1 -19z m-707 -18 c0 -5 -7
-10 -16 -10 -8 0 -12 5 -9 10 3 6 10 10 16 10 5 0 9 -4 9 -10z m1186 -9 c11 9
14 7 14 -10 0 -11 -4 -21 -10 -21 -5 0 -10 -9 -10 -20 0 -11 -5 -20 -10 -20
-16 0 -23 27 -15 58 4 15 10 21 12 14 4 -10 8 -10 19 -1z m-773 -25 c9 -7 17
-16 17 -20 0 -12 -18 -6 -41 14 -28 22 -6 28 24 6z m487 -32 c0 -8 -4 -13 -9
-9 -6 3 -14 -3 -20 -12 -7 -12 -10 -14 -11 -4 0 8 8 20 18 27 22 17 22 17 22
-2z m220 -4 c0 -5 -4 -10 -10 -10 -5 0 -10 5 -10 10 0 6 5 10 10 10 6 0 10 -4
10 -10z m-840 -43 c0 -5 -7 -6 -16 -3 -9 3 -18 6 -20 6 -2 0 -4 7 -4 15 0 13
3 13 20 3 11 -7 20 -17 20 -21z m912 -15 c-12 -2 -20 -8 -17 -13 4 -5 2 -9 -4
-9 -6 0 -8 -6 -5 -13 2 -7 -5 -23 -16 -35 -18 -19 -19 -23 -6 -28 8 -3 20 -3
26 1 7 5 7 0 -1 -13 -8 -12 -19 -18 -28 -14 -13 5 -14 3 -3 -10 10 -12 9 -21
-3 -44 -8 -16 -15 -39 -15 -51 0 -13 -4 -23 -10 -23 -5 0 -10 -9 -10 -21 0
-16 4 -19 20 -14 11 4 20 2 20 -4 0 -10 -28 -16 -57 -12 -7 1 -13 -3 -13 -9 0
-12 -41 -30 -53 -23 -4 2 -4 10 0 16 4 7 8 26 8 42 3 108 6 125 28 147 12 13
31 23 41 23 11 0 21 6 24 13 2 7 -5 12 -17 12 -12 0 -21 5 -21 10 0 11 12 13
48 10 26 -2 29 8 6 24 -18 13 -9 46 12 46 8 0 14 7 14 15 0 13 4 13 27 -2 27
-18 27 -18 5 -21z m-132 8 c0 -5 -5 -10 -11 -10 -5 0 -7 5 -4 10 3 6 8 10 11
10 2 0 4 -4 4 -10z m38 -15 c-1 -14 -8 -25 -15 -25 -7 0 -13 -7 -13 -15 0 -8
-4 -15 -10 -15 -15 0 -12 14 8 49 21 37 32 40 30 6z m-878 -25 c0 -5 -4 -10
-10 -10 -5 0 -10 5 -10 10 0 6 5 10 10 10 6 0 10 -4 10 -10z m-195 -58 c-19
-4 -37 16 -28 31 3 4 14 0 25 -10 18 -16 19 -18 3 -21z m-52 -24 c17 -19 26
-39 24 -50 -3 -10 1 -25 9 -33 9 -9 11 -16 4 -20 -15 -9 -40 13 -34 30 6 14
-33 41 -43 31 -6 -6 -32 23 -33 37 0 4 7 7 15 7 8 0 15 7 15 15 0 23 13 18 43
-17z m477 12 c0 -11 -7 -20 -15 -20 -8 0 -15 -5 -15 -12 0 -6 -3 -8 -6 -5 -7
6 22 57 31 57 3 0 5 -9 5 -20z m-605 0 c3 -5 1 -10 -4 -10 -6 0 -11 5 -11 10
0 6 2 10 4 10 3 0 8 -4 11 -10z m-30 -70 c3 -5 1 -10 -4 -10 -6 0 -11 5 -11
10 0 6 2 10 4 10 3 0 8 -4 11 -10z m-1487 -71 c-6 -16 -12 -29 -13 -27 -6 6 8
58 16 58 4 0 3 -14 -3 -31z m1672 -19 c0 -5 -4 -10 -10 -10 -5 0 -10 5 -10 10
0 6 5 10 10 10 6 0 10 -4 10 -10z m1157 -12 c-3 -8 -6 -5 -6 6 -1 11 2 17 5
13 3 -3 4 -12 1 -19z m-2971 -84 c-3 -9 -6 -18 -6 -20 0 -3 -4 -3 -10 1 -11 7
-2 35 12 35 6 0 7 -7 4 -16z m2850 -25 c18 -20 18 -22 1 -34 -9 -6 -17 -17
-17 -24 0 -6 -4 -11 -10 -11 -5 0 -10 11 -10 24 0 13 -5 26 -12 28 -9 3 -8 9
2 21 19 21 23 21 46 -4z m-1056 -168 c0 -12 -20 -25 -27 -18 -7 7 6 27 18 27
5 0 9 -4 9 -9z m-2316 -691 c9 -22 23 -40 31 -40 8 0 15 -4 15 -10 0 -13 -6
-13 -32 1 -14 8 -23 8 -31 0 -13 -13 -47 -15 -47 -2 0 5 7 11 15 15 24 9 19
39 -5 31 -27 -9 -25 10 2 29 31 22 34 21 52 -24z m2781 -40 c-3 -5 -10 -10
-16 -10 -5 0 -9 5 -9 10 0 6 7 10 16 10 8 0 12 -4 9 -10z m-2775 -47 c0 -9 -3
-13 -7 -10 -3 4 -12 2 -20 -5 -17 -13 -28 -4 -20 17 9 21 47 20 47 -2z m257
-255 c-3 -8 -6 -5 -6 6 -1 11 2 17 5 13 3 -3 4 -12 1 -19z m3462 -23 c3 -17 2
-17 -13 -3 -19 20 -21 31 -3 26 6 -3 14 -13 16 -23z m31 -15 c0 -5 -4 -10 -10
-10 -5 0 -10 5 -10 10 0 6 5 10 10 10 6 0 10 -4 10 -10z m445 -30 c3 -5 2 -10
-4 -10 -5 0 -13 5 -16 10 -3 6 -2 10 4 10 5 0 13 -4 16 -10z m-760 -10 c3 -5
1 -10 -4 -10 -6 0 -11 5 -11 10 0 6 2 10 4 10 3 0 8 -4 11 -10z m768 -43 c-1
-15 2 -27 6 -27 13 0 31 24 31 42 0 10 5 18 10 18 6 0 10 -6 10 -14 0 -8 3
-21 6 -30 4 -10 1 -16 -9 -16 -9 0 -19 -5 -23 -11 -4 -8 3 -9 22 -5 16 3 36 2
44 -4 10 -6 11 -10 3 -10 -7 0 -13 -4 -13 -10 0 -5 6 -10 14 -10 8 0 18 -5 22
-12 5 -8 2 -9 -9 -5 -10 3 -17 2 -17 -3 0 -6 7 -10 16 -10 10 0 14 -7 12 -22
-2 -15 2 -22 10 -20 8 1 16 -7 19 -18 3 -12 17 -26 30 -31 14 -5 27 -19 30
-30 4 -14 12 -19 23 -16 13 3 16 0 12 -15 -4 -18 -2 -19 16 -9 28 15 29 14 35
-11 4 -13 0 -33 -8 -45 -8 -12 -15 -28 -15 -35 0 -7 -11 -26 -25 -42 -14 -16
-25 -34 -25 -39 0 -23 -45 -107 -57 -107 -16 0 -17 22 0 39 10 11 10 14 0 18
-15 6 -17 43 -3 43 6 0 10 5 10 10 0 6 -7 10 -15 10 -8 0 -19 -17 -26 -40 -13
-42 -29 -54 -29 -20 0 11 -5 20 -11 20 -6 0 -9 7 -5 15 7 19 -31 55 -50 48 -8
-3 -14 0 -14 6 0 6 5 11 11 11 6 0 3 7 -5 16 -18 17 -19 27 -10 73 5 21 12 31
25 31 21 0 25 15 7 26 -6 4 -14 2 -16 -4 -8 -26 -20 -10 -17 23 2 19 0 35 -5
35 -5 0 -25 27 -44 60 -35 60 -38 86 -9 103 19 12 16 24 -7 30 -33 8 -23 27
13 24 28 -3 32 -6 30 -30z m-1583 -51 c0 -3 -4 -8 -10 -11 -5 -3 -10 -1 -10 4
0 6 5 11 10 11 6 0 10 -2 10 -4z m1740 -76 c0 -5 -4 -10 -10 -10 -5 0 -10 5
-10 10 0 6 5 10 10 10 6 0 10 -4 10 -10z m-195 -10 c-3 -5 -11 -10 -16 -10 -6
0 -7 5 -4 10 3 6 11 10 16 10 6 0 7 -4 4 -10z m-365 -30 c0 -5 -4 -10 -10 -10
-5 0 -10 5 -10 10 0 6 5 10 10 10 6 0 10 -4 10 -10z m70 -40 c0 -5 -7 -7 -15
-4 -8 4 -15 8 -15 10 0 2 7 4 15 4 8 0 15 -4 15 -10z m332 -52 c-4 -24 -17
-32 -17 -10 0 4 -4 13 -8 19 -4 7 -3 23 4 35 11 21 13 21 19 4 3 -10 4 -32 2
-48z m-52 -12 c0 -3 -4 -8 -10 -11 -5 -3 -10 -1 -10 4 0 6 5 11 10 11 6 0 10
-2 10 -4z m-255 -16 c3 -5 1 -10 -4 -10 -6 0 -11 5 -11 10 0 6 2 10 4 10 3 0
8 -4 11 -10z m-785 -69 c0 -5 -9 -11 -20 -14 -11 -3 -20 -1 -20 3 0 5 8 11 18
13 9 3 18 5 20 6 1 0 2 -3 2 -8z m-744 -28 c-10 -10 -19 5 -10 18 6 11 8 11
12 0 2 -7 1 -15 -2 -18z m779 17 c-3 -5 -12 -10 -18 -10 -7 0 -6 4 3 10 19 12
23 12 15 0z m-38 -62 c-3 -8 -6 -5 -6 6 -1 11 2 17 5 13 3 -3 4 -12 1 -19z
m-32 -28 c-3 -5 -10 -10 -16 -10 -5 0 -9 5 -9 10 0 6 7 10 16 10 8 0 12 -4 9
-10z m1208 -27 c25 -8 21 -20 -8 -26 -18 -3 -29 1 -35 14 -14 26 -12 32 8 24
9 -4 25 -10 35 -12z m-120 -37 c6 -16 -2 -28 -14 -20 -12 7 -11 34 0 34 5 0
11 -6 14 -14z m144 -26 c2 -28 -12 -33 -33 -9 -14 16 -15 19 -2 14 9 -4 19 -2
23 4 9 15 11 14 12 -9z m-132 -30 c0 -10 -12 -16 -32 -18 -36 -4 -44 11 -15
27 23 14 47 9 47 -9z m195 5 c0 -8 -4 -15 -10 -15 -5 0 -10 -9 -10 -20 0 -10
-6 -23 -12 -27 -7 -4 -24 -29 -38 -55 -13 -27 -28 -48 -32 -48 -11 0 -10 2 7
44 8 19 14 39 13 43 -2 5 7 18 19 30 14 14 20 29 16 42 -4 17 -1 21 21 21 16
0 26 -5 26 -15z m-3395 -45 c3 -5 1 -10 -4 -10 -6 0 -11 5 -11 10 0 6 2 10 4
10 3 0 8 -4 11 -10z"/>
<path d="M6722 2907 c-7 -8 -6 -17 3 -30 12 -16 13 -16 19 5 10 40 0 52 -22
25z"/>
<path d="M7548 1212 c-3 -18 -1 -35 4 -38 13 -8 19 20 10 46 -9 24 -9 23 -14
-8z"/>
<path d="M7589 1183 c7 -27 31 -45 31 -23 0 17 -19 50 -29 50 -5 0 -6 -12 -2
-27z"/>
<path d="M7745 1060 c-3 -5 -1 -10 4 -10 6 0 11 5 11 10 0 6 -2 10 -4 10 -3 0
-8 -4 -11 -10z"/>
<path d="M7775 1030 c-15 -17 -16 -20 -3 -20 9 0 19 7 22 16 10 25 1 27 -19 4z"/>
<path d="M7563 995 c0 -8 4 -12 9 -9 4 3 8 9 8 15 0 5 -4 9 -8 9 -5 0 -9 -7
-9 -15z"/>
<path d="M7640 985 c0 -14 5 -25 10 -25 6 0 10 11 10 25 0 14 -4 25 -10 25 -5
0 -10 -11 -10 -25z"/>
<path d="M7600 955 c7 -9 15 -13 17 -11 7 7 -7 26 -19 26 -6 0 -6 -6 2 -15z"/>
<path d="M45 9235 c-22 -8 -41 -15 -42 -15 -2 0 -3 -79 -3 -176 l0 -175 35
-15 c72 -30 128 -34 314 -26 l184 9 29 31 c32 37 36 73 14 145 -18 60 -47 99
-88 120 -18 9 -95 39 -171 67 -148 54 -200 61 -272 35z"/>
<path d="M7675 8622 c-55 -26 -131 -110 -143 -158 -6 -22 -13 -136 -16 -254
-5 -192 -4 -219 12 -250 15 -31 22 -35 60 -38 23 -2 66 4 95 12 92 26 137 28
242 8 120 -22 144 -18 168 28 16 31 17 59 15 245 -3 244 -7 255 -93 310 -75
48 -205 104 -257 110 -30 4 -55 0 -83 -13z"/>
<path d="M5599 7547 c15 -19 46 -23 56 -7 3 6 0 10 -7 10 -7 0 -24 3 -38 7
-22 6 -24 5 -11 -10z"/>
<path d="M5928 7333 c7 -3 16 -2 19 1 4 3 -2 6 -13 5 -11 0 -14 -3 -6 -6z"/>
<path d="M2615 7070 c-3 -5 1 -10 9 -10 9 0 16 5 16 10 0 6 -4 10 -9 10 -6 0
-13 -4 -16 -10z"/>
<path d="M1515 7056 c-16 -7 -82 -46 -145 -87 -126 -80 -122 -79 -270 -64 -60
6 -74 3 -180 -35 -63 -24 -161 -64 -218 -91 l-102 -48 56 -78 c31 -43 69 -105
84 -138 42 -92 45 -135 15 -248 -36 -139 -32 -202 15 -227 30 -16 63 -6 105
32 44 38 66 79 95 178 24 81 103 244 151 309 42 59 59 54 118 -33 113 -167
169 -166 340 3 81 81 106 131 120 241 12 93 8 117 -32 195 -44 87 -94 117
-152 91z"/>
<path d="M178 7040 c-37 -10 -92 -21 -123 -25 l-55 -6 0 -147 0 -146 34 -36
c52 -53 104 -145 117 -208 11 -53 9 -61 -29 -181 -27 -86 -43 -158 -50 -227
-7 -72 -18 -119 -38 -165 -25 -58 -28 -77 -32 -201 l-3 -137 43 -32 c75 -55
124 -71 205 -67 62 3 77 7 110 34 91 72 122 208 85 370 -12 49 -24 127 -27
174 -4 47 -15 135 -26 197 -24 142 -24 179 2 255 30 90 79 157 143 198 30 19
55 38 56 42 0 6 -110 165 -170 246 -33 45 -98 82 -141 81 -19 0 -64 -9 -101
-19z"/>
<path d="M6014 7034 c3 -9 6 -18 6 -20 0 -3 5 -2 10 1 16 10 12 35 -6 35 -11
0 -14 -5 -10 -16z"/>
<path d="M6020 6991 c0 -5 5 -13 10 -16 6 -3 10 -2 10 4 0 5 -4 13 -10 16 -5
3 -10 2 -10 -4z"/>
<path d="M6105 6960 c3 -5 8 -10 11 -10 2 0 4 5 4 10 0 6 -5 10 -11 10 -5 0
-7 -4 -4 -10z"/>
<path d="M6285 6250 c-3 -5 -1 -10 4 -10 6 0 11 5 11 10 0 6 -2 10 -4 10 -3 0
-8 -4 -11 -10z"/>
<path d="M6510 5946 c0 -9 5 -16 10 -16 6 0 10 4 10 9 0 6 -4 13 -10 16 -5 3
-10 -1 -10 -9z"/>
<path d="M6400 5914 c0 -8 5 -12 10 -9 6 4 8 11 5 16 -9 14 -15 11 -15 -7z"/>
<path d="M6450 5899 c0 -5 5 -7 10 -4 6 3 10 8 10 11 0 2 -4 4 -10 4 -5 0 -10
-5 -10 -11z"/>
<path d="M6577 5733 c-12 -11 -8 -33 6 -33 7 0 13 9 14 20 2 20 -8 26 -20 13z"/>
<path d="M6460 5640 c0 -5 7 -10 15 -10 8 0 15 5 15 10 0 6 -7 10 -15 10 -8 0
-15 -4 -15 -10z"/>
<path d="M6595 5621 c4 -13 0 -23 -12 -30 -10 -6 -16 -11 -13 -12 22 -5 62 -7
53 -3 -8 3 -11 15 -7 28 4 16 0 25 -11 30 -13 4 -15 2 -10 -13z"/>
<path d="M6540 5621 c0 -6 5 -13 10 -16 6 -3 10 1 10 9 0 9 -4 16 -10 16 -5 0
-10 -4 -10 -9z"/>
<path d="M6241 5604 c0 -11 3 -14 6 -6 3 7 2 16 -1 19 -3 4 -6 -2 -5 -13z"/>
<path d="M6390 5604 c-14 -7 -37 -17 -53 -23 -15 -6 -32 -22 -37 -36 -5 -14
-17 -25 -26 -25 -10 0 -14 -6 -11 -14 3 -8 -1 -17 -10 -21 -13 -4 -14 -8 -5
-17 19 -19 14 -28 -13 -28 -13 0 -29 8 -35 18 -10 16 -10 16 -20 0 -7 -11 -24
-18 -43 -18 -18 -1 -56 -7 -86 -14 -59 -13 -163 -5 -188 15 -7 7 -16 10 -18 7
-3 -3 1 -11 9 -17 13 -11 12 -15 -6 -33 -20 -20 -22 -20 -34 -4 -7 11 -18 15
-25 10 -8 -5 -10 -3 -4 6 6 10 2 11 -18 6 -21 -5 -25 -3 -21 9 4 10 0 15 -15
15 -14 0 -19 -5 -15 -15 4 -8 2 -15 -4 -15 -13 0 -10 -24 7 -44 8 -10 9 -16 3
-16 -6 0 -14 5 -17 10 -5 8 -11 8 -19 1 -9 -8 -18 -6 -32 4 -16 11 -22 11 -39
1 -17 -11 -108 -25 -179 -27 -11 0 -23 -12 -29 -28 -9 -25 -17 -29 -58 -33
-26 -3 -65 -14 -88 -26 -28 -15 -41 -18 -41 -9 -1 7 -6 5 -14 -5 -7 -10 -17
-18 -21 -18 -5 0 -17 -8 -28 -17 -14 -13 -39 -19 -91 -20 -106 -4 -158 -15
-243 -55 -12 -6 -30 -8 -41 -6 -13 4 -27 -4 -43 -23 -13 -17 -38 -32 -56 -35
-23 -4 -33 -12 -33 -25 0 -12 -5 -16 -14 -13 -8 3 -20 -3 -28 -13 -7 -10 -22
-23 -33 -29 -12 -7 -24 -28 -29 -55 -5 -24 -14 -48 -20 -52 -8 -6 -7 -10 2
-14 6 -2 12 -13 12 -24 0 -10 4 -19 9 -19 4 0 7 -16 5 -34 -1 -21 3 -40 11
-46 9 -8 12 -22 8 -42 -4 -22 -3 -29 5 -24 7 4 12 1 12 -8 0 -8 -4 -17 -9 -20
-10 -7 27 -127 42 -137 5 -4 9 -20 9 -35 0 -16 7 -37 15 -46 8 -9 12 -21 9
-26 -3 -5 1 -15 9 -22 17 -14 21 -35 5 -25 -5 3 -10 2 -10 -3 0 -6 7 -12 15
-16 8 -3 12 -12 9 -19 -3 -9 3 -16 16 -20 11 -3 19 -9 18 -14 -4 -15 26 -51
39 -46 9 3 13 -4 13 -22 0 -15 4 -24 10 -20 7 4 9 -2 5 -18 -5 -19 -2 -25 14
-30 14 -3 19 -12 17 -31 -1 -14 -6 -29 -9 -33 -14 -13 -6 -25 13 -20 16 4 20
0 20 -19 0 -14 7 -27 16 -31 12 -4 13 -8 3 -14 -10 -6 -10 -11 1 -24 10 -12
11 -18 2 -24 -13 -8 -1 -63 18 -86 12 -15 14 -54 6 -122 -5 -40 6 -59 17 -30
3 7 6 4 6 -6 1 -11 7 -33 15 -50 8 -18 22 -49 30 -69 8 -21 19 -38 24 -38 11
0 8 257 -3 283 -4 10 -2 23 5 32 6 8 8 19 5 26 -16 26 -23 83 -13 103 8 15 8
21 0 24 -8 2 -8 13 2 35 7 18 10 41 6 52 -4 11 -6 23 -3 27 2 4 -3 22 -12 39
-9 17 -12 29 -7 25 5 -3 17 3 27 14 16 18 16 20 2 20 -10 0 -17 -4 -17 -10 0
-5 -5 -10 -10 -10 -6 0 -10 15 -10 33 1 39 -5 85 -14 114 -4 13 -3 30 2 40 7
11 6 23 -3 37 -11 17 -11 24 -1 39 11 14 30 18 102 18 49 1 92 0 97 -1 18 -6
29 -8 57 -9 18 -1 28 -6 26 -13 -1 -7 -1 -10 1 -6 3 4 27 10 54 14 27 4 49 12
49 18 0 18 -22 36 -45 36 -11 0 -25 10 -30 22 -11 25 -77 39 -71 15 1 -6 1 -9
-1 -4 -3 4 -12 7 -20 7 -12 0 -14 7 -8 28 3 15 11 29 16 30 5 2 9 16 9 30 0
45 14 56 72 59 77 3 95 7 116 26 25 23 35 21 27 -3 -3 -11 -2 -20 3 -20 5 0
12 9 15 20 4 15 14 20 40 20 20 0 39 5 42 10 10 16 43 12 53 -6 8 -14 14 -15
48 -4 28 10 39 10 42 1 6 -19 29 -12 36 12 6 22 6 22 27 -5 11 -16 29 -28 40
-28 10 0 19 -7 19 -15 0 -22 21 -18 27 5 3 11 10 20 15 20 8 0 5 -18 -9 -57
-7 -19 27 -28 50 -14 16 10 21 10 28 -1 6 -10 11 -9 23 7 8 11 17 17 21 14 3
-4 22 -3 41 1 26 6 43 4 64 -8 26 -15 30 -15 63 3 24 13 38 28 42 49 5 22 9
26 12 14 5 -19 23 -25 23 -8 0 6 7 10 15 10 8 0 15 5 15 10 0 6 -8 10 -17 10
-12 0 -5 9 19 25 20 14 48 25 62 25 14 0 28 5 31 10 4 6 10 8 15 5 5 -3 20 0
34 6 20 9 24 17 20 38 -4 24 2 29 76 64 44 22 80 42 80 47 0 4 9 6 20 3 11 -3
20 -9 20 -14 0 -5 5 -9 11 -9 6 0 9 7 5 15 -6 16 28 58 57 68 9 3 17 13 17 21
0 7 9 16 20 19 11 3 20 11 20 17 0 8 -9 10 -25 6 -30 -8 -33 9 -4 24 11 7 19
14 16 16 -3 3 -20 -4 -38 -15 -27 -17 -30 -21 -16 -27 24 -9 21 -34 -3 -34
-11 0 -20 -4 -20 -10 0 -5 -4 -10 -10 -10 -6 0 -9 6 -8 13 2 6 -5 11 -15 11
-17 -2 -36 40 -23 53 3 4 6 -3 6 -15 0 -12 4 -22 8 -22 16 0 32 25 32 51 0 15
7 32 15 39 8 7 13 24 11 41 -2 19 2 33 13 38 13 8 11 11 -12 22 -15 7 -27 16
-27 21 0 4 -4 8 -10 8 -13 0 -13 -47 0 -55 15 -9 2 -25 -20 -25 -11 0 -24 9
-30 20 -9 16 -14 18 -29 8 -16 -10 -23 -7 -45 17 -27 29 -33 41 -16 30 6 -4 5
5 -2 19 -14 33 -4 44 19 21 17 -17 18 -17 25 16 5 19 9 50 9 69 1 19 4 28 7
20 13 -39 24 -41 48 -8 28 37 31 106 5 116 -9 3 -21 13 -27 21 -10 13 -14 13
-28 2 -9 -7 -16 -9 -16 -3 0 15 -42 19 -70 6z m-30 -61 c0 -11 -4 -11 -20 -3
-11 6 -20 15 -20 19 0 5 9 7 20 4 11 -3 20 -12 20 -20z m143 -39 c-6 -15 -7
-15 -15 5 -10 28 1 51 13 28 5 -8 6 -23 2 -33z m-643 -144 c0 -5 -4 -10 -10
-10 -5 0 -10 5 -10 10 0 6 5 10 10 10 6 0 10 -4 10 -10z m665 -150 c3 -5 1
-10 -4 -10 -6 0 -11 5 -11 10 0 6 2 10 4 10 3 0 8 -4 11 -10z m-8 -163 c-7
-21 -24 -18 -40 7 l-17 25 31 -11 c16 -6 28 -15 26 -21z m-47 -24 c0 -14 -2
-15 -41 -17 -29 -2 -29 13 -1 46 14 17 16 17 28 0 7 -9 14 -23 14 -29z m-1160
-243 c0 -5 -5 -10 -11 -10 -5 0 -7 5 -4 10 3 6 8 10 11 10 2 0 4 -4 4 -10z
m484 1 c3 -5 -1 -11 -9 -15 -9 -3 -15 0 -15 9 0 16 16 20 24 6z m31 -11 c3 -5
1 -10 -4 -10 -6 0 -11 5 -11 10 0 6 2 10 4 10 3 0 8 -4 11 -10z m105 -54 c0
-3 -4 -8 -10 -11 -5 -3 -10 -1 -10 4 0 6 5 11 10 11 6 0 10 -2 10 -4z m-776
-49 c-4 -12 -11 -23 -15 -25 -5 -2 -9 -10 -9 -18 0 -7 -6 -11 -14 -8 -9 3 -21
-5 -30 -19 -15 -22 -22 -24 -91 -23 -58 1 -74 -2 -71 -11 5 -12 -7 -18 -28
-14 -4 1 -15 -4 -23 -11 -12 -9 -16 -9 -24 3 -12 19 -11 59 1 59 6 0 10 8 10
17 0 12 3 14 11 6 8 -8 7 -17 -2 -34 -11 -23 -11 -23 7 -9 30 23 62 40 79 40
8 0 15 5 15 10 0 6 8 10 17 10 9 0 24 7 33 15 9 8 31 15 49 17 18 1 34 5 36 8
2 3 15 6 30 8 23 2 25 -1 19 -21z m-28 -84 c-4 -9 -1 -20 6 -25 9 -6 5 -8 -11
-6 -27 3 -42 28 -17 28 9 0 16 5 16 10 0 6 3 10 6 10 3 0 3 -8 0 -17z m-216
-189 c0 -8 -5 -12 -10 -9 -6 4 -8 11 -5 16 9 14 15 11 15 -7z"/>
<path d="M6560 5545 c0 -8 4 -15 9 -15 11 0 9 -59 -2 -77 -5 -8 -4 -13 2 -13
6 0 11 -8 11 -17 0 -14 3 -14 12 -5 10 10 10 15 -2 22 -12 7 -12 12 -3 21 10
10 15 7 22 -12 10 -24 10 -24 16 -3 4 14 18 24 37 28 25 5 28 9 22 28 -9 33
-14 35 -28 15 -7 -9 -17 -17 -21 -17 -4 0 -2 7 5 15 9 10 9 15 1 15 -6 0 -11
7 -11 15 0 18 -26 20 -34 3 -5 -10 -7 -10 -12 0 -8 17 -24 15 -24 -3z"/>
<path d="M6695 5510 c3 -5 8 -10 11 -10 2 0 4 5 4 10 0 6 -5 10 -11 10 -5 0
-7 -4 -4 -10z"/>
<path d="M6530 5425 c0 -14 29 -35 35 -26 3 6 -4 15 -15 21 -11 6 -20 8 -20 5z"/>
<path d="M6475 5350 c-3 -4 4 -15 15 -25 11 -10 21 -16 23 -14 26 44 26 46 -4
46 -17 0 -32 -3 -34 -7z"/>
<path d="M6745 5350 c-3 -4 2 -11 11 -14 22 -8 34 -7 34 3 0 12 -39 21 -45 11z"/>
<path d="M6620 5249 c0 -5 5 -7 10 -4 6 3 10 8 10 11 0 2 -4 4 -10 4 -5 0 -10
-5 -10 -11z"/>
<path d="M7395 5235 c-16 -49 -16 -51 0 -31 15 19 20 46 10 46 -3 0 -8 -7 -10
-15z"/>
<path d="M6687 5219 c9 -9 8 -15 -3 -26 -18 -19 -18 -33 1 -33 13 0 14 -4 5
-21 -14 -26 -9 -31 31 -34 29 -3 31 -1 27 29 -7 50 -12 59 -35 78 -23 20 -44
25 -26 7z"/>
<path d="M6760 5100 c0 -5 5 -10 10 -10 6 0 10 5 10 10 0 6 -4 10 -10 10 -5 0
-10 -4 -10 -10z"/>
<path d="M6747 5052 c-21 -23 -22 -33 -2 -26 8 4 15 2 15 -4 0 -5 -7 -12 -15
-16 -25 -9 -17 -29 9 -24 19 4 26 0 30 -19 4 -13 14 -23 24 -23 20 0 54 20 35
20 -7 0 -13 7 -13 15 0 8 5 15 10 15 6 0 10 5 10 10 0 6 -9 10 -21 10 -16 0
-19 -4 -14 -21 5 -15 4 -19 -4 -15 -6 4 -11 14 -11 22 0 8 -5 14 -11 14 -6 0
-8 8 -4 19 9 29 -18 45 -38 23z"/>
<path d="M6678 5040 c-22 -20 -23 -30 -4 -30 7 0 16 10 19 22 8 28 6 29 -15 8z"/>
<path d="M3638 4975 c-3 -3 -25 -7 -49 -10 -102 -12 -122 -16 -162 -34 -37
-17 -62 -19 -212 -16 -93 2 -177 5 -185 6 -8 1 -46 -1 -83 -4 -55 -5 -69 -3
-74 9 -3 9 -12 13 -22 9 -9 -4 -54 -9 -101 -11 -111 -5 -147 -11 -193 -35 -21
-11 -43 -17 -48 -13 -6 3 -13 -2 -15 -12 -3 -11 -20 -29 -38 -41 -30 -19 -34
-27 -38 -80 -6 -58 9 -95 35 -90 6 1 12 -2 12 -8 4 -27 19 -45 37 -45 17 0 18
-3 8 -15 -10 -12 -10 -18 0 -30 7 -8 16 -15 21 -15 12 0 49 -38 49 -50 0 -5
11 -10 24 -10 18 0 23 -4 20 -17 -3 -11 4 -24 15 -32 18 -13 19 -17 5 -43 -14
-28 -14 -31 10 -54 14 -14 22 -32 19 -40 -3 -8 0 -14 6 -14 6 0 11 5 11 10 0
6 11 8 25 4 13 -3 37 -2 52 3 33 11 66 6 57 -8 -3 -6 2 -16 12 -23 18 -14 53
-14 92 -2 22 7 22 9 8 31 -11 17 -12 25 -3 34 17 17 37 13 31 -6 -5 -16 -4
-16 8 -2 16 19 57 31 119 34 26 1 52 6 58 10 7 4 22 0 35 -9 24 -15 24 -14 37
29 9 31 19 45 31 46 61 5 75 7 91 13 12 6 17 4 17 -8 0 -19 11 -21 29 -3 19
19 133 25 139 7 4 -12 32 -14 32 -1 0 9 43 7 60 -4 5 -3 8 -11 5 -16 -4 -5 -2
-9 3 -9 5 0 12 9 15 20 4 15 14 20 40 20 30 0 35 -4 40 -27 5 -29 -2 -48 -10
-25 -7 18 -20 15 -26 -7 -3 -12 -20 -24 -46 -32 -22 -7 -41 -16 -41 -21 0 -5
-9 -6 -20 -3 -15 5 -20 2 -20 -13 0 -12 -11 -24 -30 -32 -16 -7 -30 -16 -30
-21 0 -5 -9 -9 -19 -9 -11 0 -23 -5 -26 -11 -4 -6 -14 -8 -22 -5 -19 8 -75
-22 -70 -37 2 -8 21 -11 50 -10 36 2 47 -1 47 -12 0 -9 6 -12 15 -9 24 10 18
-22 -7 -34 l-23 -11 22 -7 c13 -3 20 -11 16 -18 -3 -6 5 0 20 13 14 12 31 20
37 16 6 -4 21 2 33 13 12 11 33 19 47 18 14 -1 34 5 45 15 11 9 33 19 48 23
16 4 36 20 46 37 11 18 22 26 25 20 11 -17 26 -13 26 7 1 24 24 52 44 52 26 0
68 43 60 63 -8 21 -39 31 -60 19 -9 -5 -25 -7 -34 -5 -28 8 -59 -14 -55 -38 4
-17 2 -19 -11 -9 -11 10 -12 16 -3 27 9 10 9 17 1 25 -19 19 -14 48 7 48 10 0
22 7 25 16 6 16 8 16 24 0 40 -35 112 -9 112 41 0 25 33 36 65 21 18 -8 23
-18 23 -52 0 -47 10 -86 23 -86 5 0 9 11 9 25 0 14 5 25 11 25 7 0 18 8 25 17
11 16 13 16 19 -10 5 -17 13 -26 20 -23 8 3 15 -8 19 -30 8 -41 41 -64 49 -34
3 11 -2 34 -10 51 -12 25 -13 33 -3 39 10 6 8 13 -8 30 -13 14 -23 43 -28 77
-4 33 -12 57 -21 60 -8 3 -12 12 -9 20 3 8 -1 27 -9 43 -8 16 -15 36 -15 45 0
22 -63 85 -84 85 -10 0 -14 5 -10 11 3 6 -11 27 -32 47 -21 20 -39 41 -40 47
0 5 -2 16 -2 23 -1 6 -7 12 -13 12 -6 0 -9 -7 -5 -15 3 -8 1 -15 -4 -15 -14 0
-119 28 -129 35 -5 3 -12 1 -16 -5 -8 -13 -45 -7 -55 10 -5 8 -12 11 -16 7 -4
-4 -12 -2 -19 3 -7 5 -14 8 -17 5z m-688 -316 c0 8 5 8 19 -1 15 -9 25 -9 47
1 15 6 31 8 35 4 10 -11 -1 -64 -13 -57 -5 3 -20 -1 -33 -10 -28 -18 -39 -20
-30 -6 10 16 -17 11 -39 -7 -18 -15 -19 -16 -8 -1 11 14 11 16 -7 11 -12 -3
-21 -9 -21 -14 0 -4 -12 -6 -27 -5 -16 2 -34 4 -40 5 -7 0 -13 5 -13 10 0 14
33 18 52 7 20 -12 36 0 21 15 -8 8 -8 20 -1 40 9 27 11 28 34 13 15 -10 24
-12 24 -5z m164 -22 c6 -26 5 -28 -21 -25 -15 2 -26 8 -23 13 3 6 11 9 17 9 7
-1 10 2 7 7 -5 8 5 34 11 27 1 -2 5 -16 9 -31z"/>
<path d="M6785 4910 c3 -5 8 -10 11 -10 2 0 4 5 4 10 0 6 -5 10 -11 10 -5 0
-7 -4 -4 -10z"/>
<path d="M6360 4890 c0 -5 7 -10 15 -10 8 0 15 5 15 10 0 6 -7 10 -15 10 -8 0
-15 -4 -15 -10z"/>
<path d="M6866 4871 c-3 -5 1 -11 9 -15 8 -3 15 -1 15 4 0 13 -18 22 -24 11z"/>
<path d="M1837 4813 c-3 -5 2 -33 12 -63 20 -61 36 -53 22 11 -10 44 -25 67
-34 52z"/>
<path d="M5732 4688 c-14 -14 -16 -42 -3 -34 7 5 23 46 17 46 -1 0 -7 -5 -14
-12z"/>
<path d="M5230 4681 c0 -17 18 -21 24 -6 3 9 0 15 -9 15 -8 0 -15 -4 -15 -9z"/>
<path d="M5984 4677 c-8 -21 2 -35 16 -21 5 5 6 15 0 24 -8 12 -10 12 -16 -3z"/>
<path d="M6670 4626 c0 -9 5 -16 10 -16 6 0 10 4 10 9 0 6 -4 13 -10 16 -5 3
-10 -1 -10 -9z"/>
<path d="M5595 4603 c-18 -14 -18 -15 -2 -9 10 3 25 6 33 6 9 0 12 5 9 10 -8
14 -16 12 -40 -7z"/>
<path d="M5534 4595 c-16 -12 -16 -14 -3 -15 9 0 22 7 29 15 16 19 0 19 -26 0z"/>
<path d="M5260 4559 c0 -5 11 -9 25 -9 14 0 25 2 25 4 0 2 -11 6 -25 8 -14 3
-25 1 -25 -3z"/>
<path d="M5350 4560 c0 -5 5 -10 10 -10 6 0 10 5 10 10 0 6 -4 10 -10 10 -5 0
-10 -4 -10 -10z"/>
<path d="M5320 4550 c0 -5 5 -10 10 -10 6 0 10 5 10 10 0 6 -4 10 -10 10 -5 0
-10 -4 -10 -10z"/>
<path d="M5645 4520 c3 -5 8 -10 11 -10 2 0 4 5 4 10 0 6 -5 10 -11 10 -5 0
-7 -4 -4 -10z"/>
<path d="M5330 4506 c0 -8 -3 -22 -6 -31 -5 -13 -1 -15 22 -11 16 2 35 5 42 5
6 1 12 8 12 17 0 10 -6 13 -19 9 -12 -3 -21 0 -25 10 -7 19 -26 20 -26 1z"/>
<path d="M5426 4503 c-9 -9 -7 -33 3 -33 12 0 22 28 12 34 -5 3 -11 3 -15 -1z"/>
<path d="M5508 4502 c-10 -2 -18 -8 -18 -13 0 -8 47 -3 58 6 7 5 -24 11 -40 7z"/>
<path d="M5570 4494 c0 -8 5 -12 10 -9 6 3 10 10 10 16 0 5 -4 9 -10 9 -5 0
-10 -7 -10 -16z"/>
<path d="M4956 4375 c-3 -8 -1 -15 4 -15 6 0 10 7 10 15 0 8 -2 15 -4 15 -2 0
-6 -7 -10 -15z"/>
<path d="M3978 4363 c7 -3 16 -2 19 1 4 3 -2 6 -13 5 -11 0 -14 -3 -6 -6z"/>
<path d="M3250 4216 c0 -2 7 -6 15 -10 8 -3 15 -1 15 4 0 6 -7 10 -15 10 -8 0
-15 -2 -15 -4z"/>
<path d="M3415 4130 c-3 -5 -2 -10 4 -10 5 0 13 5 16 10 3 6 2 10 -4 10 -5 0
-13 -4 -16 -10z"/>
<path d="M3340 4110 c0 -5 5 -10 11 -10 5 0 7 5 4 10 -3 6 -8 10 -11 10 -2 0
-4 -4 -4 -10z"/>
<path d="M3195 4087 c-32 -24 1 -29 47 -8 l43 20 -36 1 c-19 0 -43 -6 -54 -13z"/>
<path d="M7177 4003 c-4 -3 -7 -11 -7 -17 0 -6 5 -5 12 2 6 6 9 14 7 17 -3 3
-9 2 -12 -2z"/>
<path d="M2357 3974 c-3 -5 3 -20 14 -33 22 -27 25 -17 5 18 -7 13 -16 20 -19
15z"/>
<path d="M2370 3900 c0 -5 5 -10 10 -10 6 0 10 5 10 10 0 6 -4 10 -10 10 -5 0
-10 -4 -10 -10z"/>
<path d="M6680 3839 c0 -5 5 -7 10 -4 6 3 10 8 10 11 0 2 -4 4 -10 4 -5 0 -10
-5 -10 -11z"/>
<path d="M2392 3810 c0 -14 2 -19 5 -12 2 6 2 18 0 25 -3 6 -5 1 -5 -13z"/>
<path d="M3692 3455 c-11 -13 -18 -26 -14 -30 3 -3 -10 -20 -29 -38 -19 -18
-46 -49 -59 -69 -14 -21 -31 -38 -37 -38 -7 0 -13 -9 -13 -19 0 -13 -8 -21
-22 -23 -17 -2 -24 -13 -33 -53 -6 -27 -13 -43 -16 -35 -5 13 -8 12 -23 -3
-10 -9 -14 -17 -9 -17 4 0 0 -5 -9 -11 -10 -5 -18 -16 -18 -24 0 -7 -9 -17
-20 -20 -12 -4 -23 -18 -27 -36 -3 -16 -9 -26 -14 -23 -5 3 -9 -4 -9 -15 0
-23 -18 -32 -42 -19 -13 6 -16 5 -12 -5 3 -8 -2 -22 -11 -31 -9 -9 -13 -20
-10 -26 9 -14 -8 -12 -24 3 -11 10 -13 9 -8 -6 8 -22 -13 -46 -62 -69 -20 -10
-30 -17 -23 -18 6 0 12 -5 12 -11 0 -6 -8 -8 -19 -4 -11 3 -24 -1 -32 -11 -11
-14 -10 -18 6 -31 20 -14 20 -14 1 -29 -11 -7 -17 -17 -13 -20 4 -4 14 -1 24
7 15 12 16 12 10 -3 -3 -10 -2 -20 4 -23 5 -4 12 1 15 9 7 19 35 21 52 4 17
-17 15 -28 -5 -28 -14 0 -13 -3 5 -23 12 -13 22 -33 22 -45 0 -12 5 -22 11
-22 5 0 7 -4 4 -10 -3 -5 1 -10 9 -10 9 0 19 15 26 39 6 22 16 42 23 44 9 4 8
8 -3 16 -12 9 -11 11 9 11 18 0 21 3 13 13 -13 15 -4 63 14 78 8 6 14 15 14
20 0 5 23 30 50 57 28 27 50 52 50 56 0 8 64 92 84 111 21 19 66 84 66 93 0 6
6 12 14 15 7 3 14 18 14 33 0 16 5 30 11 32 7 2 17 11 24 19 7 8 23 27 37 42
21 23 25 38 26 95 1 48 6 71 17 79 14 11 13 14 -7 29 -22 16 -24 16 -44 -7z
m-552 -654 c0 -6 -4 -13 -10 -16 -5 -3 -10 1 -10 9 0 9 5 16 10 16 6 0 10 -4
10 -9z"/>
<path d="M3821 3374 c0 -11 3 -14 6 -6 3 7 2 16 -1 19 -3 4 -6 -2 -5 -13z"/>
<path d="M3780 3292 c0 -4 9 -13 20 -20 16 -10 20 -10 20 2 0 8 -7 17 -16 20
-20 8 -24 8 -24 -2z"/>
<path d="M2485 3240 c3 -5 8 -10 11 -10 2 0 4 5 4 10 0 6 -5 10 -11 10 -5 0
-7 -4 -4 -10z"/>
<path d="M3430 3180 c0 -5 5 -10 11 -10 5 0 7 5 4 10 -3 6 -8 10 -11 10 -2 0
-4 -4 -4 -10z"/>
<path d="M2736 2983 c-3 -3 -1 -12 5 -20 6 -7 9 -22 6 -33 -3 -13 1 -24 14
-30 10 -6 16 -17 13 -24 -3 -8 4 -20 15 -28 12 -8 18 -18 14 -21 -3 -4 1 -7
11 -7 13 0 17 -7 14 -27 -3 -25 0 -28 27 -29 17 0 38 6 48 14 20 18 23 33 5
30 -8 -2 -12 6 -11 20 2 13 -1 21 -7 17 -6 -3 -10 -13 -10 -21 0 -8 -5 -14
-11 -14 -6 0 -9 9 -6 20 3 10 0 21 -7 24 -8 3 -7 7 3 14 7 5 10 15 7 21 -11
17 -23 13 -29 -9 -11 -41 -36 -11 -28 34 1 5 -7 6 -19 3 -17 -4 -19 -2 -13 20
4 18 2 24 -6 19 -6 -4 -11 -1 -11 8 0 17 -14 29 -24 19z"/>
<path d="M3090 2959 c0 -23 14 -37 42 -44 28 -7 41 4 32 28 -7 20 -37 32 -42
17 -3 -8 -8 -7 -18 1 -11 9 -14 8 -14 -2z"/>
<path d="M2927 2843 c-4 -3 -7 -11 -7 -17 0 -6 5 -5 12 2 6 6 9 14 7 17 -3 3
-9 2 -12 -2z"/>
<path d="M2871 2724 c0 -11 3 -14 6 -6 3 7 2 16 -1 19 -3 4 -6 -2 -5 -13z"/>
<path d="M6406 2724 c-9 -24 -7 -28 9 -14 17 14 20 30 6 30 -5 0 -12 -7 -15
-16z"/>
<path d="M6440 2720 c0 -5 5 -10 10 -10 6 0 10 5 10 10 0 6 -4 10 -10 10 -5 0
-10 -4 -10 -10z"/>
<path d="M3620 2710 c0 -5 5 -10 10 -10 6 0 10 5 10 10 0 6 -4 10 -10 10 -5 0
-10 -4 -10 -10z"/>
<path d="M5287 2693 c-4 -3 -7 -11 -7 -17 0 -6 5 -5 12 2 6 6 9 14 7 17 -3 3
-9 2 -12 -2z"/>
<path d="M6445 2689 c-10 -15 3 -25 16 -12 7 7 7 13 1 17 -6 3 -14 1 -17 -5z"/>
<path d="M6406 2676 c3 -9 11 -16 16 -16 13 0 5 23 -10 28 -7 2 -10 -2 -6 -12z"/>
<path d="M4370 2620 c-13 -8 -13 -10 2 -10 9 0 20 5 23 10 8 13 -5 13 -25 0z"/>
<path d="M6417 2584 c-4 -4 -7 -14 -7 -23 0 -11 3 -12 11 -4 6 6 10 16 7 23
-2 6 -7 8 -11 4z"/>
<path d="M3900 2530 c0 -5 7 -10 15 -10 8 0 15 5 15 10 0 6 -7 10 -15 10 -8 0
-15 -4 -15 -10z"/>
<path d="M6417 2533 c-4 -3 -7 -11 -7 -17 0 -6 5 -5 12 2 6 6 9 14 7 17 -3 3
-9 2 -12 -2z"/>
<path d="M2740 2414 c0 -5 7 -18 15 -28 8 -11 15 -16 15 -10 0 5 -7 18 -15 28
-8 11 -15 16 -15 10z"/>
<path d="M5590 2339 c0 -5 5 -7 10 -4 6 3 10 8 10 11 0 2 -4 4 -10 4 -5 0 -10
-5 -10 -11z"/>
<path d="M2848 2223 c11 -16 36 -54 57 -85 21 -32 40 -58 42 -58 6 0 -41 85
-49 88 -4 2 -8 10 -8 18 0 8 -4 14 -9 14 -5 0 -12 11 -15 25 -4 14 -13 25 -21
25 -13 0 -12 -5 3 -27z"/>
<path d="M5627 2162 c-30 -22 -37 -32 -34 -55 3 -23 -1 -29 -22 -34 -14 -4
-37 -7 -51 -7 -18 -1 -25 -7 -25 -21 0 -16 6 -19 30 -17 17 2 32 8 34 14 2 7
6 7 10 0 9 -15 54 -19 58 -4 3 7 -4 12 -17 12 -20 0 -21 2 -9 16 8 9 14 24 14
33 0 9 7 16 15 16 8 1 24 6 35 12 16 9 18 14 8 24 -18 18 -16 27 5 32 11 3 12
5 2 5 -8 0 -32 -12 -53 -26z"/>
<path d="M5648 2092 c-10 -2 -18 -8 -18 -13 0 -6 4 -8 9 -5 5 4 11 0 14 -6 6
-17 20 -4 15 14 -1 7 -11 12 -20 10z"/>
<path d="M5450 2046 c-10 -29 -27 -36 -57 -25 -18 7 -23 3 -31 -20 -6 -18 -7
-32 -1 -38 6 -6 -2 -8 -21 -5 -19 3 -30 0 -30 -8 0 -7 -7 -10 -15 -6 -17 6
-65 -31 -65 -51 0 -7 -6 -13 -13 -13 -7 0 -23 -7 -36 -16 -16 -12 -20 -19 -12
-27 15 -15 14 -30 0 -21 -19 12 -83 13 -95 3 -8 -7 -15 -6 -19 1 -5 8 -11 7
-22 -1 -11 -10 -16 -10 -22 0 -6 9 -10 6 -14 -11 -9 -35 -8 -43 6 -43 6 0 16
-6 20 -12 11 -17 27 -16 27 1 0 8 19 18 44 25 57 14 83 14 88 -1 3 -8 9 -8 24
0 17 11 18 11 1 12 -10 0 -15 5 -12 11 4 6 13 8 21 5 18 -7 45 4 38 15 -3 5
-10 7 -15 4 -15 -10 -10 11 5 24 10 8 16 9 21 1 9 -15 25 -12 25 5 0 8 7 15
15 15 21 0 19 -13 -5 -35 -20 -18 -27 -45 -11 -45 5 0 14 7 21 15 7 8 19 15
26 15 8 0 11 -6 8 -15 -8 -21 2 -19 26 5 11 11 30 20 41 20 18 0 21 5 17 29
-3 22 -1 28 10 24 8 -3 17 -1 21 6 6 9 11 8 21 -4 11 -13 9 -15 -10 -15 -12 0
-20 -5 -18 -12 9 -26 29 -18 44 18 9 21 22 43 29 49 8 5 15 21 17 35 3 23 0
25 -32 25 -30 0 -35 3 -34 23 0 12 -3 22 -7 22 -4 0 -5 9 -2 20 7 28 -6 25
-17 -4z m0 -60 c0 -1 -5 -18 -11 -36 -10 -27 -13 -30 -21 -16 -5 9 -13 14 -19
11 -5 -4 -9 1 -9 10 0 11 5 15 15 11 9 -3 15 0 15 9 0 8 7 15 15 15 8 0 15 -2
15 -4z m-80 -61 c0 -8 -7 -15 -15 -15 -26 0 -18 20 13 29 1 1 2 -6 2 -14z m27
-10 c0 -8 -4 -15 -9 -15 -4 0 -8 7 -8 15 0 8 4 15 8 15 5 0 9 -7 9 -15z"/>
<path d="M3000 2014 c0 -5 7 -19 15 -30 8 -10 15 -14 15 -8 0 5 -7 19 -15 30
-8 10 -15 14 -15 8z"/>
<path d="M5550 2001 c0 -10 22 -31 32 -31 17 0 7 28 -12 33 -11 3 -20 2 -20
-2z"/>
<path d="M3059 1933 c23 -35 41 -50 41 -35 0 4 -14 21 -32 38 l-31 29 22 -32z"/>
<path d="M4920 1791 c0 -6 -16 -11 -35 -11 -23 0 -38 -6 -41 -15 -4 -10 -13
-13 -25 -10 -11 4 -19 2 -19 -3 0 -12 70 -24 84 -14 6 4 20 7 30 7 20 0 31 41
14 51 -4 3 -8 0 -8 -5z"/>
<path d="M5273 1773 c9 -2 23 -2 30 0 6 3 -1 5 -18 5 -16 0 -22 -2 -12 -5z"/>
<path d="M4720 1750 c0 -5 5 -10 11 -10 5 0 7 5 4 10 -3 6 -8 10 -11 10 -2 0
-4 -4 -4 -10z"/>
<path d="M5070 1729 c0 -5 5 -7 10 -4 6 3 10 8 10 11 0 2 -4 4 -10 4 -5 0 -10
-5 -10 -11z"/>
<path d="M5110 1719 c0 -6 7 -9 15 -5 8 3 15 1 15 -4 0 -6 5 -10 10 -10 22 0
8 26 -15 28 -14 1 -25 -3 -25 -9z"/>
<path d="M4827 1659 c6 -6 9 -18 6 -25 -6 -16 22 -20 31 -5 11 17 -6 41 -27
41 -16 0 -18 -3 -10 -11z"/>
<path d="M5980 1514 c0 -8 5 -12 10 -9 6 3 10 10 10 16 0 5 -4 9 -10 9 -5 0
-10 -7 -10 -16z"/>
<path d="M6860 1420 c0 -5 5 -10 10 -10 6 0 10 5 10 10 0 6 -4 10 -10 10 -5 0
-10 -4 -10 -10z"/>
<path d="M6570 1190 c0 -5 5 -10 10 -10 6 0 10 5 10 10 0 6 -4 10 -10 10 -5 0
-10 -4 -10 -10z"/>
<path d="M7055 1190 c-3 -5 -1 -10 4 -10 6 0 11 5 11 10 0 6 -2 10 -4 10 -3 0
-8 -4 -11 -10z"/>
<path d="M6533 1046 c6 -17 34 -19 40 -3 4 10 -2 15 -19 15 -14 0 -23 -5 -21
-12z"/>
<path d="M9007 1044 c-3 -3 -3 -12 -1 -19 6 -14 -18 -176 -41 -285 -8 -36 -16
-76 -18 -90 -3 -14 -13 -47 -22 -75 -10 -27 -29 -81 -43 -120 -13 -38 -28 -78
-33 -87 -5 -10 -9 -25 -9 -34 0 -8 -5 -25 -12 -37 -7 -12 -18 -35 -24 -52 -6
-16 -32 -78 -57 -137 l-45 -108 39 0 c38 0 40 2 64 54 14 30 25 58 25 63 0 4
14 28 30 52 17 24 30 54 30 66 0 11 5 26 11 32 6 6 12 17 13 24 2 8 6 21 9 29
3 8 24 71 47 140 85 260 121 491 86 558 -15 30 -35 40 -49 26z"/>
<path d="M3526 995 c-13 -14 -36 -44 -51 -67 -16 -24 -36 -54 -45 -68 -9 -14
-56 -106 -104 -205 -48 -99 -92 -189 -98 -200 -7 -11 -60 -117 -119 -235
l-107 -215 486 -3 c267 -1 488 0 491 3 3 4 1 9 -5 13 -6 4 -14 19 -17 34 -4
15 -13 33 -21 41 -11 10 -12 17 -4 25 8 8 3 14 -18 23 -16 6 -23 13 -16 16 16
6 15 40 -2 50 -17 10 -56 73 -56 92 0 7 -11 26 -25 43 -28 33 -32 50 -10 42
23 -9 18 14 -10 41 -13 14 -19 25 -13 25 7 0 7 4 -1 13 -6 8 -14 31 -19 53 -5
23 -14 39 -22 39 -16 0 -42 89 -33 113 5 11 2 14 -11 9 -15 -6 -16 -2 -10 29
5 26 3 34 -7 32 -8 -2 -15 7 -17 22 -2 14 -11 30 -19 37 -13 10 -13 15 -4 27
9 10 9 16 1 21 -6 4 -10 17 -8 29 3 25 -25 69 -37 58 -4 -4 -5 6 -1 22 5 22 2
33 -13 47 -26 24 -27 24 -55 -6z"/>
<path d="M3369 904 c-78 -92 -139 -174 -139 -187 0 -4 -15 -29 -33 -55 -34
-49 -124 -192 -143 -227 -23 -44 -39 -70 -45 -75 -11 -8 -119 -233 -119 -247
0 -7 -3 -13 -8 -13 -4 0 -13 -15 -20 -32 -7 -18 -18 -41 -23 -51 -8 -15 -4
-17 28 -17 l38 1 70 146 c61 127 112 221 237 438 16 28 47 86 70 130 22 44 66
118 98 165 96 142 93 147 -11 24z"/>
<path d="M3671 944 c0 -11 3 -14 6 -6 3 7 2 16 -1 19 -3 4 -6 -2 -5 -13z"/>
<path d="M7168 953 c7 -3 16 -2 19 1 4 3 -2 6 -13 5 -11 0 -14 -3 -6 -6z"/>
<path d="M4260 810 c20 -13 40 -13 40 0 0 6 -12 10 -27 10 -22 0 -25 -2 -13
-10z"/>
<path d="M3166 788 c-51 -26 -607 -163 -891 -218 -22 -4 -87 -19 -145 -33 -58
-14 -132 -31 -165 -37 -33 -7 -73 -16 -90 -20 -16 -4 -57 -13 -90 -20 -155
-31 -482 -126 -537 -155 -14 -8 -31 -15 -36 -15 -6 0 -43 -18 -83 -41 -112
-64 -171 -81 -279 -85 -203 -6 -283 -25 -361 -86 -20 -15 -43 -28 -51 -28 -8
0 -25 -11 -38 -25 l-23 -25 1175 0 c929 0 1178 3 1185 12 5 7 27 53 48 103 79
187 200 385 386 632 27 34 45 63 41 63 -4 -1 -25 -10 -46 -22z"/>
<path d="M9184 768 c0 -30 -8 -84 -18 -133 -5 -22 -31 -99 -53 -155 -7 -19
-16 -53 -19 -75 -3 -22 -11 -46 -16 -52 -6 -7 -7 -13 -2 -13 4 0 3 -5 -4 -12
-7 -7 -12 -20 -12 -30 0 -9 -9 -33 -20 -53 -11 -20 -20 -41 -20 -48 0 -10 -11
-36 -66 -150 -8 -16 -14 -33 -14 -38 0 -5 95 -9 225 -9 l225 0 0 369 0 369
-65 26 c-35 14 -81 28 -102 32 -37 6 -38 5 -39 -28z"/>
<path d="M7265 689 c-4 -6 -5 -13 -2 -16 7 -7 27 6 27 18 0 12 -17 12 -25 -2z"/>
<path d="M7423 640 c4 -16 1 -19 -16 -15 -34 8 -48 -6 -39 -40 7 -25 9 -27 15
-11 7 19 8 19 21 0 8 -10 18 -16 22 -12 4 4 2 14 -5 21 -9 11 -8 17 3 26 8 7
16 8 18 4 3 -4 3 -2 1 5 -1 8 -3 20 -3 28 0 8 -5 14 -11 14 -6 0 -9 -9 -6 -20z"/>
<path d="M7480 625 c-6 -8 -9 -23 -5 -35 10 -31 21 -24 21 15 0 40 0 40 -16
20z"/>
<path d="M4020 591 c0 -6 4 -13 10 -16 6 -3 7 1 4 9 -7 18 -14 21 -14 7z"/>
<path d="M7512 579 c2 -6 8 -10 13 -10 5 0 11 4 13 10 2 6 -4 11 -13 11 -9 0
-15 -5 -13 -11z"/>
<path d="M6265 566 c-11 -8 -14 -15 -8 -19 6 -4 16 0 23 8 17 21 8 28 -15 11z"/>
<path d="M7500 510 c0 -5 5 -10 10 -10 6 0 10 5 10 10 0 6 -4 10 -10 10 -5 0
-10 -4 -10 -10z"/>
<path d="M7500 479 c0 -5 5 -7 10 -4 6 3 10 8 10 11 0 2 -4 4 -10 4 -5 0 -10
-5 -10 -11z"/>
<path d="M4200 470 c0 -5 5 -10 10 -10 6 0 10 5 10 10 0 6 -4 10 -10 10 -5 0
-10 -4 -10 -10z"/>
<path d="M7370 459 c0 -5 5 -7 10 -4 6 3 10 8 10 11 0 2 -4 4 -10 4 -5 0 -10
-5 -10 -11z"/>
<path d="M7475 460 c-3 -5 -1 -10 4 -10 6 0 11 5 11 10 0 6 -2 10 -4 10 -3 0
-8 -4 -11 -10z"/>
<path d="M7390 420 c0 -5 5 -10 10 -10 6 0 10 5 10 10 0 6 -4 10 -10 10 -5 0
-10 -4 -10 -10z"/>
<path d="M4490 370 c0 -5 5 -10 10 -10 6 0 10 5 10 10 0 6 -4 10 -10 10 -5 0
-10 -4 -10 -10z"/>
<path d="M5896 252 c-3 -6 -1 -14 5 -17 14 -9 20 -2 10 14 -6 8 -11 9 -15 3z"/>
<path d="M4998 233 c7 -3 16 -2 19 1 4 3 -2 6 -13 5 -11 0 -14 -3 -6 -6z"/>
<path d="M5860 220 c0 -5 5 -10 10 -10 6 0 10 5 10 10 0 6 -4 10 -10 10 -5 0
-10 -4 -10 -10z"/>
<path d="M5200 80 c0 -13 37 -13 45 0 4 6 -5 10 -19 10 -14 0 -26 -4 -26 -10z"/>
</g>
</svg>
