<svg width="158" height="18" viewBox="0 0 158 18" fill="none" xmlns="http://www.w3.org/2000/svg">
<g opacity="0.8">
<path d="M4.77972 7.94467C5.26774 7.24135 5.86341 6.68156 6.56673 6.26531C7.27006 5.8347 8.00209 5.6194 8.76282 5.6194V10.7221H7.40641C6.50214 10.7221 5.83471 10.88 5.4041 11.1957C4.98785 11.5115 4.77972 12.0713 4.77972 12.8751V17.8486H0V5.70552H4.77972V7.94467Z" fill="white"/>
<path d="M22.0602 11.6694C22.0602 11.9995 22.0387 12.3153 21.9957 12.6167H14.3093C14.3811 13.6645 14.8189 14.1885 15.6227 14.1885C16.1394 14.1885 16.5126 13.9516 16.7423 13.478H21.8019C21.6296 14.3392 21.2636 15.1143 20.7038 15.8032C20.1584 16.4778 19.4623 17.0161 18.6154 17.418C17.7829 17.8055 16.8643 17.9993 15.8595 17.9993C14.6538 17.9993 13.5773 17.7481 12.63 17.2458C11.697 16.7434 10.965 16.0257 10.4339 15.0927C9.91717 14.1454 9.6588 13.0402 9.6588 11.7771C9.6588 10.514 9.91717 9.41591 10.4339 8.48293C10.965 7.5356 11.697 6.81074 12.63 6.30837C13.5773 5.806 14.6538 5.55481 15.8595 5.55481C17.0652 5.55481 18.1346 5.806 19.0675 6.30837C20.0149 6.79639 20.7469 7.49971 21.2636 8.41834C21.7947 9.33696 22.0602 10.4207 22.0602 11.6694ZM17.2159 10.5283C17.2159 10.1264 17.0868 9.82498 16.8284 9.62403C16.57 9.40873 16.2471 9.30108 15.8595 9.30108C15.0127 9.30108 14.5175 9.71015 14.3739 10.5283H17.2159Z" fill="white"/>
<path d="M32.3308 5.6194C33.7231 5.6194 34.8068 6.08589 35.5819 7.01887C36.3713 7.95185 36.7661 9.21496 36.7661 10.8082V17.8486H32.0079V11.411C32.0079 10.8369 31.85 10.3848 31.5342 10.0546C31.2328 9.71015 30.8237 9.53791 30.307 9.53791C29.7759 9.53791 29.3596 9.71015 29.0582 10.0546C28.7568 10.3848 28.6061 10.8369 28.6061 11.411V17.8486H23.8264V5.70552H28.6061V7.55713C28.9793 6.98299 29.4745 6.5165 30.0917 6.15766C30.7232 5.79882 31.4696 5.6194 32.3308 5.6194Z" fill="white"/>
<path d="M38.4472 11.7771C38.4472 10.4996 38.6625 9.39438 39.0931 8.4614C39.5381 7.51407 40.1409 6.79639 40.9017 6.30837C41.6624 5.806 42.5164 5.55481 43.4638 5.55481C44.2532 5.55481 44.935 5.71988 45.5091 6.05001C46.0833 6.36579 46.5211 6.80357 46.8225 7.36335V5.70552H51.5807V17.8486H46.8225V16.1908C46.5211 16.7506 46.0833 17.1955 45.5091 17.5256C44.935 17.8414 44.2532 17.9993 43.4638 17.9993C42.5164 17.9993 41.6624 17.7553 40.9017 17.2673C40.1409 16.7649 39.5381 16.0472 39.0931 15.1143C38.6625 14.1669 38.4472 13.0545 38.4472 11.7771ZM46.8225 11.7771C46.8225 11.1312 46.6574 10.6288 46.3273 10.2699C45.9972 9.9111 45.5737 9.73169 45.057 9.73169C44.5403 9.73169 44.1169 9.9111 43.7867 10.2699C43.4566 10.6288 43.2915 11.1312 43.2915 11.7771C43.2915 12.423 43.4566 12.9253 43.7867 13.2842C44.1169 13.643 44.5403 13.8224 45.057 13.8224C45.5737 13.8224 45.9972 13.643 46.3273 13.2842C46.6574 12.9253 46.8225 12.423 46.8225 11.7771Z" fill="white"/>
<path d="M62.4859 5.6194C63.8782 5.6194 64.9619 6.08589 65.737 7.01887C66.5264 7.95185 66.9211 9.21496 66.9211 10.8082V17.8486H62.1629V11.411C62.1629 10.8369 62.005 10.3848 61.6893 10.0546C61.3878 9.71015 60.9788 9.53791 60.462 9.53791C59.931 9.53791 59.5147 9.71015 59.2133 10.0546C58.9119 10.3848 58.7612 10.8369 58.7612 11.411V17.8486H53.9814V5.70552H58.7612V7.55713C59.1343 6.98299 59.6295 6.5165 60.2467 6.15766C60.8783 5.79882 61.6247 5.6194 62.4859 5.6194Z" fill="white"/>
<path d="M68.6023 11.7771C68.6023 10.514 68.8607 9.41591 69.3774 8.48293C69.9085 7.5356 70.6405 6.81074 71.5735 6.30837C72.5208 5.806 73.5973 5.55481 74.803 5.55481C76.3819 5.55481 77.7096 5.99977 78.7861 6.88969C79.877 7.77961 80.5659 9.01401 80.853 10.5929H75.7934C75.6068 9.96134 75.2408 9.64556 74.6954 9.64556C74.3078 9.64556 73.9992 9.82498 73.7696 10.1838C73.5543 10.5427 73.4466 11.0737 73.4466 11.7771C73.4466 12.4804 73.5543 13.0115 73.7696 13.3703C73.9992 13.7291 74.3078 13.9086 74.6954 13.9086C75.2408 13.9086 75.6068 13.5928 75.7934 12.9612H80.853C80.5659 14.5401 79.877 15.7745 78.7861 16.6644C77.7096 17.5543 76.3819 17.9993 74.803 17.9993C73.5973 17.9993 72.5208 17.7481 71.5735 17.2458C70.6405 16.7434 69.9085 16.0257 69.3774 15.0927C68.8607 14.1454 68.6023 13.0402 68.6023 11.7771Z" fill="white"/>
<path d="M87.4024 7.94467C87.8904 7.24135 88.4861 6.68156 89.1894 6.26531C89.8927 5.8347 90.6247 5.6194 91.3855 5.6194V10.7221H90.0291C89.1248 10.7221 88.4574 10.88 88.0268 11.1957C87.6105 11.5115 87.4024 12.0713 87.4024 12.8751V17.8486H82.6227V5.70552H87.4024V7.94467Z" fill="white"/>
<path d="M98.6975 17.9993C97.4774 17.9993 96.3794 17.7481 95.4034 17.2458C94.4273 16.7434 93.6594 16.0257 93.0996 15.0927C92.5542 14.1454 92.2815 13.0402 92.2815 11.7771C92.2815 10.514 92.5542 9.41591 93.0996 8.48293C93.6594 7.5356 94.4273 6.81074 95.4034 6.30837C96.3794 5.806 97.4774 5.55481 98.6975 5.55481C99.9175 5.55481 101.016 5.806 101.992 6.30837C102.968 6.81074 103.728 7.5356 104.274 8.48293C104.834 9.41591 105.114 10.514 105.114 11.7771C105.114 13.0402 104.834 14.1454 104.274 15.0927C103.728 16.0257 102.968 16.7434 101.992 17.2458C101.016 17.7481 99.9175 17.9993 98.6975 17.9993ZM98.6975 13.8655C99.1424 13.8655 99.5156 13.6933 99.8171 13.3488C100.118 12.9899 100.269 12.466 100.269 11.7771C100.269 11.0881 100.118 10.5714 99.8171 10.2269C99.5156 9.86804 99.1424 9.68862 98.6975 9.68862C98.2525 9.68862 97.8793 9.86804 97.5779 10.2269C97.2765 10.5714 97.1258 11.0881 97.1258 11.7771C97.1258 12.466 97.2693 12.9899 97.5564 13.3488C97.8578 13.6933 98.2382 13.8655 98.6975 13.8655Z" fill="white"/>
<path d="M106.224 11.7771C106.224 10.514 106.482 9.41591 106.999 8.48293C107.53 7.5356 108.262 6.81074 109.195 6.30837C110.142 5.806 111.219 5.55481 112.424 5.55481C114.003 5.55481 115.331 5.99977 116.407 6.88969C117.498 7.77961 118.187 9.01401 118.474 10.5929H113.415C113.228 9.96134 112.862 9.64556 112.317 9.64556C111.929 9.64556 111.621 9.82498 111.391 10.1838C111.176 10.5427 111.068 11.0737 111.068 11.7771C111.068 12.4804 111.176 13.0115 111.391 13.3703C111.621 13.7291 111.929 13.9086 112.317 13.9086C112.862 13.9086 113.228 13.5928 113.415 12.9612H118.474C118.187 14.5401 117.498 15.7745 116.407 16.6644C115.331 17.5543 114.003 17.9993 112.424 17.9993C111.219 17.9993 110.142 17.7481 109.195 17.2458C108.262 16.7434 107.53 16.0257 106.999 15.0927C106.482 14.1454 106.224 13.0402 106.224 11.7771Z" fill="white"/>
<path d="M122.655 4.73666C121.823 4.73666 121.155 4.51418 120.653 4.06922C120.151 3.62426 119.899 3.06448 119.899 2.38986C119.899 1.70089 120.151 1.13393 120.653 0.688969C121.155 0.229656 121.823 0 122.655 0C123.474 0 124.134 0.229656 124.636 0.688969C125.139 1.13393 125.39 1.70089 125.39 2.38986C125.39 3.06448 125.139 3.62426 124.636 4.06922C124.134 4.51418 123.474 4.73666 122.655 4.73666ZM125.024 5.70552V17.8486H120.244V5.70552H125.024Z" fill="white"/>
<path d="M126.791 11.7771C126.791 10.4996 127.006 9.39438 127.437 8.4614C127.882 7.51407 128.485 6.79639 129.245 6.30837C130.006 5.806 130.86 5.55481 131.808 5.55481C132.597 5.55481 133.279 5.71988 133.853 6.05001C134.427 6.36579 134.865 6.80357 135.166 7.36335V5.70552H139.924V17.8486H135.166V16.1908C134.865 16.7506 134.427 17.1955 133.853 17.5256C133.279 17.8414 132.597 17.9993 131.808 17.9993C130.86 17.9993 130.006 17.7553 129.245 17.2673C128.485 16.7649 127.882 16.0472 127.437 15.1143C127.006 14.1669 126.791 13.0545 126.791 11.7771ZM135.166 11.7771C135.166 11.1312 135.001 10.6288 134.671 10.2699C134.341 9.9111 133.918 9.73169 133.401 9.73169C132.884 9.73169 132.461 9.9111 132.13 10.2699C131.8 10.6288 131.635 11.1312 131.635 11.7771C131.635 12.423 131.8 12.9253 132.13 13.2842C132.461 13.643 132.884 13.8224 133.401 13.8224C133.918 13.8224 134.341 13.643 134.671 13.2842C135.001 12.9253 135.166 12.423 135.166 11.7771Z" fill="white"/>
<path d="M147.274 7.94467C147.762 7.24135 148.358 6.68156 149.061 6.26531C149.765 5.8347 150.497 5.6194 151.257 5.6194V10.7221H149.901C148.997 10.7221 148.329 10.88 147.899 11.1957C147.482 11.5115 147.274 12.0713 147.274 12.8751V17.8486H142.495V5.70552H147.274V7.94467Z" fill="white"/>
<path d="M155.266 4.73666C154.433 4.73666 153.766 4.51418 153.263 4.06922C152.761 3.62426 152.51 3.06448 152.51 2.38986C152.51 1.70089 152.761 1.13393 153.263 0.688969C153.766 0.229656 154.433 0 155.266 0C156.084 0 156.744 0.229656 157.246 0.688969C157.749 1.13393 158 1.70089 158 2.38986C158 3.06448 157.749 3.62426 157.246 4.06922C156.744 4.51418 156.084 4.73666 155.266 4.73666ZM157.634 5.70552V17.8486H152.854V5.70552H157.634Z" fill="white"/>
</g>
</svg>
