<svg width="158" height="18" viewBox="0 0 158 18" fill="none" xmlns="http://www.w3.org/2000/svg">
<g clip-path="url(#clip0_1684_1236)">
<path d="M4.77972 7.94465C5.26774 7.24133 5.86341 6.68154 6.56673 6.26529C7.27006 5.83468 8.00209 5.61938 8.76282 5.61938V10.7221H7.40641C6.50214 10.7221 5.83471 10.88 5.4041 11.1957C4.98785 11.5115 4.77972 12.0713 4.77972 12.8751V17.8486H0V5.7055H4.77972V7.94465Z" fill="white"/>
<path d="M22.0601 11.6694C22.0601 11.9995 22.0386 12.3153 21.9956 12.6167H14.3092C14.381 13.6645 14.8188 14.1885 15.6226 14.1885C16.1393 14.1885 16.5125 13.9516 16.7422 13.478H21.8018C21.6295 14.3392 21.2635 15.1143 20.7037 15.8032C20.1583 16.4778 19.4622 17.0161 18.6153 17.418C17.7828 17.8055 16.8642 17.9993 15.8594 17.9993C14.6537 17.9993 13.5772 17.7481 12.6299 17.2458C11.6969 16.7434 10.9649 16.0257 10.4338 15.0927C9.91706 14.1454 9.65869 13.0402 9.65869 11.7771C9.65869 10.514 9.91706 9.41591 10.4338 8.48293C10.9649 7.5356 11.6969 6.81074 12.6299 6.30837C13.5772 5.806 14.6537 5.55481 15.8594 5.55481C17.0651 5.55481 18.1345 5.806 19.0674 6.30837C20.0148 6.79639 20.7468 7.49971 21.2635 8.41834C21.7946 9.33696 22.0601 10.4207 22.0601 11.6694ZM17.2158 10.5283C17.2158 10.1264 17.0867 9.82498 16.8283 9.62403C16.5699 9.40873 16.247 9.30108 15.8594 9.30108C15.0126 9.30108 14.5174 9.71015 14.3738 10.5283H17.2158Z" fill="white"/>
<path d="M32.3306 5.61938C33.7229 5.61938 34.8066 6.08587 35.5817 7.01885C36.3711 7.95183 36.7659 9.21494 36.7659 10.8082V17.8486H32.0077V11.411C32.0077 10.8369 31.8498 10.3848 31.534 10.0546C31.2326 9.71013 30.8235 9.5379 30.3068 9.5379C29.7757 9.5379 29.3594 9.71013 29.058 10.0546C28.7566 10.3848 28.6059 10.8369 28.6059 11.411V17.8486H23.8262V5.7055H28.6059V7.55711C28.9791 6.98297 29.4743 6.51648 30.0915 6.15764C30.723 5.7988 31.4694 5.61938 32.3306 5.61938Z" fill="white"/>
<path d="M38.4473 11.7771C38.4473 10.4996 38.6626 9.39438 39.0932 8.4614C39.5382 7.51407 40.141 6.79639 40.9018 6.30837C41.6625 5.806 42.5165 5.55481 43.4639 5.55481C44.2533 5.55481 44.9351 5.71988 45.5092 6.05001C46.0834 6.36579 46.5212 6.80357 46.8226 7.36335V5.70552H51.5808V17.8486H46.8226V16.1908C46.5212 16.7506 46.0834 17.1955 45.5092 17.5256C44.9351 17.8414 44.2533 17.9993 43.4639 17.9993C42.5165 17.9993 41.6625 17.7553 40.9018 17.2673C40.141 16.7649 39.5382 16.0472 39.0932 15.1143C38.6626 14.1669 38.4473 13.0545 38.4473 11.7771ZM46.8226 11.7771C46.8226 11.1312 46.6575 10.6288 46.3274 10.2699C45.9973 9.9111 45.5738 9.73169 45.0571 9.73169C44.5404 9.73169 44.117 9.9111 43.7868 10.2699C43.4567 10.6288 43.2916 11.1312 43.2916 11.7771C43.2916 12.423 43.4567 12.9253 43.7868 13.2842C44.117 13.643 44.5404 13.8224 45.0571 13.8224C45.5738 13.8224 45.9973 13.643 46.3274 13.2842C46.6575 12.9253 46.8226 12.423 46.8226 11.7771Z" fill="white"/>
<path d="M62.4859 5.61938C63.8782 5.61938 64.9619 6.08587 65.737 7.01885C66.5264 7.95183 66.9211 9.21494 66.9211 10.8082V17.8486H62.1629V11.411C62.1629 10.8369 62.005 10.3848 61.6893 10.0546C61.3878 9.71013 60.9788 9.5379 60.462 9.5379C59.931 9.5379 59.5147 9.71013 59.2133 10.0546C58.9119 10.3848 58.7612 10.8369 58.7612 11.411V17.8486H53.9814V5.7055H58.7612V7.55711C59.1343 6.98297 59.6295 6.51648 60.2467 6.15764C60.8783 5.7988 61.6247 5.61938 62.4859 5.61938Z" fill="white"/>
<path d="M68.6025 11.7771C68.6025 10.514 68.8609 9.41591 69.3776 8.48293C69.9087 7.5356 70.6407 6.81074 71.5737 6.30837C72.521 5.806 73.5975 5.55481 74.8032 5.55481C76.3821 5.55481 77.7098 5.99977 78.7863 6.88969C79.8772 7.77961 80.5661 9.01401 80.8532 10.5929H75.7936C75.607 9.96134 75.241 9.64556 74.6956 9.64556C74.308 9.64556 73.9994 9.82498 73.7698 10.1838C73.5545 10.5427 73.4468 11.0737 73.4468 11.7771C73.4468 12.4804 73.5545 13.0115 73.7698 13.3703C73.9994 13.7291 74.308 13.9086 74.6956 13.9086C75.241 13.9086 75.607 13.5928 75.7936 12.9612H80.8532C80.5661 14.5401 79.8772 15.7745 78.7863 16.6644C77.7098 17.5543 76.3821 17.9993 74.8032 17.9993C73.5975 17.9993 72.521 17.7481 71.5737 17.2458C70.6407 16.7434 69.9087 16.0257 69.3776 15.0927C68.8609 14.1454 68.6025 13.0402 68.6025 11.7771Z" fill="white"/>
<path d="M87.4023 7.94465C87.8903 7.24133 88.486 6.68154 89.1893 6.26529C89.8926 5.83468 90.6246 5.61938 91.3854 5.61938V10.7221H90.029C89.1247 10.7221 88.4573 10.88 88.0267 11.1957C87.6104 11.5115 87.4023 12.0713 87.4023 12.8751V17.8486H82.6226V5.7055H87.4023V7.94465Z" fill="white"/>
<path d="M98.6977 17.9993C97.4776 17.9993 96.3796 17.7481 95.4035 17.2458C94.4275 16.7434 93.6596 16.0257 93.0998 15.0927C92.5544 14.1454 92.2817 13.0402 92.2817 11.7771C92.2817 10.514 92.5544 9.41591 93.0998 8.48293C93.6596 7.5356 94.4275 6.81074 95.4035 6.30837C96.3796 5.806 97.4776 5.55481 98.6977 5.55481C99.9177 5.55481 101.016 5.806 101.992 6.30837C102.968 6.81074 103.728 7.5356 104.274 8.48293C104.834 9.41591 105.114 10.514 105.114 11.7771C105.114 13.0402 104.834 14.1454 104.274 15.0927C103.728 16.0257 102.968 16.7434 101.992 17.2458C101.016 17.7481 99.9177 17.9993 98.6977 17.9993ZM98.6977 13.8655C99.1426 13.8655 99.5158 13.6933 99.8173 13.3488C100.118 12.9899 100.269 12.466 100.269 11.7771C100.269 11.0881 100.118 10.5714 99.8173 10.2269C99.5158 9.86804 99.1426 9.68862 98.6977 9.68862C98.2527 9.68862 97.8795 9.86804 97.5781 10.2269C97.2767 10.5714 97.126 11.0881 97.126 11.7771C97.126 12.466 97.2695 12.9899 97.5566 13.3488C97.858 13.6933 98.2384 13.8655 98.6977 13.8655Z" fill="white"/>
<path d="M106.224 11.7771C106.224 10.514 106.482 9.41591 106.999 8.48293C107.53 7.5356 108.262 6.81074 109.195 6.30837C110.142 5.806 111.219 5.55481 112.424 5.55481C114.003 5.55481 115.331 5.99977 116.407 6.88969C117.498 7.77961 118.187 9.01401 118.474 10.5929H113.415C113.228 9.96134 112.862 9.64556 112.317 9.64556C111.929 9.64556 111.621 9.82498 111.391 10.1838C111.176 10.5427 111.068 11.0737 111.068 11.7771C111.068 12.4804 111.176 13.0115 111.391 13.3703C111.621 13.7291 111.929 13.9086 112.317 13.9086C112.862 13.9086 113.228 13.5928 113.415 12.9612H118.474C118.187 14.5401 117.498 15.7745 116.407 16.6644C115.331 17.5543 114.003 17.9993 112.424 17.9993C111.219 17.9993 110.142 17.7481 109.195 17.2458C108.262 16.7434 107.53 16.0257 106.999 15.0927C106.482 14.1454 106.224 13.0402 106.224 11.7771Z" fill="white"/>
<path d="M122.655 4.73666C121.823 4.73666 121.155 4.51418 120.653 4.06922C120.151 3.62426 119.899 3.06448 119.899 2.38986C119.899 1.70089 120.151 1.13393 120.653 0.688969C121.155 0.229656 121.823 0 122.655 0C123.474 0 124.134 0.229656 124.636 0.688969C125.139 1.13393 125.39 1.70089 125.39 2.38986C125.39 3.06448 125.139 3.62426 124.636 4.06922C124.134 4.51418 123.474 4.73666 122.655 4.73666ZM125.024 5.70552V17.8486H120.244V5.70552H125.024Z" fill="white"/>
<path d="M126.791 11.7771C126.791 10.4996 127.006 9.39438 127.437 8.4614C127.882 7.51407 128.485 6.79639 129.245 6.30837C130.006 5.806 130.86 5.55481 131.808 5.55481C132.597 5.55481 133.279 5.71988 133.853 6.05001C134.427 6.36579 134.865 6.80357 135.166 7.36335V5.70552H139.924V17.8486H135.166V16.1908C134.865 16.7506 134.427 17.1955 133.853 17.5256C133.279 17.8414 132.597 17.9993 131.808 17.9993C130.86 17.9993 130.006 17.7553 129.245 17.2673C128.485 16.7649 127.882 16.0472 127.437 15.1143C127.006 14.1669 126.791 13.0545 126.791 11.7771ZM135.166 11.7771C135.166 11.1312 135.001 10.6288 134.671 10.2699C134.341 9.9111 133.918 9.73169 133.401 9.73169C132.884 9.73169 132.461 9.9111 132.13 10.2699C131.8 10.6288 131.635 11.1312 131.635 11.7771C131.635 12.423 131.8 12.9253 132.13 13.2842C132.461 13.643 132.884 13.8224 133.401 13.8224C133.918 13.8224 134.341 13.643 134.671 13.2842C135.001 12.9253 135.166 12.423 135.166 11.7771Z" fill="white"/>
<path d="M147.274 7.94465C147.762 7.24133 148.358 6.68154 149.061 6.26529C149.765 5.83468 150.497 5.61938 151.257 5.61938V10.7221H149.901C148.997 10.7221 148.329 10.88 147.899 11.1957C147.482 11.5115 147.274 12.0713 147.274 12.8751V17.8486H142.495V5.7055H147.274V7.94465Z" fill="white"/>
<path d="M155.266 4.73666C154.433 4.73666 153.766 4.51418 153.263 4.06922C152.761 3.62426 152.51 3.06448 152.51 2.38986C152.51 1.70089 152.761 1.13393 153.263 0.688969C153.766 0.229656 154.433 0 155.266 0C156.084 0 156.744 0.229656 157.246 0.688969C157.749 1.13393 158 1.70089 158 2.38986C158 3.06448 157.749 3.62426 157.246 4.06922C156.744 4.51418 156.084 4.73666 155.266 4.73666ZM157.634 5.70552V17.8486H152.854V5.70552H157.634Z" fill="white"/>
</g>
<defs>
<clipPath id="clip0_1684_1236">
<rect width="158" height="18" fill="white"/>
</clipPath>
</defs>
</svg>
