<?xml version="1.0" encoding="UTF-8"?>
<svg id="Layer_1" xmlns="http://www.w3.org/2000/svg" version="1.1" viewBox="0 0 168 118">
  <!-- Generator: Adobe Illustrator 30.2.1, SVG Export Plug-In . SVG Version: 2.1.1 Build 1)  -->
  <defs>
    <style>
      .st0 {
        fill: #e3e3e3;
      }

      .st1 {
        fill: #3fc6c2;
      }

      .st2 {
        fill: #f6876b;
      }

      .st3 {
        fill: #18abb4;
      }

      .st4 {
        fill: #e47059;
      }
    </style>
  </defs>
  <path class="st0" d="M86.14,69.34h-2.35c-.02-.12-.06-.24-.06-.35.02-3.9.03-7.81.09-11.71,0-.5.14-1.03.27-1.52.41-1.49,1.4-2.36,2.88-2.7,1.39-.31,2.8-.32,4.19-.1,2.04.33,3.07,1.37,3.41,3.41.32,1.93.32,3.87-.01,5.8-.29,1.67-1.24,2.76-2.93,3.13-1.26.28-2.54.36-3.8.07-.56-.13-1.08-.42-1.66-.65v4.6h-.02ZM86.05,59.24c.05.82.06,1.68.17,2.52.14,1.03.73,1.65,1.73,1.74.84.09,1.7.09,2.55.02.97-.07,1.45-.51,1.62-1.48.34-1.85.32-3.72.02-5.58-.18-1.13-.69-1.56-1.84-1.64-.73-.05-1.45-.05-2.18,0-1.23.1-1.78.63-1.92,1.87-.1.83-.11,1.67-.16,2.54Z"/>
  <path class="st0" d="M70.35,48.76c-.6.6-1.2,1.22-1.82,1.79-.15.13-.42.16-.64.16-1.37.03-2.74.02-4.11.05-1.99.05-2.72.95-2.44,2.92.12.86.58,1.42,1.42,1.6,1.19.25,2.37.43,3.56.65.63.12,1.26.25,1.87.43,1.35.41,2.22,1.31,2.37,2.72.1.93.11,1.89,0,2.82-.18,1.59-1.16,2.6-2.69,2.94-1.08.25-2.21.35-3.32.4-1.83.06-3.66.02-5.5.02-.12,0-.23-.02-.46-.05.68-.68,1.29-1.33,1.92-1.93.11-.1.33-.07.5-.09,1.63-.03,3.27-.05,4.91-.11.36-.01.74-.11,1.09-.21.72-.21,1.16-.71,1.25-1.44.06-.52.04-1.07-.01-1.59-.09-.7-.49-1.2-1.19-1.37-1.07-.26-2.16-.43-3.24-.65-.92-.19-1.86-.34-2.74-.64-1.37-.46-2.01-1.53-2.08-2.93-.03-.76-.07-1.54.04-2.29.29-1.81,1.54-2.71,3.21-3.06.78-.16,1.58-.24,2.38-.26,1.88-.03,3.77-.01,5.65-.01.02.04.04.09.05.13Z"/>
  <path class="st0" d="M79.76,57.53c.24-1.25-.27-2.08-1.4-2.27-.69-.12-1.41-.12-2.13-.13-1.19-.02-2.37,0-3.74,0,.7-.71,1.3-1.33,1.91-1.93.04-.04.13-.05.2-.05,1.53.07,3.07.02,4.56.27,1.85.3,2.8,1.38,2.88,3.24.11,2.34.05,4.7,0,7.05-.02.93-.51,1.44-1.45,1.45-1.99.03-3.98.06-5.96-.1-1.98-.16-2.9-1.35-2.93-3.33,0-.48-.03-.97.05-1.44.27-1.58,1.27-2.5,3.02-2.65,1.45-.12,2.92-.09,4.37-.13h.61-.01ZM79.81,59.43h-3.76c-1.7.02-2.16.48-2.14,2.16.01.99.34,1.53,1.31,1.62,1.39.13,2.8.09,4.2.11.12,0,.24-.03.37-.05v-3.84h.01Z"/>
  <path class="st0" d="M57.84,63.33c-.58.58-1.16,1.16-1.75,1.71-.1.09-.25.17-.36.16-1.56-.02-3.14.03-4.69-.13-2.15-.21-3.39-1.51-3.54-3.67-.12-1.59-.11-3.2.01-4.79.16-2.04,1.31-3.19,3.34-3.59,1.4-.28,2.79-.27,4.17.1,1.66.44,2.57,1.54,2.74,3.22.09.85.05,1.71-.05,2.56-.12.9-.5,1.17-1.42,1.17h-5.93c-.68,0-.7.02-.64.67.17,1.99.63,2.43,2.63,2.45,1.63.02,3.27,0,4.91,0h.52s.03.09.05.13v.02ZM55.56,58.25c0-.62.06-1.21-.01-1.78-.15-1.05-.58-1.51-1.64-1.66-.78-.11-1.6-.13-2.38-.03-1.1.13-1.56.66-1.71,1.78-.05.37-.05.75-.1,1.11-.05.45.09.63.58.62,1.58-.03,3.16,0,4.74-.01.17,0,.34-.02.53-.03h-.01Z"/>
  <path class="st0" d="M111.06,63.32c-.65.67-1.25,1.28-1.84,1.89-.05.05-.16.1-.23.09-1.56-.05-3.13-.02-4.68-.2-1.86-.21-2.98-1.38-3.27-3.22-.29-1.82-.31-3.66.02-5.48.37-2.05,1.38-2.97,3.47-3.36,1.35-.25,2.69-.24,4.02.13,1.73.48,2.72,1.74,2.77,3.54.02.71.03,1.43-.06,2.13-.14.98-.48,1.24-1.46,1.24-1.97,0-3.95.02-5.93,0-.51,0-.68.14-.64.66.14,2.06.67,2.58,2.75,2.59h5.1-.01ZM106.17,58.28h1.55c1.01,0,1.47-.51,1.38-1.54-.11-1.2-.57-1.78-1.74-1.94-.78-.11-1.6-.09-2.38.01-1.05.14-1.46.62-1.64,1.67-.06.42-.08.86-.12,1.27-.04.39.1.55.5.53.82-.02,1.63,0,2.46,0h0Z"/>
  <path class="st0" d="M123.47,65.2h-2.02c-.42,0-.33-.3-.33-.52v-5.72c0-.8,0-1.6-.04-2.41-.04-.95-.47-1.5-1.4-1.59-.94-.1-1.91-.12-2.86-.01-1.12.12-1.55.7-1.55,1.86-.01,2.57,0,5.13,0,7.7v.71c-.73,0-1.41.02-2.09-.02-.1,0-.26-.33-.26-.51-.02-2.03-.02-4.07,0-6.1,0-.96-.03-1.94.1-2.88.18-1.36,1.09-2.18,2.37-2.52,1.87-.49,3.77-.49,5.64,0,1.54.41,2.4,1.46,2.45,3.11.06,2.94.02,5.88.02,8.91h-.02Z"/>
  <path class="st0" d="M124.83,65.17c.57-.56,1.13-1.13,1.72-1.67.14-.12.38-.15.59-.16,1.33-.02,2.67,0,4.01-.04,1.09-.03,1.6-.59,1.55-1.6-.03-.75-.42-1.2-1.22-1.31-1.06-.14-2.12-.26-3.18-.32-2.66-.17-4.08-2.51-2.98-4.97.31-.68.83-1.16,1.53-1.41.46-.17.95-.36,1.43-.37,1.93-.04,3.87-.02,5.84-.02-.59.61-1.14,1.22-1.74,1.79-.1.1-.34.05-.51.06-1.15.03-2.32,0-3.46.11-.83.07-1.16.53-1.15,1.33,0,.75.4,1.18,1.23,1.28,1.22.15,2.45.24,3.65.4,2.25.31,3.07,1.86,2.84,4-.18,1.73-1.32,2.77-3.26,2.93-1.72.14-3.45.1-5.17.13h-1.63s-.04-.1-.06-.14h-.01Z"/>
  <path class="st0" d="M98.93,65.17h-2.29v-11.92c.63,0,1.24-.04,1.85.01.37.03.47.39.46.74v10.52c0,.2-.02.42-.03.65h.01Z"/>
  <path class="st0" d="M96.54,48.59h2.49c0,.67.03,1.35-.02,2.01-.01.17-.3.45-.48.46-.65.05-1.3.02-1.99.02v-2.49Z"/>
  <path class="st1" d="M37.32,58.38h-6.41l10.36-10.38h6.3l-10.25,10.38Z"/>
  <path class="st3" d="M37.32,58.38h-6.41l10.36-10.38-3.95,10.38Z"/>
  <path class="st4" d="M31.44,68.75h-4.44l10.36-10.38h6.3l-8.88,8.99c-.89.9-2.08,1.39-3.34,1.39Z"/>
  <path class="st2" d="M33.58,68.24c-.65.33-1.38.51-2.13.51h-4.45l10.36-10.38-3.78,9.86Z"/>
</svg>