<?xml version="1.0" encoding="UTF-8"?>
<svg id="Layer_1" xmlns="http://www.w3.org/2000/svg" version="1.1" viewBox="0 0 168 118">
  <!-- Generator: Adobe Illustrator 30.2.1, SVG Export Plug-In . SVG Version: 2.1.1 Build 1)  -->
  <defs>
    <style>
      .st0 {
        fill: #e3e3e3;
      }
    </style>
  </defs>
  <path class="st0" d="M50.68,58.37c-.32-.71-.49-1.07-.72-1.62-.21.55-.28.72-.67,1.67l-.77,1.91h3.03l-.87-1.95ZM47.65,62.67l-1.08,2.4h-3.16l5.5-11.67h2.67l5.5,11.67h-3.11l-1.18-2.4h-5.14ZM64.95,58.47c.64,0,.91-.04,1.18-.18.21-.12.38-.29.5-.5.12-.21.19-.44.19-.68,0-.24-.07-.48-.19-.68-.12-.21-.29-.38-.5-.5-.25-.14-.52-.17-1.18-.17h-3.86v2.7l3.86.02ZM61.09,65.08h-2.9v-11.67h7.56c1.35,0,2.08.17,2.76.59.44.28.8.67,1.04,1.12.25.46.38.97.37,1.49,0,1.38-.71,2.41-2.02,2.96,1.15.41,1.5,1.06,1.53,2.88.06,1.46.14,1.88.49,2.63h-3.2c-.21-.65-.25-.92-.22-2.04,0-1.69-.46-2.22-1.95-2.22h-3.47v4.25ZM83.51,65.08v-11.67h10.61v2.37h-7.7v2.19h6.81v2.37h-6.81v2.4h7.7v2.37l-10.61-.03ZM102.54,65.08h-2.9v-9.31h-4.01v-2.37h10.92v2.37h-4v9.31ZM120.76,60.51c-.83,3.32-3.09,4.99-6.83,4.99-4.27,0-6.96-2.39-6.96-6.14s2.78-6.36,7.03-6.36c2.04,0,3.64.54,4.9,1.68.86.72,1.45,1.7,1.7,2.8h-3.13c-.59-1.48-1.74-2.2-3.48-2.2-2.33,0-3.94,1.65-3.94,4.03s1.6,3.93,3.89,3.93c1.85,0,2.96-.83,3.63-2.71h3.2ZM131.11,53.41v4.55h-5.97v-4.55h-2.91v11.67h2.91v-4.76h5.96v4.76h2.9v-11.67h-2.89ZM34,65.08v-11.67h10.17v2.37h-7.27v2.19h6.66v2.37h-6.66v4.74h-2.9ZM71.84,65.08v-11.67h10.17v2.37h-7.27v2.19h6.68v2.37h-6.68v4.74h-2.9Z"/>
</svg>