<?xml version="1.0" encoding="UTF-8"?>
<svg id="Layer_1" xmlns="http://www.w3.org/2000/svg" version="1.1" viewBox="0 0 168 118">
  <!-- Generator: Adobe Illustrator 30.2.1, SVG Export Plug-In . SVG Version: 2.1.1 Build 1)  -->
  <defs>
    <style>
      .st0 {
        fill: #e3e3e3;
      }
    </style>
  </defs>
  <path class="st0" d="M19.24,57.46c-1.02-.48-1.89-.89-1.89-1.69,0-.65.42-1.31,1.37-1.31.68,0,1.5.23,2.55.72l1.05-2.11c-1.22-.72-2.48-1.06-3.83-1.06-2.63,0-4.2,1.42-4.2,3.79s1.84,3.29,3.31,4.02c1.07.53,1.99,1,1.99,1.86,0,.75-.67,1.25-1.66,1.25-.79,0-1.76-.29-2.88-.87l-1.05,2.26c1.41.8,2.7,1.16,4.18,1.16,2.73,0,4.36-1.52,4.36-4.06,0-2.4-1.83-3.27-3.31-3.96ZM28.05,53.52c-1.14,0-2.86,0-3.86.03v11.67h2.9v-3.56h.88c1.32,0,4.39-.43,4.39-4.38,0-2.43-1.53-3.76-4.32-3.76ZM27.96,59.47c-.36,0-.61,0-.83-.02h-.04v-3.73h.04c.26-.02.59-.02.86-.02,1.34,0,1.61.77,1.61,2.02,0,1.21-.51,1.74-1.65,1.74ZM40.78,60.71l.03-.02c.97-.77,1.5-1.97,1.5-3.36,0-2.81-2.39-3.81-4.63-3.81-1.14,0-2.86,0-3.85.03v11.67h2.9v-3.56h.88c.18,0,.34,0,.5-.02h.02s.01.02.01.02c.48.77,1.1,2.01,1.29,3.56h3.17c-.27-1.78-1.24-3.58-1.8-4.49l-.02-.03ZM37.59,59.47c-.36,0-.6,0-.83-.02h-.04v-3.73h.04c.26-.02.59-.02.86-.02,1.34,0,1.61.77,1.61,2.02s-.51,1.74-1.65,1.74ZM44.44,65.22h2.9s0-11.69,0-11.69h-2.9v11.69ZM56.53,61.18l-3.47-7.65h-3.17v11.69h2.55v-7.37l3.6,7.37h3.06v-11.69h-2.57v7.65ZM66.08,60.83h1.21v2.39h-.03c-.29.11-.99.17-1.28.17-1.53,0-2.13-1.13-2.13-4.04,0-2.56.88-3.8,2.7-3.8.61,0,1.49.27,2.43.74l.79-1.95c-1.05-.66-2.42-1.06-3.67-1.06-1.76,0-3.03.49-3.88,1.51-.84,1.01-1.25,2.51-1.25,4.58,0,4.53,1.32,6.21,4.85,6.21,1.13,0,2.82-.29,4.09-.94v-5.81h-3.82v1.99ZM74.66,60.38h3.76v-2.26h-3.76v-2.3h4.11v-2.28h-6.88v9.62s-.02.92.59,1.55c.38.39.92.59,1.6.6,2.11.01,4.42-.07,4.75-.08v-2.28h-4.16v-2.57ZM87.93,60.74l-.02-.03.03-.02c.97-.77,1.5-1.97,1.5-3.36,0-2.81-2.39-3.81-4.63-3.81-1.14,0-2.86,0-3.85.03v11.67h2.9v-3.56h.88c.18,0,.34,0,.5-.02h.02s.01.02.01.02c.48.77,1.1,2.01,1.29,3.56h3.17c-.27-1.78-1.24-3.58-1.8-4.49ZM84.72,59.47c-.36,0-.6,0-.83-.02h-.04v-3.73h.04c.26-.02.59-.02.86-.02,1.34,0,1.61.77,1.61,2.02s-.51,1.74-1.65,1.74Z"/>
  <path class="st0" d="M101.32,61.26l-4.27-9.14h-3.38v13.1h2.66v-9.04s4.23,9.04,4.23,9.04h3.43v-13.1h-2.68v9.14ZM115.93,55.92h2.61v9.31h3.02v-9.31h2.23v-2.38h-7.86v2.38ZM131.44,61.32c0,1.2-.07,1.93-1.4,1.93s-1.49-.6-1.49-1.95v-7.77h-3v7.92c0,2.79,1.35,4.03,4.37,4.03s4.54-1.41,4.54-4.45v-7.5h-3v7.78ZM149.84,62.94v-2.57h3.76v-2.26h-3.76v-2.3h4.11v-2.28h-6.88v9.62s-.02.92.59,1.55c.38.39.92.59,1.6.6,2.11.01,4.42-.07,4.75-.08v-2.28h-4.16ZM108.5,53.53l-2.83,11.69h2.96l.42-1.86h3.24l.42,1.86h3.12l-2.8-11.69h-4.52ZM109.38,61.16l1.2-5.08h.12l1.23,5.08h-2.56ZM143.55,60.71l.03-.02c.97-.77,1.5-1.97,1.5-3.36,0-2.81-2.39-3.81-4.63-3.81-1.14,0-2.86,0-3.85.03v11.67h2.9v-3.56h.88c.18,0,.34,0,.5-.02h.02s.01.02.01.02c.48.77,1.1,2.01,1.29,3.56h3.17c-.27-1.78-1.24-3.58-1.8-4.49l-.02-.03ZM140.35,59.47c-.36,0-.6,0-.83-.02h-.04v-3.73h.04c.26-.02.59-.02.86-.02,1.34,0,1.61.77,1.61,2.02,0,1.2-.51,1.74-1.65,1.74Z"/>
</svg>