<?xml version="1.0" encoding="UTF-8"?>
<svg id="Layer_1" xmlns="http://www.w3.org/2000/svg" version="1.1" viewBox="0 0 168 118">
  <!-- Generator: Adobe Illustrator 30.2.1, SVG Export Plug-In . SVG Version: 2.1.1 Build 1)  -->
  <defs>
    <style>
      .st0 {
        fill: #e3e3e3;
      }

      .st1 {
        fill: #ec3530;
      }
    </style>
  </defs>
  <path class="st1" d="M114.55,68.92c.82-.26,1.63-.52,2.44-.77.56-.18,1.12-.35,1.68-.53.14-.05.17-.01.19.12.06.65-.01,1.29-.17,1.92-.26,1.04-.68,2-1.46,2.77-1.69,1.68-4.42,2.02-6.42.72-1.23-.8-2.03-1.96-2.21-3.45-.26-2.22.67-3.91,2.46-5.15,1.3-.9,2.76-1.13,4.32-.88.12.02.14.05.12.17-.31,1.65-.63,3.31-.94,4.96,0,.04,0,.07,0,.12h0Z"/>
  <path class="st1" d="M117.07,55.55c-1.85-.54-3.26-1.57-4.03-3.37-.73-1.7.24-3.6,2.07-4.06.92-.23,1.83-.1,2.71.21,1.46.51,2.69,1.38,3.6,2.65.5.7.79,1.48.77,2.36-.02.67-.35,1.18-.83,1.63-.08.08-.12,0-.16-.04-.47-.42-.93-.84-1.39-1.26-.63-.58-1.27-1.16-1.91-1.74-.04-.03-.07-.06-.14-.11-.24,1.26-.47,2.5-.71,3.73h0Z"/>
  <path class="st1" d="M130.83,63.7c-.58-.52-1.12-1.03-1.68-1.52-.35-.31-.68-.63-1.03-.93-.1-.09-.08-.13,0-.2.62-.57,1.36-.75,2.18-.63,1.81.26,3.26,1.64,3.63,3.43.18.85.08,1.66-.49,2.36-.58.71-1.37,1.02-2.27.97-1.57-.09-2.68-.91-3.42-2.28-.07-.13-.06-.18.09-.22.93-.29,1.86-.6,2.79-.9.06-.02.11-.04.19-.06h0Z"/>
  <path class="st0" d="M101.38,66.62v3.31c0,.14-.03.18-.17.18-1.63,0-3.25,0-4.88,0-.15,0-.17-.05-.17-.18v-5.64c0-.38-.03-.76-.1-1.13-.12-.55-.43-.98-.88-1.29-1.07-.74-2.64-.69-3.67.1-.95.73-1.21,1.95-.6,2.87.39.58.95.92,1.61,1.11.85.23,1.68.11,2.5-.12.17-.05.19-.02.19.15,0,1.36,0,2.71,0,4.07,0,.11,0,.19-.15.21-2.48.4-4.8-.05-6.89-1.47-1.32-.9-2.26-2.11-2.62-3.69-.42-1.84-.02-3.51,1.14-5,1.13-1.45,2.63-2.33,4.39-2.75,2.4-.57,4.73-.32,6.9.9,1.38.78,2.42,1.88,3.02,3.37.25.64.37,1.3.37,1.97v3.03h0Z"/>
  <path class="st0" d="M68.94,65.92v4.24c0,.17-.05.22-.21.24-2.65.39-5.08-.15-7.22-1.79-1.16-.89-1.95-2.07-2.24-3.54-.35-1.79.06-3.42,1.18-4.85,1.17-1.48,2.71-2.38,4.53-2.78,2.28-.5,4.49-.27,6.57.84,1.4.75,2.49,1.81,3.13,3.3.28.64.44,1.32.44,2.01.01,2.17,0,4.34.01,6.51,0,.12-.03.15-.15.15h-4.94c-.16,0-.15-.08-.15-.19v-5.57c0-.38-.03-.76-.09-1.13-.11-.58-.41-1.03-.9-1.36-1.09-.74-2.71-.66-3.73.17-1.11.9-1.19,2.56.14,3.47.59.4,1.24.56,1.94.56.51,0,1-.11,1.49-.24.06-.02.11-.03.19-.05h0Z"/>
  <path class="st0" d="M34.01,58.86v-5.18c0-.17.05-.2.21-.2,1.61,0,3.22,0,4.83,0,.15,0,.19.04.19.19,0,1.14,0,2.28-.01,3.42,0,.16.05.2.2.2.84-.01,1.67,0,2.5,0,.14,0,.17.04.17.17,0,1.33,0,2.65,0,3.97,0,.16-.06.19-.2.18-.83,0-1.66,0-2.49,0-.15,0-.19.04-.19.19,0,.82,0,1.65,0,2.48,0,.32.04.64.17.94.24.54.69.77,1.24.86.43.07.85.05,1.27,0,.14-.02.19.02.19.17,0,1.31,0,2.63,0,3.94,0,.14-.05.18-.17.19-2.17.18-4.18-.25-5.89-1.66-1.1-.9-1.79-2.06-1.93-3.51-.06-.57-.1-1.14-.1-1.71v-4.6h0Z"/>
  <path class="st0" d="M78.92,53.48h2.4c.16,0,.21.03.21.2-.01,1.13,0,2.26-.01,3.39,0,.15.03.2.19.2.84-.01,1.68,0,2.53,0,.14,0,.17.04.17.17,0,1.33,0,2.66,0,3.99,0,.14-.05.17-.17.17-.84,0-1.68,0-2.53,0-.15,0-.19.04-.19.19,0,.79,0,1.59,0,2.38,0,.25.02.49.08.74.16.66.62,1.04,1.34,1.15.43.07.85.05,1.27,0,.15-.02.19.03.19.18,0,1.31,0,2.61,0,3.92,0,.12-.02.18-.16.19-2.15.19-4.14-.24-5.86-1.61-1.21-.96-1.89-2.21-2.01-3.77-.04-.58-.07-1.15-.07-1.73v-9.52c0-.27-.04-.23.24-.23h2.37Z"/>
  <path class="st0" d="M43.84,66.43c0-1.05-.01-2.09,0-3.14.01-1.05.19-2.08.71-3,.56-1.01,1.4-1.73,2.39-2.29.97-.54,2.02-.82,3.12-.91.46-.04.91-.04,1.37-.02.13,0,.17.05.17.18,0,1.35,0,2.7,0,4.05,0,.14-.03.17-.17.14-.34-.09-.68-.11-1.03-.05-.74.13-1.2.63-1.3,1.37-.05.37-.07.74-.07,1.12v6.03c0,.16-.03.21-.2.21-1.6,0-3.21,0-4.81,0-.16,0-.2-.04-.2-.2,0-1.16,0-2.32,0-3.49h.02Z"/>
  <path class="st0" d="M52.79,63.69v-6.21c0-.16.04-.21.2-.21,1.61,0,3.22,0,4.83,0,.15,0,.2.03.2.19,0,4.15,0,8.31,0,12.46,0,.14-.03.19-.18.19-1.62,0-3.24,0-4.86,0-.16,0-.18-.05-.18-.19v-6.23h0Z"/>
  <path class="st1" d="M58.2,52.91c0,1.52-1.27,2.77-2.79,2.75-1.53-.01-2.81-1.26-2.8-2.74,0-1.59,1.25-2.84,2.78-2.86,1.27-.02,2.83,1.01,2.81,2.84Z"/>
</svg>