<svg xmlns="http://www.w3.org/2000/svg" width="200" height="88" fill="none"><path fill="#96A1BC" fill-rule="evenodd" d="m54.64 36.187-.355-.356h-3.457l-.356.356-5.806 14.639v2.657l.388.39h2.454l.356-.356 1.241-3.224.37-.184h6.163l.37.184 1.24 3.224.356.356h2.455l.388-.39v-2.652L54.64 36.187Zm.026 10.363-.075.075h-4.07l-.075-.075 2.111-5.627 2.11 5.627Zm26.857-10.719h-3.961l-.354.354L72.263 48.3 67.32 36.185l-.354-.354h-3.961l-.39.39v17.262l.39.39h3.207l.39-.39v-9.299l3.813 9.292.016.043.355.354h2.956l.353-.354 3.831-9.337v9.301l.39.39h3.207l.388-.39V36.221l-.388-.39Zm16.417 10.11a3.881 3.881 0 0 0-2.06-1.473c1.502-.572 2.355-1.967 2.355-3.882 0-1.568-.576-2.836-1.662-3.67-.912-.698-2.189-1.085-3.595-1.085h-8.13l-.387.392v17.26l.388.39h8.632c1.004 0 2.442-.194 3.598-1.118 1.1-.88 1.656-2.188 1.656-3.887 0-1.183-.267-2.168-.795-2.927Zm-5.457-3.08h-3.915l-.112-.112v-3.32l.112-.111h3.915c1.258 0 1.772.51 1.772 1.771-.007.66-.24 1.772-1.772 1.772Zm-4.03 3.597.112-.112h3.915c.813 0 1.387.17 1.753.502.366.332.52.82.52 1.52 0 .7-.17 1.192-.52 1.522-.35.33-.94.5-1.753.5h-3.915l-.113-.112v-3.82Zm26.141-10.627h-3.207l-.388.392v10.639c0 1.24-.257 2.182-.762 2.8-.54.66-1.362.98-2.516.98s-1.976-.32-2.516-.98c-.511-.618-.763-1.56-.763-2.8v-10.64l-.384-.39h-3.212l-.388.39v10.64c0 2.313.635 4.122 1.887 5.375 1.253 1.253 3.064 1.89 5.376 1.89 2.311 0 4.121-.637 5.375-1.89 1.255-1.253 1.888-3.064 1.888-5.375v-10.64l-.39-.39Zm15.166 8.71c-1.072-.834-2.609-1.399-4.566-1.678-3.663-.524-4.315-1.052-4.315-2.277a1.185 1.185 0 0 1 .554-1.06c.46-.306 1.207-.46 2.213-.46 2.742 0 3.279.74 3.279 2.022v.099l.388.388h3.213l.39-.389v-.098c0-1.636-.582-3.001-1.682-3.944-1.21-1.037-3.002-1.563-5.331-1.563-5.169 0-7.011 2.586-7.011 5.005 0 1.702.645 3.038 1.917 3.956 1.041.752 2.533 1.26 4.56 1.548 3.508.5 4.315.974 4.315 2.528a1.644 1.644 0 0 1-.8 1.495c-.555.35-1.389.528-2.479.528-3.329 0-3.778-1.277-3.778-2.525v-.099l-.39-.39h-3.207l-.39.389v.098c0 1.76.637 3.235 1.839 4.288 1.314 1.142 3.223 1.721 5.676 1.721 2.516 0 4.457-.556 5.767-1.656 1.144-.957 1.748-2.29 1.748-3.85 0-1.718-.643-3.09-1.91-4.075Zm18.215-8.71h-3.207l-.389.39v6.526l-.113.113h-6.58l-.114-.113v-6.526l-.388-.39h-3.209l-.388.39v17.262l.388.39h3.209l.388-.39v-7.026l.114-.115h6.58l.113.114v7.027l.389.39h3.207l.39-.39V36.221l-.39-.39Zm6.397-.422a3.936 3.936 0 0 1 3.639 2.432 3.94 3.94 0 1 1-7.282-.003 3.92 3.92 0 0 1 3.643-2.429Zm0 6.784c1.641 0 2.735-1.204 2.735-2.845 0-1.64-1.094-2.844-2.735-2.844-1.641 0-2.735 1.203-2.735 2.844 0 1.641 1.092 2.845 2.735 2.845Zm1.75-1.532v.546l-.109.109h-.55l-.218-.11-.766-1.094-.219-.109h-.329l-.11.11v1.094l-.109.109h-.875l-.111-.11v-3.718l.111-.11h1.969c.875 0 1.421.438 1.421 1.313a1.092 1.092 0 0 1-.655 1.095v.11l.55.764Zm-1.312-2.299h-.879l-.11.11v.437l.11.109h.875a.333.333 0 0 0 .248-.087.328.328 0 0 0-.115-.55.331.331 0 0 0-.133-.019h.004Z" clip-rule="evenodd"/></svg>