<?xml version="1.0" encoding="UTF-8"?>
<svg id="Layer_1" xmlns="http://www.w3.org/2000/svg" version="1.1" viewBox="0 0 200 88">
  <!-- Generator: Adobe Illustrator 30.2.1, SVG Export Plug-In . SVG Version: 2.1.1 Build 1)  -->
  <defs>
    <style>
      .st0 {
        fill: #b6b6b6;
        fill-rule: evenodd;
      }
    </style>
  </defs>
  <path class="st0" d="M54.64,36.19l-.35-.36h-3.46l-.36.36-5.81,14.64v2.66l.39.39h2.45l.36-.36,1.24-3.22.37-.18h6.16l.37.18,1.24,3.22.36.36h2.45l.39-.39v-2.65l-5.81-14.64ZM54.67,46.55l-.08.08h-4.07l-.08-.08,2.11-5.63,2.11,5.63h0ZM81.52,35.83h-3.96l-.35.35-4.95,12.11-4.94-12.11-.35-.35h-3.96l-.39.39v17.26l.39.39h3.21l.39-.39v-9.3l3.81,9.29.02.04.36.35h2.96l.35-.35,3.83-9.34v9.3l.39.39h3.21l.39-.39v-17.26s-.39-.39-.39-.39ZM97.94,45.94c-.5-.71-1.23-1.23-2.06-1.47,1.5-.57,2.36-1.97,2.36-3.88,0-1.57-.58-2.84-1.66-3.67-.91-.7-2.19-1.08-3.6-1.08h-8.13l-.39.39v17.26l.39.39h8.63c1,0,2.44-.19,3.6-1.12,1.1-.88,1.66-2.19,1.66-3.89,0-1.18-.27-2.17-.79-2.93ZM92.48,42.86h-3.92l-.11-.11v-3.32l.11-.11h3.92c1.26,0,1.77.51,1.77,1.77,0,.66-.24,1.77-1.77,1.77ZM88.45,46.46l.11-.11h3.92c.81,0,1.39.17,1.75.5s.52.82.52,1.52-.17,1.19-.52,1.52c-.35.33-.94.5-1.75.5h-3.92l-.11-.11v-3.82h0ZM114.59,35.83h-3.21l-.39.39v10.64c0,1.24-.26,2.18-.76,2.8-.54.66-1.36.98-2.52.98s-1.98-.32-2.52-.98c-.51-.62-.76-1.56-.76-2.8v-10.64l-.38-.39h-3.21l-.39.39v10.64c0,2.31.64,4.12,1.89,5.38,1.25,1.25,3.06,1.89,5.38,1.89s4.12-.64,5.38-1.89c1.25-1.25,1.89-3.06,1.89-5.38v-10.64l-.39-.39h0ZM129.76,44.54c-1.07-.83-2.61-1.4-4.57-1.68-3.66-.52-4.32-1.05-4.32-2.28-.02-.43.19-.83.55-1.06.46-.31,1.21-.46,2.21-.46,2.74,0,3.28.74,3.28,2.02v.1l.39.39h3.21l.39-.39v-.1c0-1.64-.58-3-1.68-3.94-1.21-1.04-3-1.56-5.33-1.56-5.17,0-7.01,2.59-7.01,5.01,0,1.7.64,3.04,1.92,3.96,1.04.75,2.53,1.26,4.56,1.55,3.51.5,4.32.97,4.32,2.53.03.61-.28,1.18-.8,1.49-.56.35-1.39.53-2.48.53-3.33,0-3.78-1.28-3.78-2.53v-.1l-.39-.39h-3.21l-.39.39v.1c0,1.76.64,3.24,1.84,4.29,1.31,1.14,3.22,1.72,5.68,1.72s4.46-.56,5.77-1.66c1.14-.96,1.75-2.29,1.75-3.85,0-1.72-.64-3.09-1.91-4.08h0ZM147.98,35.83h-3.21l-.39.39v6.53l-.11.11h-6.58l-.11-.11v-6.53l-.39-.39h-3.21l-.39.39v17.26l.39.39h3.21l.39-.39v-7.03l.11-.12h6.58l.11.11v7.03l.39.39h3.21l.39-.39v-17.26l-.39-.39ZM154.37,35.41c1.59,0,3.03.96,3.64,2.43.83,2.01-.13,4.32-2.14,5.15-2.01.83-4.32-.13-5.15-2.14-.4-.96-.4-2.05,0-3.01.61-1.48,2.05-2.44,3.64-2.43h0ZM154.37,42.19c1.64,0,2.74-1.2,2.74-2.85s-1.09-2.84-2.74-2.84-2.74,1.2-2.74,2.84,1.09,2.85,2.74,2.85ZM156.12,40.66v.55l-.11.11h-.55l-.22-.11-.77-1.09-.22-.11h-.33l-.11.11v1.09l-.11.11h-.88l-.11-.11v-3.72l.11-.11h1.97c.88,0,1.42.44,1.42,1.31.04.47-.22.91-.65,1.1v.11l.55.76h0ZM154.81,38.36h-.88l-.11.11v.44l.11.11h.88c.09,0,.18-.03.25-.09.13-.12.14-.33.02-.46-.04-.04-.08-.07-.13-.09-.04-.02-.09-.02-.13-.02h0Z"/>
</svg>