<?xml version="1.0" encoding="UTF-8"?>
<svg id="Layer_1" xmlns="http://www.w3.org/2000/svg" version="1.1" viewBox="0 0 200 88">
  <!-- Generator: Adobe Illustrator 30.2.1, SVG Export Plug-In . SVG Version: 2.1.1 Build 1)  -->
  <defs>
    <style>
      .st0 {
        fill: #b6b6b6;
      }
    </style>
  </defs>
  <path class="st0" d="M51.81,70.82c0-.28-.09-.39-.33-.39-.42,0-.88.21-1.42.63-.55.45-1.02.98-1.39,1.58-.39.63-.6,1.14-.6,1.53s.05.42.12.53c.11.11.26.17.42.16.21,0,.63-.26,1.14-.79.51-.53.97-1.11,1.39-1.79.42-.67.63-1.16.63-1.46M53.59,69.75l-2.04,4.41c-.14.3-.21.53-.21.67s.05.16.14.16c.14,0,.46-.28.93-.81.23-.26.35-.37.37-.37.06,0,.12.03.16.07.05.04.07.1.07.16,0,.07-.19.28-.53.65-.3.32-.64.61-1,.86-.33.21-.58.3-.79.3-.49,0-.72-.21-.72-.63s.21-.95.6-1.65c-.35.62-.83,1.16-1.39,1.6-.58.44-1.09.67-1.53.67-.22,0-.43-.09-.58-.25-.14-.16-.21-.42-.21-.72,0-.58.26-1.25.79-2.02.54-.76,1.2-1.44,1.95-2,.76-.58,1.42-.86,1.92-.86s.46.05.63.14l.16-.39c.07-.16.33-.23.74-.23s.53.07.53.19c0,0,0,.05,0,.05ZM58.58,65.94c0,.12-.05.23-.09.35l-3.16,7.59c-.19.46-.28.72-.28.79,0,.14.05.21.16.21.21,0,.53-.25.97-.79.19-.23.3-.35.35-.35.07,0,.12.02.16.09.04.04.07.1.07.16,0,.07-.16.3-.51.67-.3.32-.62.62-.97.88-.33.21-.58.32-.81.32-.51,0-.77-.23-.77-.72s.07-.51.21-.86l2.62-6.4c.09-.26.16-.46.16-.6s-.21-.28-.6-.32c-.07,0-.12-.07-.12-.16s.05-.16.12-.16c.3-.05.67-.16,1.11-.3.44-.14.77-.28.97-.42.07-.05.16-.09.26-.09.09,0,.14.05.14.14M61.27,70.86c0-.37-.19-.56-.53-.56s-.67.21-.97.67c-.3.44-.51,1-.65,1.65.37,0,.73-.08,1.07-.23.33-.16.58-.39.77-.7.21-.3.3-.58.3-.81M62.29,70.63c0,.6-.33,1.16-.97,1.67-.66.49-1.46.75-2.27.74-.02.28-.05.51-.05.72,0,.39.07.67.19.86.12.16.3.25.58.25.63,0,1.16-.32,1.65-1h.05s.09,0,.12.05c.05.05.07.09.07.14,0,.09-.14.32-.44.67-.26.33-.58.61-.93.83-.28.18-.61.29-.95.3-.47,0-.86-.16-1.16-.51-.3-.33-.47-.76-.47-1.21,0-.65.19-1.32.53-2.02.37-.7.83-1.3,1.39-1.76.56-.49,1.09-.72,1.58-.72s.63.09.81.28c.19.18.28.44.28.74M69.6,70.4c0,.2-.05.39-.16.56-.11.13-.27.21-.44.21-.21,0-.35-.14-.44-.42-.07-.19-.14-.3-.23-.3-.19,0-.7.58-1.6,1.74l-.21.28.21.95c.18,1.02.46,1.53.81,1.53s.28-.09.37-.25c.07-.16.12-.51.12-1.04s.05-.09.12-.09c.12,0,.19.05.23.12.02.09.07.16.07.25s.02.16.02.26c0,.49-.12.88-.35,1.18s-.53.46-.88.46-.7-.16-.93-.51c-.23-.32-.46-.93-.67-1.79-.37.59-.81,1.13-1.3,1.62-.44.44-.81.67-1.07.67-.19,0-.37-.09-.49-.23-.14-.15-.21-.35-.21-.56,0-.23.07-.42.19-.58.11-.15.28-.23.46-.23.21,0,.35.12.44.35.07.16.14.23.26.23.21,0,.77-.6,1.62-1.83l-.21-1c-.07-.38-.19-.74-.35-1.09-.14-.28-.3-.42-.46-.42-.17,0-.31.1-.37.26-.07.16-.12.51-.12,1.04s-.05.09-.14.09c-.21,0-.33-.21-.33-.63s.12-.88.37-1.18c.21-.28.53-.46.91-.46.83,0,1.39.77,1.62,2.32.65-.88,1.14-1.49,1.53-1.81.37-.32.7-.51.95-.51s.42.07.56.21c.14.15.21.35.21.56M74.36,70.81c0-.28-.12-.39-.32-.39-.42,0-.88.21-1.42.63-.55.45-1.02.98-1.39,1.58-.39.63-.6,1.14-.6,1.53s.05.42.12.53c.11.11.26.17.42.16.21,0,.63-.26,1.14-.79.51-.53.97-1.11,1.39-1.79.42-.67.63-1.16.63-1.46h.05ZM76.15,69.75l-2.04,4.41c-.14.3-.21.53-.21.67s.05.16.14.16c.14,0,.46-.28.93-.81.23-.26.35-.37.37-.37.06,0,.12.03.16.07.05.04.07.1.07.16,0,.07-.19.28-.53.65s-.7.65-1,.86c-.32.21-.58.3-.79.3-.49,0-.72-.21-.72-.63s.21-.95.6-1.65c-.35.62-.83,1.16-1.39,1.6-.58.44-1.09.67-1.53.67-.22,0-.43-.09-.58-.25-.14-.19-.21-.42-.21-.72,0-.58.26-1.25.79-2.02.53-.77,1.19-1.44,1.95-2,.76-.58,1.42-.86,1.93-.86s.46.05.63.14l.16-.39c.07-.16.32-.23.74-.23s.53.07.53.19v.05ZM82.65,70.51c0,.3-.09.67-.3,1.11l-1.14,2.53c-.16.37-.25.58-.25.67,0,.12.05.16.14.16.16,0,.49-.23.93-.74.21-.21.3-.32.35-.32.06,0,.12.03.16.07.05.04.07.1.07.16,0,.07-.16.28-.51.63-.3.3-.63.58-1,.79-.32.19-.6.28-.83.28-.17,0-.34-.04-.49-.14-.11-.09-.18-.23-.18-.37,0-.25.09-.63.32-1.09l1.18-2.6c.14-.3.21-.53.21-.72s-.12-.37-.32-.37-.67.32-1.18.97c-.53.65-1.11,1.53-1.76,2.65l-.49,1.28c-.02.07-.12.12-.28.16-.14.05-.3.07-.46.07-.14,0-.25,0-.37-.07-.12-.05-.19-.09-.19-.14,0-.02,1.51-4.18,1.51-4.18.12-.3.19-.53.19-.67s-.05-.16-.14-.16c-.16,0-.42.23-.81.7-.21.25-.32.37-.37.37-.06,0-.12-.02-.16-.07-.05-.04-.07-.1-.07-.16,0-.07.16-.25.49-.6.28-.3.59-.58.93-.81.3-.18.56-.3.76-.3.49,0,.74.21.74.6s-.07.56-.21.95l-.44,1.14c.56-.86,1.09-1.53,1.62-2,.53-.46,1.02-.72,1.46-.72s.49.09.65.26c.18.17.29.4.28.65M88.19,70.72c0-.44-.23-.65-.7-.65s-.86.23-1.35.7c-.51.49-.92,1.06-1.23,1.69-.32.67-.49,1.3-.49,1.86s.16.63.46.63.74-.25,1.21-.74c.49-.49.95-1.14,1.39-1.9.46-.77.67-1.3.67-1.58M91.25,65.94c0,.07-.02.18-.07.35l-2.95,7.59c-.16.44-.25.72-.25.83s.05.21.14.21c.16,0,.46-.28.9-.81.16-.21.26-.3.28-.3.07,0,.12.02.19.07.05.05.09.12.09.16,0,.07-.16.3-.46.67-.28.32-.58.6-.93.86-.3.21-.56.3-.79.3-.51,0-.79-.26-.79-.77s.14-.77.39-1.35c-.37.6-.81,1.11-1.35,1.51-.51.39-.97.6-1.39.6-.3,0-.6-.14-.81-.37-.21-.25-.32-.58-.32-.97,0-.63.23-1.35.72-2.09.46-.76,1.07-1.42,1.79-1.95.72-.56,1.35-.81,1.86-.81s.35.05.53.12c.16.05.3.14.42.28l.81-2.14c.09-.25.16-.46.16-.6s-.21-.28-.63-.32c-.09,0-.14-.07-.14-.16s.05-.16.12-.16c.3-.05.67-.16,1.09-.3.42-.14.74-.28.98-.42.07-.05.15-.08.23-.09.09,0,.14.05.14.16M95.94,70.37c0,.21-.07.39-.21.53-.12.14-.3.21-.49.21-.16,0-.35-.09-.49-.26-.14-.14-.25-.21-.37-.21-.3,0-.74.46-1.35,1.37-.6.9-1.21,2.07-1.83,3.43-.07.16-.28.23-.65.23-.12,0-.23,0-.35-.07-.09-.02-.16-.07-.16-.14,0-.02,1.51-4.18,1.51-4.18.12-.35.19-.58.19-.67s-.05-.16-.14-.16c-.16,0-.44.23-.81.72-.18.23-.3.35-.35.35-.07,0-.14-.02-.19-.07-.05-.04-.07-.1-.07-.16,0-.07.16-.25.49-.6.28-.3.59-.58.93-.81.3-.18.56-.3.77-.3.51,0,.74.21.74.6s-.07.53-.23.95l-.28.72c.9-1.53,1.72-2.3,2.41-2.3s.49.07.67.21c.16.14.28.32.25.56M99.26,70.86c0-.37-.18-.56-.53-.56s-.67.21-.97.67c-.3.44-.51,1-.65,1.65.37,0,.73-.08,1.07-.23.32-.16.58-.39.76-.7.21-.3.3-.58.3-.81M100.31,70.63c0,.6-.32,1.16-.97,1.67-.66.49-1.45.75-2.27.74-.02.28-.05.51-.05.72,0,.39.07.67.19.86.12.16.3.25.58.25.63,0,1.16-.32,1.65-1h.05s.07,0,.12.05.07.09.07.14c0,.09-.14.32-.44.67-.27.32-.58.6-.93.83-.29.18-.61.29-.95.3-.46,0-.86-.16-1.16-.51-.3-.33-.47-.76-.46-1.21,0-.65.19-1.32.53-2.02.37-.7.81-1.3,1.39-1.76.56-.49,1.09-.72,1.58-.72s.63.09.81.28c.2.2.3.47.28.74M113.6,70.49c0,.23-.07.46-.19.7l-1.58,2.97c-.19.32-.25.56-.25.7s.05.14.14.14c.16,0,.46-.25.95-.77.25-.28.39-.42.44-.42.07,0,.12.02.16.07.05.04.07.1.07.16,0,.07-.18.28-.56.65-.32.32-.67.61-1.04.86-.32.21-.6.32-.81.32-.46,0-.7-.19-.7-.56s.12-.58.32-1l1.56-2.97c.09-.14.14-.33.16-.49,0-.21-.12-.32-.39-.32s-.56.23-.97.7c-.42.46-1.16,1.49-2.25,3.09l-.58,1.14c-.12.19-.32.28-.67.28s-.63-.07-.63-.21v-.07l2.09-4.08c.09-.14.14-.3.14-.46,0-.23-.14-.35-.39-.35s-.63.23-1.04.7c-.42.46-1.16,1.49-2.23,3.09l-.56,1.14c-.09.19-.3.28-.67.28s-.63-.07-.63-.21v-.07l2.04-4.08c.16-.35.23-.56.23-.67s-.05-.16-.14-.16c-.16,0-.51.28-1,.84-.21.23-.3.35-.35.35-.06,0-.12-.02-.16-.07-.05-.04-.07-.1-.07-.16,0-.07.18-.28.53-.65.3-.33.65-.62,1.02-.86.32-.21.6-.3.81-.3.49,0,.72.21.72.6s-.09.56-.28.95l-.32.65c.36-.61.83-1.16,1.39-1.6.53-.42,1.04-.63,1.51-.63s.53.07.7.23c.16.18.25.41.23.65,0,.23-.07.44-.16.67l-.28.56c.44-.67.9-1.18,1.37-1.56.49-.37.95-.56,1.37-.56s.51.09.67.23c.17.16.25.39.23.63M118.85,70.81c0-.28-.12-.39-.32-.39-.42,0-.88.21-1.42.63-.55.45-1.02.98-1.39,1.58-.39.63-.6,1.14-.6,1.53s.05.42.12.53c.07.09.21.16.42.16s.63-.26,1.14-.79c.51-.53.97-1.11,1.39-1.79.42-.67.63-1.16.63-1.46h.05ZM120.63,69.75l-2.04,4.41c-.14.3-.21.53-.21.67s.05.16.14.16c.14,0,.46-.28.93-.81.21-.26.35-.37.37-.37.07,0,.12.02.16.07.05.05.07.09.07.16s-.19.28-.53.65c-.3.32-.63.61-1,.86-.3.21-.58.3-.79.3-.49,0-.72-.21-.72-.63s.21-.95.6-1.65c-.36.62-.83,1.16-1.39,1.6-.58.44-1.09.67-1.53.67-.22,0-.43-.09-.58-.25-.14-.19-.21-.42-.21-.72,0-.58.26-1.25.79-2.02.53-.77,1.19-1.44,1.95-2,.77-.58,1.42-.86,1.93-.86s.46.05.63.14l.16-.39c.07-.16.32-.23.74-.23s.53.07.53.19v.05ZM125.58,70.14c0,.09-.03.19-.09.25-.07.09-.14.12-.18.12l-1.46-.05-1.37,3.67c-.09.3-.14.49-.14.6s.05.21.16.21c.23,0,.67-.28,1.35-.86.25-.21.39-.32.44-.32.07,0,.14.02.18.07.05.05.07.09.07.16s-.21.3-.63.65c-.37.32-.78.61-1.21.86-.37.21-.67.32-.9.32-.53,0-.79-.25-.79-.74s.07-.51.16-.81l1.39-3.78h-1.11c-.09.02-.14-.05-.14-.19s.05-.16.09-.25c.07-.09.12-.12.19-.12h1.16l.53-1.44c.02-.07.12-.11.25-.16.16-.05.3-.07.46-.07s.25,0,.37.07c.12.05.19.09.19.14,0,.02-.53,1.49-.53,1.49h1.39c.09,0,.16.07.16.21M130.13,70.14c0,.09-.03.19-.09.25-.07.09-.12.12-.19.12l-1.46-.05-1.37,3.67c-.09.3-.14.49-.14.6s.05.21.16.21c.23,0,.67-.28,1.37-.86.26-.21.4-.32.44-.32.07,0,.14.02.19.07.05.04.07.1.07.16,0,.07-.21.3-.63.65-.42.35-.81.65-1.21.86-.37.21-.67.32-.9.32-.53,0-.79-.25-.79-.74s.07-.51.16-.81l1.39-3.78h-1.11c-.09.02-.14-.05-.14-.19s.02-.16.09-.25c.07-.09.12-.12.18-.12h1.16l.53-1.44c0-.07.12-.11.26-.16.14-.05.3-.07.46-.07s.26,0,.37.07c.12.05.19.09.19.14,0,.02-.53,1.49-.53,1.49h1.39c.09,0,.16.07.16.21M134.35,67.1c0,.2-.09.39-.23.53-.16.15-.36.23-.58.23-.22,0-.43-.08-.58-.23-.15-.13-.24-.33-.23-.53,0-.21.09-.39.23-.53.16-.14.37-.23.58-.23.23,0,.42.07.58.23.16.14.23.32.23.53ZM133.51,70.19c0,.28-.09.6-.3,1l-1.58,2.97c-.16.3-.26.53-.26.67s.05.16.12.16c.16,0,.49-.25.97-.79.23-.25.37-.39.4-.39.06,0,.12.02.16.07.05.05.07.09.07.16s-.19.28-.56.65c-.32.32-.67.61-1.04.86-.32.21-.6.3-.81.3-.46,0-.7-.21-.7-.6s.09-.56.32-.97l1.58-2.97c.16-.3.26-.53.26-.7s-.05-.14-.14-.14c-.16,0-.51.28-1.02.84-.21.23-.32.35-.37.35-.06,0-.12-.02-.16-.07-.05-.04-.07-.1-.07-.16,0-.07.18-.28.56-.65.37-.37.72-.65,1.04-.86.32-.21.6-.3.84-.3.46,0,.67.18.67.56M140.59,70.02l-1.51,4.13c-.12.35-.19.58-.19.67s.05.16.14.16c.16,0,.44-.23.84-.72.19-.23.3-.35.35-.35.07,0,.12,0,.16.07.05.04.07.1.07.16,0,.07-.16.28-.49.6-.28.3-.58.58-.93.79-.3.18-.56.28-.77.28s-.42-.05-.56-.16c-.14-.11-.21-.27-.21-.44,0-.23.07-.56.23-.97l.46-1.3c-.58.91-1.14,1.62-1.67,2.11-.53.51-1.04.74-1.46.74-.24,0-.48-.09-.65-.25-.19-.16-.28-.4-.26-.65,0-.28.09-.65.28-1.11l1.16-2.53c.16-.37.26-.58.26-.67s-.05-.16-.14-.16c-.18,0-.49.25-.93.74-.21.21-.32.32-.35.32-.05,0-.09-.02-.14-.07-.05-.04-.07-.1-.07-.16,0-.07.16-.28.51-.63.35-.32.67-.6.97-.79.3-.18.6-.3.84-.3s.37.05.51.14c.12.09.19.23.19.37,0,.25-.09.6-.32,1.07l-1.18,2.6c-.14.3-.21.53-.21.74s.12.37.32.37.67-.32,1.18-.93c.51-.63,1.09-1.46,1.72-2.53l.53-1.44c0-.07.12-.12.26-.16.14-.05.3-.07.46-.07.14,0,.26,0,.37.07.12.05.18.09.16.19M145.3,70.37c0,.39-.16.6-.49.6s-.37-.12-.67-.37c-.28-.23-.49-.35-.63-.35-.1,0-.21.04-.28.12-.07.07-.12.18-.09.28,0,.25.16.72.51,1.42.37.77.56,1.3.56,1.58,0,.58-.21,1.09-.65,1.53-.42.44-.98.67-1.62.67s-.65-.09-.93-.25c-.28-.16-.42-.35-.42-.53s.05-.32.16-.42c.12-.11.28-.17.44-.16.16,0,.32.12.51.35.16.19.3.32.42.37.12.05.26.09.4.09.18,0,.35-.09.46-.23.12-.16.16-.37.16-.67s-.14-.56-.39-1.09c-.4-.74-.6-1.35-.6-1.79s.21-.9.6-1.32c.35-.39.86-.61,1.39-.6.53,0,.63.07.86.21.21.14.32.32.32.53M149.57,70.37c0,.39-.16.6-.49.6s-.37-.12-.67-.37c-.28-.23-.49-.35-.63-.35-.1,0-.21.04-.28.12-.07.07-.12.18-.09.28,0,.25.16.72.51,1.42.37.77.56,1.3.56,1.58,0,.58-.21,1.09-.65,1.53-.42.44-.98.67-1.62.67s-.65-.09-.93-.25c-.28-.16-.42-.35-.42-.53s.05-.32.16-.42c.12-.11.28-.17.44-.16.16,0,.32.12.51.35.12.16.26.28.42.37.12.05.26.09.39.09.18,0,.35-.09.46-.23.12-.16.16-.37.16-.67s-.14-.56-.39-1.09c-.4-.74-.58-1.35-.58-1.79s.21-.9.6-1.32c.35-.39.86-.61,1.39-.6.53,0,.63.07.86.21.21.14.32.32.32.53M154.07,67.1c0,.2-.09.39-.23.53-.16.14-.35.23-.56.23-.22,0-.43-.08-.58-.23-.15-.13-.24-.33-.23-.53,0-.21.09-.39.23-.53.15-.15.36-.24.58-.23.21,0,.41.08.56.23.15.13.24.33.23.53ZM153.24,70.19c0,.28-.09.6-.3,1l-1.58,2.97c-.16.3-.26.53-.26.67s.05.16.12.16c.16,0,.49-.25.98-.79.23-.25.37-.39.39-.39.07,0,.12.02.16.07.05.05.07.09.07.16s-.19.28-.56.65c-.32.32-.67.61-1.04.86-.32.21-.6.3-.81.3-.46,0-.7-.21-.7-.6s.12-.56.32-.97l1.58-2.97c.16-.3.26-.53.26-.7s-.05-.14-.14-.14c-.16,0-.51.28-1.02.84-.21.23-.32.35-.37.35-.06,0-.12-.02-.16-.07-.05-.04-.07-.1-.07-.16,0-.07.19-.28.56-.65s.72-.65,1.04-.86c.32-.21.6-.3.84-.3.44,0,.67.18.67.56M134.51,16.37c.67.53,1.46.81,2.39.81.86,0,1.55-.28,2.11-.81.56-.53.84-1.16.84-1.95s-.3-1.48-.86-2.06c-.58-.58-1.28-.86-2.21-.86s-1.69.28-2.34.84c-.63.56-.95,1.23-.95,2.02s.32,1.46,1,2c0,0,.02.02.02.02ZM143.79,45.5c-.12-.16-.28-.26-.51-.28-.86-.12-1.51-.26-1.97-.46s-.81-.49-1.02-.88c-.23-.37-.35-.86-.4-1.46-.03-.73-.04-1.45-.05-2.18v-16.69c0-.23-.07-.46-.21-.67-.14-.23-.42-.37-.86-.37s-.35.05-.58.14c-.23.09-.56.16-.97.23-.54.12-1.09.21-1.65.28-.6.09-1.21.16-1.81.21-.6.05-1.16.09-1.69.12-.53.05-1,.07-1.37.12-.2,0-.39.09-.51.25-.11.15-.16.33-.16.51,0,.19.07.37.16.53.12.16.3.28.51.26.88.09,1.58.23,2.11.42.51.16.93.51,1.18.95.26.46.42,1.16.49,2.07.07.91.12,2.09.12,3.6v8.38c0,.79-.02,1.46-.07,1.99-.05.53-.19.97-.42,1.35-.26.37-.63.65-1.18.86-.53.21-1.3.37-2.25.46-.2,0-.39.11-.51.28-.22.3-.22.72,0,1.02.1.14.27.23.44.23,1.04,0,2.11-.07,3.25-.19,1.16-.12,2.32-.18,3.48-.19,1.09,0,2.18.07,3.27.19.86.12,1.74.16,2.62.19.23,0,.39-.07.51-.23.11-.14.16-.31.16-.49,0-.16-.05-.4-.16-.53h.05ZM129.04,45.22c-.79-.12-1.37-.26-1.79-.46s-.7-.49-.88-.88c-.19-.37-.3-.86-.32-1.46-.05-.6-.05-1.32-.05-2.18v-8.26c0-1.39-.12-2.67-.32-3.88-.23-1.18-.65-2.23-1.28-3.09-.63-.86-1.51-1.56-2.62-2.07s-2.55-.74-4.34-.74-2.37.19-3.39.58c-.97.35-1.9.81-2.79,1.37-.81.53-1.49,1.09-2,1.67-.51.58-.88,1.05-1.04,1.44-.74-1.67-1.79-2.92-3.13-3.78-1.32-.86-3.16-1.28-5.45-1.28s-2.39.19-3.36.53c-.88.33-1.72.74-2.51,1.28-.61.42-1.18.91-1.67,1.46-.42.49-.72.84-.9,1.09-.16.14-.23.12-.23-.05l.12-2.55c.04-.36-.08-.71-.32-.98-.24-.27-.59-.42-.95-.42-.14,0-.3,0-.44.02-.15,0-.3.02-.44.07-2.2.55-4.43.97-6.68,1.25-.21,0-.37.07-.46.23-.09.15-.12.32-.09.49.05.16.12.33.23.46.12.14.28.21.44.21.88.02,1.58.14,2.02.35.46.19.81.56,1.04,1.07.21.51.35,1.28.39,2.25.05.98.07,2.27.07,3.9v7.7c0,.79,0,1.46-.07,2,0,.49-.14.95-.39,1.35-.23.37-.58.65-1.09.86-.49.21-1.21.37-2.14.46-.21,0-.4.11-.51.28-.11.16-.17.34-.16.53,0,.19.07.35.16.49.09.14.28.23.44.23,1.02,0,2.04-.07,3.06-.19,1.15-.12,2.3-.18,3.46-.19,1.11,0,2.21.07,3.32.19,1.09.12,2.02.19,2.76.19.19,0,.39-.07.51-.23.11-.14.17-.31.16-.49,0-.19-.06-.38-.16-.53-.12-.16-.31-.26-.51-.28-.9-.12-1.58-.26-2.09-.46-.51-.21-.86-.49-1.09-.88-.21-.37-.35-.86-.39-1.46-.05-.6-.05-1.32-.05-2.18v-7.75c0-.86.14-1.72.42-2.53.29-.84.72-1.63,1.28-2.32.58-.7,1.32-1.25,2.23-1.69.9-.44,2-.65,3.25-.65s2.11.25,2.79.81c.67.55,1.19,1.26,1.51,2.07.35.88.56,1.81.65,2.76.09,1,.14,1.97.14,2.92v6.71c0,.93,0,1.69-.05,2.23-.05.56-.16,1-.37,1.32-.21.32-.53.58-1,.74-.46.16-1.11.28-1.93.4-.21.02-.39.12-.49.28-.12.15-.18.34-.18.53,0,.19.07.35.18.49.09.14.26.23.44.23.74,0,1.67-.07,2.76-.19,1.14-.12,2.29-.19,3.43-.19,1.07,0,2.16.05,3.23.19,1.04.12,1.79.19,2.27.19s.39-.07.49-.23c.1-.14.16-.31.16-.49,0-.16-.07-.4-.16-.53-.09-.16-.28-.26-.49-.28-.79-.12-1.37-.23-1.79-.4-.37-.13-.69-.4-.88-.74-.19-.35-.3-.84-.32-1.44-.05-.6-.05-1.42-.05-2.41v-7.91c0-.77.19-1.56.58-2.37.84-1.73,2.22-3.14,3.95-3.99.91-.45,1.91-.68,2.92-.67,1.04,0,2.04.26,2.67.81.65.55,1.14,1.26,1.42,2.07.33.89.53,1.82.58,2.76.07,1,.12,1.97.12,2.92v6.71c0,.79,0,1.46-.05,2-.05.53-.16.97-.39,1.35-.23.37-.56.65-1.02.86-.46.21-1.14.37-2.02.47-.2,0-.39.11-.51.28-.22.3-.22.72,0,1.02.09.14.25.23.44.23.86,0,1.83-.07,2.92-.19,1.13-.12,2.27-.18,3.41-.19,1.07,0,2.16.05,3.22.19,1.04.12,1.81.19,2.28.19s.39-.07.49-.23c.11-.14.17-.31.16-.49,0-.19-.05-.4-.16-.53-.11-.16-.29-.26-.49-.28l-.09-.05h0ZM80.58,45.26c-.88-.12-1.58-.26-2.09-.46-.49-.21-.86-.51-1.09-.88-.23-.37-.35-.86-.39-1.46,0-.21,0-.42-.02-.65v-11.3c0-2.97-.86-5.1-2.55-6.41-1.69-1.28-4.04-1.93-7.01-1.93-1.25,0-2.51.16-3.74.49-1.18.33-2.23.77-3.11,1.32-.9.56-1.6,1.23-2.11,2-.53.79-.79,1.6-.79,2.46s.21,1.35.65,1.86c.42.51,1.14.77,2.13.77s1.37-.23,1.9-.67c.51-.44.77-.91.77-1.39s-.14-.76-.4-1.11c-.26-.37-.39-.74-.39-1.11,0-.79.42-1.46,1.28-1.95.86-.51,1.97-.76,3.34-.76s1.72.16,2.34.49c.61.31,1.12.77,1.49,1.35.37.63.63,1.3.74,2,.14.76.21,1.58.21,2.46v1.39c0,.63,0,1.02-.05,1.21-.02.16-.09.26-.16.26-4.76,0-8.38.67-10.86,2-2.48,1.35-3.74,3.25-3.74,5.76s.58,3.43,1.72,4.5c1.16,1.07,2.78,1.58,4.9,1.58s3.53-.26,4.8-.79c1.21-.48,2.35-1.15,3.36-1.97.14-.14.21-.09.35.05.67.72,1.07,1.04,1.88,1.49.16.09.35.19.51.23.65.26,1.3.35,2.14.46.37,0,.77.05,1.16.09,1.09.12,2.02.19,2.76.19s.39-.07.49-.23c.11-.14.17-.31.16-.49,0-.21-.05-.39-.16-.53-.11-.16-.29-.26-.49-.28l.07.02h0ZM71.76,41.41c0,.28-.14.56-.44.84-.77.6-1.6,1.07-2.53,1.35-.87.3-1.78.46-2.69.47-1.3,0-2.23-.35-2.78-1.07s-.83-1.58-.83-2.62c0-1.49.72-2.72,2.18-3.67,1.46-.95,3.71-1.56,6.78-1.79.14,0,.23.05.28.14.05.09.05.32.05.7v5.66Z"/>
</svg>