<?xml version="1.0" encoding="UTF-8"?>
<svg id="Layer_1" xmlns="http://www.w3.org/2000/svg" version="1.1" viewBox="0 0 200 88">
  <!-- Generator: Adobe Illustrator 30.2.1, SVG Export Plug-In . SVG Version: 2.1.1 Build 1)  -->
  <defs>
    <style>
      .st0 {
        fill: #b6b6b6;
      }
    </style>
  </defs>
  <path class="st0" d="M76.96,55.52c-2.18-6.24-1.41-12.08,2.15-13.49,3.56-1.41,7.85,2.82,10.03,9.06.6,1.74,1.01,3.49,1.14,5.07h4.26c.24-.97.37-1.95.37-2.99,0-7.92-5.37-12.41-11.61-12.41s-12.11,5.64-12.11,12.78c0,.91.1,1.78.24,2.62h5.77c-.07-.2-.13-.4-.23-.64ZM36.3,29.25h1.65c3.99,0,6.01,1.68,6.01,7.65,0,5.07-1.68,7.78-5.6,7.78h-2.05v-15.43ZM30.02,56.15h6.27v-11.17h2.32c5.27,0,7.11,4.63,7.11,9.4,0,.64-.03,1.21-.1,1.81h6.68c.18-.7.27-1.42.27-2.15.03-5.27-4.93-8.69-11.91-9.19,4.83-.6,10.13-3.02,10.13-8.35,0-4.23-4.3-7.08-11.14-7.51h-3.32c-1.25.03-2.51.05-3.76.07-.64,0-1.71-.03-2.65-.03v4.33M140.98,43.87c2.72,0,4.23,1.14,4.23,6.11v6.17h5.43v-7.05c.07-5.54-1.74-8.32-6.11-8.32-2.95,0-6.38,2.75-8.42,4.86v.77c1.31-1.44,3.15-2.55,4.87-2.55ZM169.3,53.64c-3.32-3.26-9.7-3.42-9.7-8.62,0-2.28,1.14-3.86,3.49-3.86,2.92,0,4.9,3.46,6.17,6.81v-6.14c-.54-.27-2.42-1.01-5.74-1.01-4.73,0-8.56,2.78-8.56,6.68,0,5.57,5.03,6.54,8.46,8.69h5.84v-2.55h.03ZM123.4,50.15c1.28-3.59,4.19-9.49,4.19-9.49-2.32.94-7.95,2.99-7.95,2.99,0,0,4.26,3.09,3.19,6.91l-1.64,5.6h.27c.84-2.62,1.58-5,1.95-6.01ZM103.97,46.56c-1.34-4.29.24-5.94.24-5.94-3.04,1.25-6.17,2.24-9.36,2.99,0,0,2.55.97,3.39,3.66.44,1.38,1.64,5.1,2.85,8.89h5.97c-1.05-3.19-2.08-6.39-3.09-9.6ZM111.02,47.87l3.29,8.29h6.01l-6.68-16.27-5.97,16.27h.33s3.02-8.29,3.02-8.29Z"/>
  <path class="st0" d="M136.12,45.69c.03-3.05.03-5.03.03-5.03,0,0-2.01,1.14-3.46,1.71-1.24.5-2.42,1.01-4.06,1.24,0,0,1.98.91,1.98,4.43v8.12h5.47v-6.51c0-1.14.03-2.22.03-3.19M69.01,40.79c-2.95,0-5.5,2.88-7.08,5.33v1.11c1.28-1.61,3.02-2.52,4.66-2.52,1.75,0,3.29,1.17,3.93,2.95v-6.54s-.5-.33-1.51-.33ZM61.93,40.62s-2.01,1.14-3.46,1.71c-1.24.5-2.42,1.01-4.06,1.24,0,0,1.98.91,1.98,4.43v8.15h5.5v-6.51c0-.84,0-1.64.03-2.42,0,0,0-6.61,0-6.61Z"/>
</svg>