<?xml version="1.0" encoding="UTF-8"?>
<svg id="Layer_1" xmlns="http://www.w3.org/2000/svg" version="1.1" viewBox="0 0 200 88">
  <!-- Generator: Adobe Illustrator 30.2.1, SVG Export Plug-In . SVG Version: 2.1.1 Build 1)  -->
  <defs>
    <style>
      .st0 {
        fill: #b6b6b6;
      }
    </style>
  </defs>
  <path class="st0" d="M46.14,36.51l-5.36,15.12h-.16l-3.81-10.3-3.65,10.29h-.16l-6.81-18.6c-.16-.46-.32-.8-.48-1.05-.16-.24-.32-.45-.51-.59-.19-.13-.56-.24-.78-.29-.24-.06-.48-.11-.72-.16v-.13c.19,0,.4,0,.59.03.24,0,.7.03.99.03s.56.03.86.03h.81c.51,0,1.02,0,1.53-.03.48,0,1.1-.03,1.39-.05v.13c-.54.05-1.13.16-1.34.32-.22.16-.32.4-.32.72,0,.19.03.4.11.62.08.24.16.51.24.75l5.17,14.26,2.63-7.61-2.55-6.97c-.16-.46-.32-.8-.48-1.05-.16-.24-.32-.45-.51-.59-.17-.13-.36-.23-.56-.29-.21-.05-.64-.11-.91-.16v-.13c3.35.05,7.75.08,11.02,0v.13c-.35.11-.86.27-1.15.46-.27.19-.54.48-.8.88-.27.4-.54.94-.83,1.61-.29.67-.62,1.53-1.02,2.63l-.64,1.8,3.38,9.33,3.97-11.47c.27-.78.51-1.58.78-2.36.19-.64.29-1.13.29-1.5,0-.4-.11-.7-.35-.91-.24-.19-.8-.35-1.31-.43v-.13c.32.03.97.03,1.56.05.59,0,1.15.03,1.66.03s.83,0,1.05-.03c.21,0,.67-.03.97-.05v.13c-.35.11-.86.27-1.15.45-.27.19-.54.48-.8.89s-.54.94-.83,1.61c-.24.64-.59,1.53-.97,2.6h0ZM37.67,36.13c.27-.78.51-1.58.78-2.36.19-.64.29-1.12.29-1.5,0-.4-.11-.7-.35-.91-.24-.19-.62-.35-1.13-.43-.54.06-.91.16-1.15.32-.22.16-.32.4-.32.72,0,.19.03.4.11.62.08.24.16.51.24.75l1.29,3.57s.24-.78.24-.78ZM24.16,35.92c.51,0,.91-.03,1.21-.05v.13c-.24.04-.47.11-.7.19-.19.06-.37.18-.51.32-.13.16-.24.4-.32.7-.08.32-.11.75-.11,1.31v16.65c0,.83-.05,1.58-.16,2.28-.11.7-.32,1.29-.64,1.8-.32.51-.75.94-1.31,1.29-.56.32-1.29.56-2.17.67l-.03-.13c.48-.08.86-.21,1.18-.35.29-.13.53-.32.7-.59.16-.24.27-.59.32-.99.05-.4.08-.94.08-1.56v-19.06c0-.56-.05-.99-.13-1.31-.06-.26-.18-.51-.35-.72-.16-.16-.35-.29-.56-.35-.23-.06-.46-.11-.7-.16v-.13c.4.03.83.03,1.23.05.51,0,1.02.03,1.56.03h1.42ZM98.15,38.6c1.05.87,1.89,1.97,2.44,3.22.56,1.29.86,2.73.86,4.34,0,1.34-.21,2.63-.64,3.86-.43,1.21-1.07,2.28-1.96,3.19-.88.91-2.01,1.64-3.35,2.17s-2.95.8-4.77.8c-.38,0-.81,0-1.26-.03-.99-.03-2.01-.03-3-.05-.51,0-.96-.03-1.37-.03-.51,0-1.07,0-1.66.03-.59,0-1.04.03-1.34.05v-.13c.29-.05.62-.11.91-.16.24-.05.46-.16.62-.32.16-.16.27-.4.35-.72s.11-.75.11-1.31v-14.93c0-.56-.05-.99-.13-1.31-.08-.32-.21-.56-.4-.7-.17-.16-.38-.27-.62-.32-.23-.06-.46-.11-.7-.16-.29.11-.54.19-.72.27-.21.08-.4.29-.54.56-.13.29-.24.72-.32,1.29-.08.56-.13,1.37-.19,2.39-.03,1.3-.06,2.61-.08,3.91,0,1.58-.03,3.51-.03,5.84v6.41h-.13l-15.79-17.59v2.49c0,2.31,0,4.26.03,5.84,0,1.58.03,2.9.08,3.91.03,1.02.08,1.82.16,2.39.08.56.19.99.32,1.29.16.29.32.51.54.59.21.11.48.21.81.32v.13c-.32-.03-.67-.03-1.02-.05-.38,0-.8-.03-1.34-.03-.48,0-.88,0-1.23.03-.35,0-.67.03-.97.05-.29-.03-.64-.03-1.07-.05-.43,0-.86-.03-1.34-.03-.51,0-.99,0-1.39.03-.4,0-.78.03-1.07.05v-.13c.46-.03.78-.13.97-.32.18-.17.27-.4.27-.64,0-.21-.03-.43-.11-.67-.06-.27-.14-.52-.24-.78l-1.63-5.23h-4.69c-.48,0-.97,0-1.45.03l-1.66,4.5c-.13.32-.24.67-.32,1.02-.08.32-.13.62-.13.88,0,.32.08.59.27.8.19.22.51.35.99.43v.13c-.32-.03-.7-.03-1.15-.05-.46,0-.94-.03-1.45-.03s-.83,0-1.07.03c-.24,0-.51.03-.8.05v-.13c.35-.08.64-.16.91-.29.24-.11.48-.32.7-.56.21-.27.46-.62.67-1.07.21-.46.48-1.1.78-1.9l6.27-16.7h.27l5.82,18.44c.13.46.24.8.32,1.05.08.27.19.46.29.59.1.13.24.24.4.29.16.05.38.11.62.13.29-.11.54-.21.75-.32.22-.11.38-.32.51-.62s.24-.72.29-1.29c.05-.56.11-1.37.16-2.39.03-1.02.05-2.33.08-3.91,0-1.58.03-3.54.03-5.84v-6.14h.19l15.74,17.48v-2.47c0-2.33,0-4.32-.03-5.9,0-1.61-.03-2.92-.08-3.97-.02-.81-.08-1.61-.19-2.41-.08-.56-.19-.99-.32-1.29s-.32-.48-.54-.59c-.25-.12-.51-.23-.78-.32v-.13c.35.03.7.03,1.02.05.38,0,.8.03,1.34.03.48,0,.91,0,1.29-.03.29,0,.56-.03.83-.03h.56c.21,0,.46.03.7.03s.48.03.72.03h.64c.86,0,1.64,0,2.33-.03.67,0,1.37-.03,2.07-.03,1.9,0,3.62.24,5.15.7,1.58.46,2.87,1.13,3.94,1.98h0ZM55.9,47.56l-2.55-8.23-3.03,8.2c.46.03.88.03,1.31.03h4.26ZM99.11,46c0-1.69-.27-3.14-.78-4.32-.51-1.21-1.21-2.17-2.09-2.92-.91-.77-1.97-1.33-3.11-1.66-1.21-.35-2.49-.51-3.86-.51-.54,0-1.07.03-1.61.05-.54.03-1.07.13-1.61.24v18.23c.7.13,1.47.21,2.33.29.83.05,1.61.11,2.28.11,1.18,0,2.28-.16,3.3-.46,1-.29,1.92-.81,2.68-1.53.75-.72,1.37-1.69,1.8-2.92.46-1.21.67-2.76.67-4.61h0ZM113.67,52.51h.13c0,.59,0,1.05-.03,1.39-.03.32-.03.62-.05.86-.03.24-.03.46-.05.67-.03.22-.03.46-.03.75-.64-.03-1.18-.03-1.64-.05-.43,0-.86-.03-1.23-.03-.4,0-1.64-.03-2.06-.03h-3.32c-.59,0-1.15,0-1.69.03-.54,0-.99.03-1.39.03s-.67.03-.83.03v-.13c.32-.05.59-.13.8-.21.19-.08.38-.24.48-.43.12-.23.2-.47.24-.72.03-.29.05-.7.05-1.18v-14.93c0-.56-.03-.99-.08-1.31-.05-.32-.16-.56-.29-.72-.14-.16-.33-.27-.54-.32-.24-.05-.51-.11-.78-.16v-.13c.27.03.7.03,1.23.05.54,0,1.31.03,2.33.03h4.15c1.21,0,2.12-.03,2.73-.05,0,.16,0,.32.03.48,0,.24.03.46.03.67,0,.32,0,.7-.03,1.15-.03.46-.05.83-.13,1.13h-.13c0-.62-.05-1.1-.19-1.42-.13-.35-.38-.59-.72-.78-.35-.19-.86-.27-1.53-.29-.64-.03-.94-.05-1.96-.05-.4,0-.43,0-.67.03-.24,0-.46.03-.62.03s-.29.03-.43.05l-.32.08v8.28c1.29,0,1.45-.03,2.17-.05.72-.03,1.29-.11,1.66-.24.38-.13.64-.35.78-.64.13-.29.27-.7.38-1.21h.13c-.03.43-.03.83-.05,1.18,0,.35-.03.83-.03,1.39v.94c0,.22,0,.46.03.67,0,.22.03.4.03.59s.03.4.03.64h-.13c-.08-.48-.21-.94-.38-1.39-.14-.34-.43-.6-.78-.72-.38-.16-.94-.24-1.66-.27-.72-.03-.89-.05-2.17-.05v9.03c.29.11,1.07.16,2.36.16,1.07,0,2.76-.03,3.43-.05.67-.03,1.18-.13,1.55-.29.38-.19.64-.46.81-.83.11-.4.24-.94.38-1.61ZM125.65,53.37c.46.64.89,1.21,1.34,1.69.46.48.91.8,1.34.94v.16c-.13.03-.24.03-.32.03h-.35c-.72-.03-1.31-.08-1.77-.21-.46-.11-.88-.4-1.31-.83-.43-.43-.89-1.1-1.39-1.96-.7-1.19-1.36-2.39-1.98-3.62-.08-.16-.19-.35-.29-.56-.11-.24-.24-.48-.38-.72-.13-.24-.27-.48-.43-.7-.16-.22-.29-.4-.46-.54h-1.77v6.43c0,.56.03.99.08,1.31.05.32.13.56.24.72.11.16.24.29.43.35.19.05.4.11.64.16v.13c-.29-.03-.64-.03-1.07-.05-.43,0-.86-.03-1.34-.03-.46,0-.91,0-1.37.03-.4,0-.75.03-1.05.05v-.13c.22-.01.44-.07.64-.16.19-.05.32-.19.43-.35.11-.16.19-.4.24-.72s.08-.75.08-1.31v-14.93c0-.46-.03-.86-.05-1.15-.02-.26-.09-.52-.21-.75-.11-.19-.24-.35-.43-.43-.2-.09-.42-.16-.64-.19v-.13c.21.03.43.03.64.05.19,0,.4.03.59.03h1.42c.43,0,.94,0,1.53-.03s1.04-.03,1.37-.03c1.05,0,1.98.13,2.82.43.8.27,1.5.67,2.06,1.15.56.48.99,1.09,1.26,1.77.29.7.43,1.42.43,2.22,0,.59-.11,1.18-.29,1.72-.19.57-.49,1.1-.89,1.56-.4.48-.91.88-1.53,1.26-.67.38-1.39.66-2.14.83.16.11.35.4.62.86.29.54.62,1.1.91,1.63.38.67.75,1.37,1.13,2.04.38.68.8,1.34,1.23,1.98ZM121.66,46.11c.64-.24,1.18-.56,1.55-.99.4-.43.67-.91.81-1.47.16-.56.21-1.18.21-1.85,0-.75-.08-1.42-.27-2.06-.19-.64-.46-1.21-.83-1.66-.36-.47-.83-.86-1.37-1.13-.59-.29-1.24-.44-1.9-.43-.32,0-.62.03-.94.05-.29.03-.67.11-1.07.22v9.68h1.34c.99.03,1.8-.11,2.47-.35ZM137.15,46.08c.62.56,1.13,1.22,1.53,1.96.4.75.62,1.64.62,2.71,0,.88-.16,1.66-.46,2.36-.29.7-.7,1.29-1.23,1.77-.53.49-1.15.87-1.82,1.13-.73.27-1.5.41-2.28.4-.46,0-.88-.03-1.23-.08-.32-.04-.65-.11-.96-.19-.29-.05-.59-.13-.88-.19-.31-.06-.62-.08-.94-.08h-.21c-.07,0-.14,0-.21.03.03-.08.03-.19.03-.32v-.4c0-.32-.03-.62-.08-.94-.06-.33-.08-.66-.08-.99,0-.29.03-.59.08-.86.05-.29.13-.62.27-.88h.13c-.03.13-.03.24-.05.35,0,.11-.03.22-.03.32,0,.56.13,1.07.38,1.53.24.43.59.8.99,1.1.4.29.86.51,1.39.67.51.16,1.04.22,1.61.22.48,0,.94-.08,1.39-.22.45-.14.86-.37,1.21-.7.35-.32.64-.7.86-1.18.21-.46.32-1.02.32-1.66,0-.94-.21-1.72-.62-2.36-.41-.67-.94-1.26-1.55-1.74-.64-.53-1.31-1.01-2.01-1.45-.71-.44-1.39-.94-2.01-1.5-.62-.54-1.14-1.17-1.55-1.88-.4-.7-.62-1.55-.62-2.57,0-.75.13-1.42.4-2.04.27-.62.62-1.15,1.07-1.58.46-.43.99-.75,1.64-.99.62-.24,1.31-.35,2.06-.35.8,0,1.47.08,2.04.22.56.16,1.13.21,1.66.21h.24c.08,0,.16,0,.24-.03-.03.29-.05.59-.08.86,0,.27-.03.59-.03.97v.78c0,.29,0,.56.03.78h-.16c-.21-1.1-.64-1.9-1.34-2.41-.7-.51-1.53-.78-2.55-.78-.43,0-.86.05-1.29.19-.39.11-.76.3-1.07.56-.32.27-.56.59-.75.97-.19.4-.27.86-.27,1.42,0,.88.21,1.64.62,2.28.4.62.91,1.18,1.53,1.69.64.51,1.31.99,2.01,1.42.72.43,1.39.94,2.04,1.5h0ZM159.91,46.11c0,1.42-.27,2.76-.78,3.99-.51,1.23-1.21,2.33-2.12,3.24-.92.94-2.01,1.69-3.22,2.2-1.23.54-2.57.8-4.02.8-1.53,0-2.92-.29-4.15-.88-1.23-.59-2.28-1.34-3.14-2.31-.86-.95-1.53-2.05-1.98-3.24-.45-1.2-.67-2.47-.67-3.75,0-1.31.24-2.6.7-3.86.47-1.23,1.15-2.36,2.01-3.35.86-.99,1.93-1.77,3.19-2.36,1.26-.59,2.68-.88,4.26-.88,1.32,0,2.62.26,3.83.78,1.19.5,2.27,1.24,3.16,2.17.91.94,1.61,2.04,2.12,3.3.56,1.29.8,2.68.8,4.15h0ZM157.37,46.27c0-1.77-.21-3.27-.64-4.53s-1.02-2.28-1.72-3.08c-.72-.81-1.53-1.4-2.41-1.77-.87-.37-1.81-.56-2.76-.56-.94,0-1.82.19-2.71.54-.88.35-1.66.94-2.36,1.72-.7.78-1.26,1.8-1.66,3.03-.43,1.23-.62,2.73-.62,4.45s.19,3.11.59,4.32.91,2.22,1.58,3c.67.78,1.45,1.37,2.33,1.74.91.38,1.88.57,2.87.56,1.01,0,2.01-.18,2.95-.56.92-.38,1.74-.98,2.39-1.74.67-.78,1.21-1.77,1.61-2.95.35-1.13.56-2.55.56-4.15h0ZM179.21,35.92c.35,0,.67-.03,1.02-.05v.13c-.27.08-.54.19-.8.29-.21.08-.4.29-.54.56-.13.29-.24.72-.32,1.29s-.13,1.37-.19,2.39c-.03,1.3-.06,2.61-.08,3.91,0,1.58-.03,3.51-.03,5.84v6.41h-.13l-15.79-17.59v2.49c0,2.31,0,4.26.03,5.85,0,1.58.03,2.9.08,3.91.03,1.02.08,1.82.16,2.39.08.56.19.99.32,1.29.16.29.32.51.54.59.21.11.48.22.8.32v.13c-.32-.03-.67-.03-1.02-.05-.38,0-.8-.03-1.34-.03-.48,0-.88,0-1.23.03-.35,0-.67.03-.96.05v-.13c.29-.11.54-.22.75-.32.21-.11.38-.32.51-.62.13-.29.24-.72.29-1.29s.11-1.37.16-2.39c.03-1.02.05-2.33.08-3.91,0-1.58.03-3.54.03-5.84v-6.14h.19l15.74,17.48v-2.47c0-2.33,0-4.32-.03-5.9,0-1.61-.03-2.92-.08-3.97-.02-.81-.08-1.61-.19-2.41-.08-.56-.19-.99-.32-1.29s-.32-.48-.54-.59c-.25-.12-.51-.23-.78-.32v-.13c.35.03.7.03,1.02.05.38,0,.8.03,1.34.03h1.31,0Z"/>
</svg>