<?xml version="1.0" encoding="UTF-8"?>
<svg id="Layer_1" xmlns="http://www.w3.org/2000/svg" version="1.1" viewBox="0 0 200 88">
  <!-- Generator: Adobe Illustrator 30.2.1, SVG Export Plug-In . SVG Version: 2.1.1 Build 1)  -->
  <defs>
    <style>
      .st0 {
        fill: #b6b6b6;
      }
    </style>
  </defs>
  <path class="st0" d="M134.75,55.8v-4.15h1.28c.64,1.66,2.35,2.74,4.19,3.27,1.92.55,4.23.66,6.21.41,1.06-.11,2.07-.52,2.9-1.19,2.04-1.71,1.33-5.01-1.23-5.72-.55-.14-1.1-.25-1.66-.32-.75-.12-4.09-.42-4.09-.42-2.32-.21-5.39-.6-7.07-2.41-.98-1.06-1.35-2.85-1.13-4.27.76-4.91,5.59-6.14,9.81-6.14,5.02,0,8.05,1.63,8.05,1.63v4.6h-.99l-.46-.57c-.3-.37-.63-.72-.97-1.05-1.06-1.01-2.43-2.08-5.34-2.08-5.22,0-7.59,2.13-7.27,4.35.26,1.83,2.13,2.33,3.68,2.56,1.47.22,2.94.31,4.4.46.96.09,1.91.24,2.85.44,1.7.38,3.39.96,4.54,2.36,1.7,2.07,1.71,5.24.18,7.4-1.98,2.78-5.91,3.02-9.03,3.02-3.77,0-7.72-1.32-8.84-2.19h0ZM72.11,46.43c0-6.38,5.17-11.56,11.56-11.56s11.56,5.17,11.56,11.56c0,6.38-5.17,11.56-11.56,11.56h0c-6.38,0-11.55-5.18-11.56-11.56h0ZM76.87,42.5c-2.58,4.47-1.64,9.88,2.11,12.04,1.81,1.04,4,1.19,6.17.4,2.18-.79,4.07-2.42,5.32-4.59,1.25-2.17,1.72-4.63,1.32-6.9-.4-2.27-1.62-4.09-3.43-5.14-1.04-.6-2.22-.91-3.42-.9-3.03,0-6.21,1.88-8.07,5.09h0ZM115.57,57.41v-1.16l1.18-.77v-18.32l-1.18-.77v-1.2h17.33v3.43h-1.65c-.27-.1-.55-.21-.78-.3-1.18-.46-2.03-.92-3.34-.92l-7.22.74v6.71l10.44-.45v3.34l-10.44-.45v7.69h6.53c3.32,0,5.66-2.42,5.68-2.44h.99v4.88s-17.54,0-17.54,0ZM95.73,57.41v-1.16l1.18-.77v-18.32l-1.18-.77v-1.2h7.63c2.14,0,4.33.16,6.25,1.2,1.89,1.06,3.39,2.68,4.29,4.65,1.11,2.37,1.36,5.1.92,7.69-.35,2.05-1.14,4.06-2.51,5.61-2.6,2.93-6.03,3.08-9.91,3.08,0,0-6.66,0-6.66,0ZM100.07,38.14v16.83s2.21,0,3.29,0c1.74,0,3.65-.35,5.09-1.36,1.37-.96,2.22-2.44,2.68-4.05,1.21-4.18.16-8.81-3.32-11.08-1.1-.72-2.54-1.08-4.04-1.08-1.27,0-2.53.25-3.71.74ZM67.05,57.42v-16.33c0-2.53-1.93-3.69-3.73-3.69s-3.81,1.15-3.81,3.69v16.33h-3.1v-19.28h-6.74v19.28h-3.14v-22.22h10.98v2.21h1.59c.18-.3.4-.58.66-.82,1.43-1.32,3.39-1.91,5.32-1.6.71.11,1.4.34,2.04.68,2.21,1.18,3.34,3.04,3.34,5.54v16.23h-3.42,0Z"/>
</svg>