<?xml version="1.0" encoding="UTF-8"?>
<svg id="Layer_1" xmlns="http://www.w3.org/2000/svg" version="1.1" viewBox="0 0 200 88">
  <!-- Generator: Adobe Illustrator 30.2.1, SVG Export Plug-In . SVG Version: 2.1.1 Build 1)  -->
  <defs>
    <style>
      .st0 {
        fill: #b6b6b6;
      }
    </style>
  </defs>
  <path class="st0" d="M44.64,35.6c-6.44,0-10.61,4.33-10.61,11.03,0,3.03,1.02,5.79,2.88,7.77,1.99,2.13,4.77,3.25,8.04,3.25,6.44,0,10.61-4.33,10.61-11.03,0-3.03-1.02-5.79-2.88-7.77-1.99-2.13-4.77-3.25-8.04-3.25h0ZM52.39,47.65c0,5-2.73,8.23-6.95,8.23-2.07,0-4.12-.97-5.64-2.65-1.2-1.33-2.63-3.74-2.63-7.61,0-5,2.73-8.23,6.97-8.23,4,0,8.25,3.6,8.25,10.27ZM63.93,43.55h-2.13c-.38,0-.55-.08-.55-.81,0-5.77,2.62-6.63,4.19-6.63.52-.01,1.02.13,1.45.42.33.2.67.4,1.29.4.95,0,1.46-.67,1.46-1.31,0-.72-.7-1.8-2.62-1.8-2.07,0-3.97.78-5.34,2.2-1.54,1.59-2.42,3.95-2.54,6.83-.03.61-.33.69-.58.69h-.79c-.77,0-1.2.72-1.2,1.21,0,.26.14.69,1.04.69,1.11,0,1.4.23,1.4,1.12v5.91c0,2.58-.13,3.18-1.56,3.65-.33.11-.65.24-.65.65,0,.22.11.49.63.49.61,0,1.28-.03,1.73-.06h.2c.27-.02.5-.03.65-.03h.8c.44,0,.8.02,1.12.03h.02c.3.02.61.03.98.03.44,0,.9-.04.9-.55,0-.42-.34-.56-.6-.62-1.2-.31-1.93-.71-1.93-3.59v-6.42c0-.44.18-.67.55-.67h1.76c.83,0,1.26-.75,1.26-1.15,0-.46-.32-.69-.95-.69h0Z"/>
  <path class="st0" d="M74.61,36.11c.52-.01,1.03.13,1.45.42.33.2.67.4,1.29.4.95,0,1.46-.67,1.46-1.31,0-.72-.7-1.8-2.62-1.8-2.07,0-3.96.78-5.34,2.2-1.54,1.59-2.42,3.96-2.54,6.83-.03.61-.33.69-.58.69h-.62c-.77,0-1.2.72-1.2,1.21,0,.26.14.69,1.04.69,1.11,0,1.23.23,1.23,1.12v5.91c0,2.58-.13,3.18-1.55,3.65-.33.11-.65.24-.65.65,0,.22.11.49.63.49.61,0,1.28-.03,1.73-.06h.2c.27-.02.5-.03.65-.03h.8c.44,0,.8.02,1.12.03h.02c.3.02.61.03.98.03.44,0,.9-.04.9-.55,0-.42-.34-.56-.6-.62-1.2-.31-1.93-.71-1.93-3.59v-6.42c0-.44.18-.67.55-.67h1.81c.83,0,1.26-.75,1.26-1.15,0-.46-.32-.69-.95-.69h-2.18c-.38,0-.55-.08-.55-.81,0-5.77,2.62-6.63,4.19-6.63h0ZM112.2,35.96c-.24,0-.47.02-.71.05-.49.05-.98.08-1.47.08h-.96c-.85,0-1.37-.04-1.78-.08-.28-.02-.52-.04-.78-.04-.59,0-.93.25-.93.69,0,.25.12.58.69.72.64.15,1.11.48,1.38.99.46.85.36,2.17-.26,3.82l-4.12,10.94c-.13.34-.24.37-.27.38-.04,0-.16-.02-.36-.39-1.15-2.14-2.19-4.33-3.11-6.58-.12-.23-.12-.51-.01-.74.52-1.34,1.09-2.67,1.71-3.97,1.31-2.77,2.11-3.64,2.75-4.34.09-.1.18-.19.26-.29.27-.3.37-.63.26-.88-.06-.12-.21-.33-.64-.33-.19,0-.34,0-.55.02-.49.03-1.31.08-3.71.09l-3.25.02c-1.78,0-2.49-.05-3.01-.08-.32-.02-.57-.04-.94-.04-.44,0-.6.2-.66.32-.11.24-.01.56.26.88.46.53,1.15,1.47,2.4,4.11.92,1.93,1.31,2.85,2.1,4.79.1.24.1.51,0,.75-.82,2.12-1.74,4.29-2.74,6.44-.11.23-.22.37-.31.37s-.2-.14-.31-.37c-1.97-4.17-3.72-8.45-5.26-12.8-.31-.88-.44-1.48-.2-1.93.25-.47.92-.82,2.15-1.12.34-.09.8-.26.8-.74,0-.44-.34-.69-.93-.69-.35,0-.77.02-1.25.05-.62.03-1.33.07-2.08.07h-1.45c-.4,0-.78-.03-1.15-.06-.37-.03-.72-.06-1.08-.06-.49,0-.81.24-.81.59,0,.33.23.54.57.78.66.45,1.51,1.8,2.54,4.03,1.82,3.98,4.05,9.23,6.12,14.42.51,1.27,1.05,1.79,1.88,1.79s1.23-.65,1.7-1.78c.84-2.06,1.83-4.43,2.85-6.38.11-.2.22-.31.31-.31s.2.12.3.31c1.05,2.08,2.01,4.21,2.88,6.38.56,1.42.92,1.79,1.73,1.79.69,0,1.19-.53,1.67-1.79l5.14-13.38c1.62-4.2,2.45-4.82,2.89-5.15.26-.19.48-.37.48-.71s-.28-.58-.72-.58h0ZM99.72,41.03c-.33.86-.7,1.72-1.09,2.55-.09.19-.19.3-.3.3-.11,0-.23-.11-.33-.31-.53-1.02-.97-2.08-1.32-3.17-.33-1.06-.31-1.89.06-2.39.29-.4.81-.6,1.53-.6.82,0,1.39.22,1.68.65.4.59.32,1.59-.23,2.97ZM128.13,55.96c-1.5-.4-1.87-.85-1.87-3.48,0-.72.01-1.5.02-2.25.01-.75.02-1.52.02-2.23,0-2.37-1.84-4.93-4.81-4.93-1,0-1.68.22-2.82.9-.21.13-.41.16-.54.08-.14-.08-.2-.25-.2-.51v-2.7c0-4.49.27-5.58.41-6.11.04-.14.07-.29.07-.43.02-.24-.11-.48-.33-.58-.31-.14-.76-.03-1.13.28-.73.62-1.6,1.06-2.54,1.27-.43.08-.67.3-.67.62,0,.27.16.43.42.63l.14.11c.84.63,1.31.98,1.34,4.21v11.64c0,2.58-.14,3.18-1.57,3.65-.33.11-.65.25-.65.65,0,.18.08.49.63.49.58,0,1.22-.03,1.74-.06.36-.02.66-.03.86-.03h.79c.44,0,.79.03,1.12.05.32.02.63.04,1.01.04.47,0,.9-.07.9-.55,0-.39-.3-.53-.59-.62-1.21-.37-1.94-.8-1.94-3.62v-5.09c0-1.55.83-2.28,2.6-2.28,1.93,0,3.34,1.75,3.34,4.16v3.21c0,2.46-.34,3.18-1.71,3.65-.46.15-.74.27-.74.65,0,.15.07.49.72.49.59,0,1.06-.03,1.43-.06.26-.02.49-.03.68-.03h.88c.43,0,.93.03,1.41.06.46.03.9.05,1.27.05.62,0,.93-.21.93-.63,0-.35-.21-.59-.61-.7ZM133.53,40.06c1.1,0,1.89-.78,1.89-1.86s-.76-1.75-1.89-1.75-1.89.7-1.89,1.75c0,1.11.76,1.86,1.89,1.86ZM146.05,43.67h-2.59c-1.49,0-1.6-.18-1.6-1.3v-3.49c0-.77-.33-1.15-.66-1.17-.28-.02-.65.21-.76.93-.67,3.72-1.47,4.71-3.01,5.52l-.04.02c-.57.31-.95.51-.95.87,0,.55.53.55,1.26.55,1.52,0,1.72.38,1.72,1.87,0,.41-.04,1.17-.09,2.05-.07,1.22-.15,2.75-.15,3.89,0,1.3.43,2.37,1.25,3.07.73.63,1.72.96,2.88.96,1.92,0,3.14-1.38,3.14-2.32.01-.14-.05-.27-.16-.35-.09-.06-.24-.1-.49,0-.41.16-.82.28-1.76.28-1.14,0-2.29-.59-2.29-1.9v-6.54c0-.64.37-1.03.99-1.03h1.63c1.3,0,2.4-.6,2.4-1.31,0-.23-.09-.62-.72-.62h0ZM163.37,35.96c-.08,0-.16,0-.23.02-.23.03-.66.1-2.37.1-2.02,0-2.51-.08-2.74-.12-.07-.01-.15-.02-.22-.02-.32,0-.52.22-.52.57,0,.13,0,.31.02.54.02.42.06,1.06.06,1.95,0,.42.22.67.58.67.33,0,.6-.27.6-.6,0,0,0-.01,0-.02,0-1.24.47-1.81.9-1.81.32,0,.35.06.37.31l-.04,3.46c0,1.18-.55,1.39-.97,1.44-.39.07-.6.35-.6.58,0,.25.15.48.38.57.08.03.16.04.24.03.23,0,.39-.01.58-.03.24-.02.5-.04,1.02-.04s.83.02,1.09.04c.19.01.36.02.58.02.26.02.51-.13.62-.37.03-.08.05-.16.05-.25,0-.14-.06-.48-.64-.56-.39-.04-.91-.23-.9-1.44l.07-3.51c0-.19.08-.26.28-.26.41,0,.96.17.96,1.68,0,.59.41.65.58.65.28,0,.61-.17.61-.64s.03-1.12.05-1.6v-.06c.01-.33.02-.61.02-.75,0-.41-.13-.57-.47-.57h0ZM173.57,42.4c-.78-.24-.84-.4-.84-1.38v-2.19c0-1.19.08-1.28.79-1.64.35-.19.56-.35.56-.65,0-.33-.23-.53-.6-.53-.1,0-.22,0-.38.02-.21.02-.43.03-.64.04h-1.15c-.27,0-.51.16-.61.4l-1.24,2.69s-.03.04-.04.04-.03-.01-.04-.05l-1.37-2.75c-.11-.2-.31-.34-.54-.35h-1.13c-.3,0-.57-.02-.8-.04-.18-.01-.33-.03-.46-.03-.38,0-.61.2-.61.53s.27.45.59.58c.88.34,1.01.46,1.01,1.54v2.28c0,1.3-.1,1.37-.97,1.58-.39.1-.52.34-.52.53,0,.36.25.59.64.59.12,0,.29-.01.48-.03.24-.02.51-.04.76-.04h.41c.29,0,.59.02.83.04.22.02.4.03.56.03.43,0,.7-.25.7-.66,0-.29-.18-.49-.55-.59-.93-.2-1-.37-1-1.44v-2.4c0-.06,0-.12.04-.18.03,0,.05.01.13.16l.89,1.76c.38.74.52,1.02.94,1.02s.56-.3.84-.9l.93-1.97c.07-.15.09-.15.15-.15.04,0,.07.07.07.22v2.51c0,1.18-.14,1.23-.93,1.51l-.09.03c-.36.1-.58.3-.58.53,0,.35.27.56.69.56.22,0,.48-.02.73-.03.2-.01.42-.03.57-.03h.42c.24,0,.5.02.72.03.18.01.36.03.5.03.43,0,.7-.26.7-.67,0-.27-.18-.47-.55-.58ZM82.94,47.81h-6.05c-.61,0-.93.84-.93,1.63,0,.5.09,1.07.78,1.07h6.05c.61,0,.97-.57.97-1.57,0-.7-.14-1.13-.81-1.14ZM136.56,56.13c-1.3-.42-1.91-.91-1.94-3.65l-.03-4.46c0-1.41.07-2.64.12-3.38.02-.34.04-.59.04-.72v-.38c0-.48-.29-.81-.72-.81-.52,0-.77.29-1.09.75-.48.78-1.17,1.19-1.98,1.67-.25.14-.43.41-.43.64,0,.18.09.44.52.65.88.36,1.21,1.15,1.26,3.01v3.04c0,2.53-.19,3.23-1.63,3.65-.48.12-.75.27-.75.65,0,.18.09.49.72.49.57,0,1.21-.03,1.73-.06.36-.02.67-.03.87-.03h.88c.37,0,.74.02,1.11.06.32.03.63.06,1,.06.31,0,.95,0,.95-.55,0-.45-.47-.58-.62-.62h0ZM158.24,46.82c-.74-2.37-2.64-3.72-5.22-3.72-3.57,0-6.26,3.15-6.26,7.34,0,2.28.7,4.17,2.01,5.47,1.15,1.13,2.71,1.76,4.32,1.75,2.55,0,4.68-1.51,5.3-3.76.03-.13.05-.26.05-.4,0-.29-.13-.51-.35-.57-.18-.05-.45.01-.67.36-.78,1.22-2.12,1.95-3.56,1.97-2.14,0-4.44-1.38-4.44-5.25,0-.34.05-.54.16-.65.17-.17.54-.17,1.16-.16h.35c.72,0,1.48,0,2.36-.01,1.24,0,2.64-.02,4.47-.02.57,0,.95-.32.95-.8,0-.25-.1-.49-.26-.69-.15-.2-.25-.38-.4-.84h0ZM149.95,47.41c-.05-.06-.1-.17-.04-.41.22-.8.91-2.15,3.07-2.15,1.36,0,2.43.88,2.43,2.01,0,.66,0,.84-2.77.84h-.3c-1.31,0-2.17,0-2.4-.29Z"/>
</svg>