<?xml version="1.0" encoding="UTF-8"?>
<svg id="Layer_1" xmlns="http://www.w3.org/2000/svg" version="1.1" viewBox="0 0 200 88">
  <!-- Generator: Adobe Illustrator 30.2.1, SVG Export Plug-In . SVG Version: 2.1.1 Build 1)  -->
  <defs>
    <style>
      .st0 {
        fill: #b6b6b6;
        fill-rule: evenodd;
      }
    </style>
  </defs>
  <path class="st0" d="M67.26,50.08l-1.26,1.04-1.08-1.1v-16.75l-4.43,3.43.88.93v12.27l-.96.87,2.74,3.09,4.31-3.54-.2-.26s0,0,0,0ZM46.01,38.7l-1.48,1.2v9.27l-3.02,2.37-2.92,2.35-1.53-1.15v3.09c.8-.26,1.54-.64,2.21-1.15l.16.07c-.55,1.02-1.31,1.94-2.37,2.5v1.5l-3.51,1.19v-2.4c-.9-.34-1.6-.95-2.11-1.51-2.78-3.07-1.11-7.45,2.11-8.38v-5.74l-2.79,2.17-.2-.26,2.98-2.32v-2.95h-1.58c-.88,0-1.07-.87-1.23-1.66-.16-.79,0-2.75,0-2.75l.21-.03c-.04.69.34.9.56.94.22.04,3.6-.18,4.33-.24.74-.06,1.21.53,1.21.97s0,1.51,0,1.51v1.48l3.17-2.46,1.93-1.56,3.86,3.97h0ZM33.54,50.21c-1.44-.19-3.11-.02-3.17,1.78-.06,1.96,1.3,3.42,3.17,3.93,0,0,0-5.71,0-5.71ZM38.36,38.15l-1.31,1.02v8.82l1.31,1.04v-10.88ZM38.68,37.9v11.38l2.34,1.85v-12.09l-1.66-1.67-.68.53s0,0,0,0ZM58.49,50.95l1.03-.87.21.25-4.15,3.54-2.24-2.1v-1.34l-4.13,3.44-2.22-2.1v-10.65l3.51-1.58,2.73-1.24,3.49,2.68,1.24-.99.2.26-1.31,1.05v8.41l1.65,1.25ZM50.48,49.73l1.65,1.29,1.19-1.01v-6.88l-2.84-2.17v8.76s0,0,0,0ZM136.43,50.43v-9.14s1.31-1.05,1.31-1.05l-.2-.26-1.25,1-3.49-2.68-2.73,1.23-1.16.53h-.01s-2.34,1.1-2.34,1.1v10.6l2.02,1.91-3.56,3.03.21.25c1.41,0,3.09,1.24,4.24,2.88l.27.17s1.32-2.13,4.56-2.81c1.72-.3,3.81-1.19,3.81-3.59,0-.61-.34-.91-.72-1.24-.46-.4-.97-.85-.97-1.95ZM130.07,49.73v-8.73l2.84,2.15v6.87s-1.19,1-1.19,1l-1.66-1.29h0ZM134.22,56.89c-.92.19-1.8.53-2.61,1l-.03-.05c-.31-.53-1.45-2.42-4.61-2.35l5.95-5.05v1.9c0,.55.06,1.19,1.11,1.86.97.61,1.37,1.99.19,2.69h0ZM149.68,48.33l.2.26-6.54,5.28-3.51-3.3-1.09.87-.2-.26,1.15-.92v-8.05l3.51-2.09v7.53l3.15-2.51-3.15-5.01,2.99-1.81,2.93,4.92h0s.05.07.05.07l-5.97,4.77v.6l2.72,2.67,3.75-3.01h0ZM156.36,51.12l1.26-1.04.2.26-4.3,3.54-2.74-3.09.96-.87v-12.27l-.88-.93,4.43-3.43v16.75l1.07,1.1h0ZM169.4,45.74l-2.52-2.31c2.77-2.91,2.27-5.17,2.25-5.27-.04-.2-.1-.4-.19-.58,0,0-.33,1.98-1.94,1.98-.81,0-1.84-1.01-2.02-1.18l-.04-.04-3.47,2.2-2.52,1.52v3.37h0s0,0,0,0l2.61,2.55c-.79.74-1.41,1.33-1.79,1.7-.7.48-1.26,1.25-1.26,2.49,0,2.82,2.88,2.94,2.88,2.94-2.36-.9-1.21-2.58,0-2.58s2.1,1.37,2.1,1.37l2.53-1.68,3.38-2.04v-4.42h0ZM162.51,44v-3.74h0c.34.52,1.57,2.19,3.34,2.19.84,0,1.64-.49,2.26-1.19-.43.77-1.08,1.64-2.1,2.57-.65.6-1.29,1.19-1.9,1.76l-1.6-1.59h0ZM162.17,48.93c-.26,0-.82.06-1.42.26.85-.81,2.1-1.98,3.5-3.29l1.6,1.39v4.49c-1.16-2.6-3-2.85-3.68-2.85ZM109.48,50.95l1.03-.88.21.25-4.15,3.54-1.47-1.4-1.44-5.35h-4.83l-.45,1.64h.05c1.93,0,3.53,1.75,3.53,1.75l-2.17,3.48c-.44-.87-1.3-1.77-2.57-2.06-.68-.16-2.34-.22-2.34,1.41,0,1.88,1.26,2.92,3.93,2.92,2.96,0,3.74-1.96,3.95-3.28h.25s.13,4.85-4.16,4.85c-2.68,0-4.29-2.29-4.29-4.56,0-1.8.73-4.29,3.5-4.51l3.04-11.01c-.41-.98-1.31-2.58-2.88-2.58-1.96,0-2.38,1.54-2.38,2.32,0,.99.68,1.76,2.02,1.76,1.48,0,1.92-1.44,1.92-1.44h.21s.28,2.54-1.94,2.71c-2.29.17-2.55-1.94-2.55-2.77,0-1.22.68-3.37,3.9-3.37,2.74,0,4.33,1.24,5.04,2.4l.71-1.93.3.12-.81,2.19c.04.1.08.19.11.28l3.39,12.48,1.38,1.04h0ZM101.25,38.27l-1.79,6.5h3.55l-1.69-6.26s-.02-.09-.07-.24ZM88.69,50.08l-1.26,1.04-1.08-1.1v-8.56l1.42-1.14-.2-.26-1.37,1.09-2.57-2.61-.23-.24-3.63,2.9-2.62-2.66-.23-.24-3.54,2.82-2.54-2.59-.23-.24-4.22,3.37.2.26,1.31-1.04,2.1,2.13v6.88l-.96.87,3.04,3.09,2.63-2.67-1.16-1.18v-8.6l.66-.53,2.11,2.14v6.88l-.96.87,3.04,3.09,2.63-2.67-1.16-1.18v-8.47l.82-.65,2.11,2.14v6.87l-.96.87,2.74,3.09,4.31-3.54-.2-.26h0ZM123.84,51.12l1.26-1.04.2.26-4.31,3.54-2.74-3.09.96-.87v-6.91l-2.07-2.1-.86.68v8.44l1.16,1.18-2.63,2.67-3.04-3.09.96-.87v-6.91l-2.07-2.1-1.31,1.04-.2-.26,4.22-3.37.23.24,2.62,2.66,3.63-2.9.23.24,2.54,2.58,1.36-1.09.2.26-1.42,1.14v8.59s1.08,1.1,1.08,1.1Z"/>
</svg>