<?xml version="1.0" encoding="UTF-8"?>
<svg id="Layer_1" xmlns="http://www.w3.org/2000/svg" version="1.1" viewBox="0 0 200 88">
  <!-- Generator: Adobe Illustrator 30.2.1, SVG Export Plug-In . SVG Version: 2.1.1 Build 1)  -->
  <defs>
    <style>
      .st0 {
        fill: #b6b6b6;
      }
    </style>
  </defs>
  <path class="st0" d="M191,52.33h-2.78v-9.93h2.68v1.84c.52-1.37,1.51-2.07,2.78-2.07h.42v2.78h-.66c-1.51,0-2.45.99-2.45,2.59v4.8ZM177.63,46.35h4.28c-.09-.99-.89-2.02-2.07-2.02s-2.02.75-2.21,2.02h0ZM179.7,52.61c-2.96,0-4.99-2.12-4.99-5.22s1.98-5.27,4.99-5.27,4.99,2.12,4.99,5.27v.8h-7.06c.1,1.03.75,2.21,2.21,2.21.85,0,1.55-.42,1.88-1.13l2.73.24v.05c-.66,1.93-2.4,3.06-4.75,3.06h0ZM168.22,52.34h2.78v-14.49h-2.78v14.49ZM158.2,52.62c-2.12,0-3.43-1.32-3.43-3.48v-6.73h2.78v6.07c0,1.69,1.18,1.88,1.65,1.88,1.04,0,1.74-.89,1.74-2.26v-5.65h2.78v9.93h-2.68v-1.27c-.71,1.03-1.6,1.51-2.82,1.51ZM146.24,44.42c-1.32,0-2.07,1.08-2.07,2.92s.75,2.92,2.07,2.92,2.07-1.08,2.07-2.92-.8-2.92-2.07-2.92ZM146.24,52.61c-2.96,0-4.99-2.12-4.99-5.22s1.98-5.27,4.99-5.27,4.99,2.12,4.99,5.22-2.02,5.27-4.99,5.27ZM137.68,52.34h-2.78v-6.02c0-1.69-1.18-1.83-1.65-1.83-1.04,0-1.74.89-1.74,2.26v5.65h-2.78v-14.54h2.78v5.83c.66-1.03,1.55-1.51,2.73-1.51,2.12,0,3.43,1.32,3.43,3.48v6.68ZM120.5,52.61c-3.01,0-4.8-1.93-4.8-5.13s1.88-5.36,4.75-5.36c3.06,0,4.28,2.07,4.42,3.95v.05h-.05l-2.87.09v-.05c-.05-1.36-.85-1.69-1.51-1.69-1.22,0-1.83.99-1.83,3.01,0,.66.14,2.73,1.83,2.73,1.18,0,1.55-.85,1.65-1.6v-.05l2.73.09v.05c-.33,1.84-1.36,3.91-4.33,3.91ZM107.33,52.61c-4.85,0-5.41-3.2-5.41-4.56v-.05l2.87-.05v.05c0,1.88,1.74,2.07,2.54,2.07.94,0,2.26-.47,2.26-1.55,0-.71-.24-1.13-1.69-1.65l-3.06-1.13c-1.65-.61-2.68-2.02-2.68-3.67s1.04-4.52,4.94-4.52c5.03,0,5.08,3.9,5.08,4.05v.05l-2.92.05v-.05c0-.89-.85-1.55-2.02-1.55-1.36,0-2.21.61-2.21,1.55s.89,1.41,1.6,1.69l2.59.85c2.21.71,3.25,1.98,3.25,4,0,.52-.09,1.79-1.13,2.92-.89.99-2.31,1.51-4,1.51h0ZM86.68,48.04l-2.21.19c-1.13.09-1.6.47-1.6,1.18,0,.94.89,1.13,1.65,1.13.89,0,2.16-.52,2.16-1.65,0,0,0-.85,0-.85ZM83.48,52.61c-1.6,0-3.43-.8-3.43-3.06,0-.71,0-2.82,4.14-3.06l2.45-.14v-.42c0-1.08-.66-1.69-1.83-1.69-1.04,0-1.74.52-1.79,1.41v.05h-2.68v-.05c.05-.8.52-3.48,4.56-3.48,2.78,0,4.42,1.22,4.42,3.25v5.74c0,.52.05.89.14,1.22v.05h-2.68v-1.27c-.99,1.18-2.35,1.46-3.29,1.46ZM76.05,52.33h-8.24v-2.07l4.66-5.6h-4.42v-2.31h7.95v2.07l-4.61,5.6h4.61s.05,2.31.05,2.31ZM63.58,52.33h-2.78v-6.02c0-1.69-1.13-1.83-1.65-1.83-1.03,0-1.74.89-1.74,2.26v5.65h-2.78v-9.98h2.68v1.27c.75-1.03,1.6-1.51,2.87-1.51,2.17,0,3.44,1.32,3.44,3.48,0,0-.05,6.68-.05,6.68ZM43.58,46.35h4.28c-.09-.99-.85-2.02-2.07-2.02s-2.02.75-2.21,2.02h0ZM45.65,52.61c-2.96,0-4.99-2.12-4.99-5.22s1.98-5.27,4.99-5.27,4.99,2.12,4.99,5.27v.8h-7.06c.09,1.03.75,2.21,2.21,2.21.85,0,1.55-.42,1.88-1.13l2.73.24v.05c-.66,1.93-2.4,3.06-4.75,3.06h0ZM32.28,44.42c-1.32,0-2.07,1.08-2.07,2.92s.8,2.92,2.07,2.92,2.07-1.08,2.07-2.92-.75-2.92-2.07-2.92ZM32.28,52.61c-2.96,0-4.99-2.12-4.99-5.22s2.02-5.27,4.99-5.27,4.99,2.12,4.99,5.22-1.98,5.27-4.99,5.27ZM21.32,52.33h-2.78v-9.93h2.68v1.84c.52-1.37,1.51-2.07,2.78-2.07h.42v2.78h-.66c-1.51,0-2.45.99-2.45,2.59v4.8h0ZM9.04,44.52h1.55c1.98,0,2.26-1.32,2.26-2.07,0-.99-.71-2.07-2.26-2.07h-1.55v4.14h0ZM9.04,52.34h-2.92v-14.49h4.66c1.18,0,4.94.33,4.94,4.61,0,3.39-2.54,4.61-4.71,4.61h-1.98v5.27h0Z"/>
</svg>