<?xml version="1.0" encoding="UTF-8"?>
<svg id="Layer_1" xmlns="http://www.w3.org/2000/svg" version="1.1" viewBox="0 0 200 88">
  <!-- Generator: Adobe Illustrator 30.2.1, SVG Export Plug-In . SVG Version: 2.1.1 Build 1)  -->
  <defs>
    <style>
      .st0 {
        fill: #b6b6b6;
      }
    </style>
  </defs>
  <path class="st0" d="M48.62,49.31h3.12c2.01,0,4.03-.14,5.32-2.17,1.44-2.36,1.49-9.97.14-12.28-1.63-2.85-7.05-2.26-8.54-2.26v16.71h-.05ZM49.43,32.05c4.8,0,9.3.5,12.28,4.85,1.53,2.22,1.39,5.57.24,8.06-1.78,3.71-7.19,4.67-9.45,4.71-1.53.05-2.69.05-3.88.05v10.78h3.21v.5h-11.13v-.5h3.26v-27.95h-3.26v-.5s8.73,0,8.73,0ZM151.11,32.55h-3.12v-.5h10.65v.5h-3.07v27.95h3.07v.5h-10.65v-.5h3.12v-27.95ZM87.56,32.59h-2.88v-.5h6.28v.5h-2.88v18.84c-.05,2.67.53,7.29-3.89,9.1-2.49,1.09-7.15,1.36-10.02-.32-4.12-2.26-4.32-4.76-4.32-8.79v-18.84h-3.17v-.5h10.89v.5h-3.17v19.93c0,2.99-.05,5.93,3.26,7.75,1.68.91,4.94.32,6.24-.27,4.12-1.72,3.64-6.25,3.69-8.61v-18.8s-.05,0-.05,0ZM116.05,51.03c-.14,1.04-.29,7.61-6.24,9.83-3.26,1.27-7.24.23-10.74-2.58-4.46-3.58-5.42-9.06-5.13-12.96.29-4.39,2.88-10.24,8.3-12.64,1.39-.63,3.36-1.18,4.8-1.09,2.11.14,3.31.82,5.37,1.54,1.06.41,1.39.27,1.92-.27.53-.5.62-.91.77-1.31h.53v11.37h-.53c-.14-1.99-.29-5.39-2.97-8.38-.86-.95-1.87-1.54-3.21-2.13-1.06-.45-3.4-.68-4.94.18-3.69,2.08-4.46,5.62-4.65,9.87-.14,3.62-.14,4.76.1,7.56.43,4.39,1.39,8.33,5.08,10.19,1.49.72,3.93.54,5.51-.18,3.98-1.86,5.28-5.84,5.47-9.1M142.9,51.03c-.14,1.04-.29,7.61-6.24,9.83-3.26,1.27-7.24.23-10.74-2.58-4.46-3.58-5.42-9.06-5.13-12.96.29-4.39,2.88-10.24,8.3-12.64,1.39-.63,3.36-1.18,4.8-1.09,2.11.14,3.31.82,5.37,1.54,1.05.41,1.39.27,1.92-.27.53-.5.62-.91.77-1.31h.53v11.37h-.53c-.14-1.99-.29-5.39-2.97-8.38-.86-.95-1.87-1.54-3.21-2.13-1.05-.45-3.4-.68-4.94.18-3.69,2.08-4.46,5.62-4.65,9.87-.14,3.62-.14,4.76.1,7.56.43,4.39,1.39,8.33,5.08,10.19,1.49.72,3.93.54,5.52-.18,3.98-1.86,5.27-5.84,5.47-9.1"/>
</svg>