<svg xmlns="http://www.w3.org/2000/svg" width="200" height="88" fill="none"><path fill="#96A1BC" fill-rule="evenodd" d="M52.95 36.493a4.155 4.155 0 0 1 2.737-1.013c2.28 0 3.903 1.166 4.815 3.497.66 1.572 1.065 4.461 1.065 7.503 0 3.345-.406 6.083-1.065 7.502-1.013 2.18-2.94 3.447-5.17 3.447-2.332 0-4.106-1.166-5.17-3.346-.66-1.368-1.014-3.801-1.014-7.147V32.083c0-.253 0-.557.253-.76.152-.203.406-.203.608-.203h1.166c.203 0 .457 0 .66.152.253.254.253.507.253.76v5.12c0 .152 0 .203.05.203l.153-.152c.05-.101.304-.406.659-.71Zm2.433 18.198c.861 0 1.622-.354 2.129-1.064.81-1.065 1.166-3.396 1.166-7.147 0-3.65-.406-6.083-1.166-7.097-.507-.71-1.166-1.065-2.13-1.065-.506 0-1.47.102-2.179 1.065-.811 1.115-1.166 3.345-1.166 7.502 0 3.549.355 5.678 1.166 6.742a2.742 2.742 0 0 0 2.18 1.064Zm111.061-23.57h-1.166c-.203 0-.456 0-.608.202-.254.203-.254.507-.254.76v24.23c0 .254 0 .558.254.761.203.203.405.203.608.203h1.166c.202 0 .456 0 .608-.203.217-.174.211-.384.205-.6a3.948 3.948 0 0 1-.002-.11v-24.23c0-.253 0-.558-.253-.76-.102-.254-.356-.254-.558-.254Zm5.123 4.51H170.4c-.202 0-.456 0-.608.203-.253.203-.253.507-.253.76v19.72c0 .253 0 .557.253.76.204.203.406.203.608.203h1.167c.202 0 .456 0 .608-.203.217-.174.211-.384.204-.6l-.001-.11V36.646c0-.254 0-.558-.254-.76-.152-.204-.355-.254-.557-.254Zm-1.825-1.317c.202.202.406.202.608.202h1.166c.203 0 .456 0 .608-.202.217-.174.212-.385.205-.601a3.948 3.948 0 0 1-.002-.109v-1.52c0-.254 0-.558-.254-.761-.101-.203-.304-.203-.506-.203H170.4c-.202 0-.456 0-.608.203-.253.203-.253.507-.253.76v1.47c0 .254 0 .507.203.76ZM73.122 50.28h1.013c.355 0 .609.051.71.203.17.17.162.447.155.682l-.003.13c-.05.557-.253 1.773-.71 2.686-1.064 2.18-2.99 3.447-5.22 3.447-2.991 0-4.512-1.876-5.272-3.447-.66-1.369-1.065-4.106-1.065-7.503 0-3.345.355-6.083 1.065-7.502.76-1.571 2.331-3.447 5.271-3.447 2.383 0 4.36 1.267 5.272 3.447.355.76.558 1.926.608 2.99.051.559 0 .964-.152 1.217-.101.254-.304.457-.659.76l-7.806 5.577-.07.063c-.095.083-.247.216-.285.292-.075.113-.066.255-.057.404.003.05.007.102.007.153.202 1.47.557 2.535 1.013 3.143a2.742 2.742 0 0 0 2.18 1.065h.05c.913 0 1.674-.355 2.18-1.065.457-.659.76-1.47.862-2.382v-.051c.01-.05.018-.098.026-.147.032-.203.064-.4.228-.563.202-.152.456-.152.659-.152Zm-7.35-4.106c0 .152.05.304.1.304.102 0 .254-.05.457-.202l5.373-3.904.076-.055c.152-.112.228-.168.228-.3v-.608c-.05-.81-.304-1.622-.608-2.078-.507-.71-1.216-1.065-2.078-1.065h-.152c-.507 0-1.47.102-2.18 1.065-.862 1.115-1.318 3.599-1.216 6.843Zm-30.364-8.668v-.912c0-.254 0-.507-.202-.71-.203-.203-.507-.253-.76-.253h-.102c-3.396 0-5.627 2.788-5.627 7.046v13.636c0 .253 0 .507.254.76.202.203.405.203.608.203h1.166c.203 0 .456 0 .608-.203.253-.203.253-.456.253-.76V42.576c0-2.534 1.014-3.954 2.84-4.106h.1c.254 0 .508-.05.71-.253.152-.253.152-.456.152-.71Zm.81 1.42c.761-1.572 2.333-3.448 5.273-3.448 2.23 0 4.207 1.318 5.272 3.447.658 1.42 1.064 4.157 1.064 7.503 0 3.345-.355 6.083-1.064 7.502-1.065 2.18-2.991 3.447-5.272 3.447-2.991 0-4.512-1.876-5.272-3.447-.66-1.369-1.065-4.106-1.065-7.502 0-3.346.355-6.083 1.065-7.503ZM41.44 54.64c.558 0 1.52-.102 2.23-1.065.811-1.014 1.217-3.498 1.116-7.097 0-3.65-.406-6.083-1.166-7.096 0 0-.66-1.065-2.18-1.065-1.47 0-2.18 1.065-2.18 1.065-.81 1.064-1.166 3.295-1.166 7.096 0 3.752.355 6.033 1.166 7.097a2.742 2.742 0 0 0 2.18 1.065Zm47.901-17.083v-.963c0-.254 0-.507-.203-.71a.909.909 0 0 0-.659-.253h-1.318a.387.387 0 0 1-.253-.102.387.387 0 0 1-.102-.253v-2.484c0-.254 0-.558-.253-.76-.203-.203-.405-.203-.608-.203h-1.166c-.203 0-.456 0-.608.202-.254.203-.254.507-.254.76v23.47c0 .254 0 .559.254.761.202.203.405.203.608.203h1.166c.203 0 .456 0 .608-.203.217-.173.211-.384.205-.6l-.002-.11V38.826c0-.101.05-.203.101-.253.05-.102.152-.102.254-.102h1.318c.253 0 .507 0 .659-.253.253-.203.253-.456.253-.66Zm28.338 12.723h1.014c.354 0 .608.051.862.203.17.17.161.447.155.682a2.913 2.913 0 0 0-.003.13c-.051.557-.254 1.773-.71 2.686-1.065 2.18-2.991 3.447-5.221 3.447-2.991 0-4.512-1.876-5.272-3.447-.659-1.369-1.064-4.106-1.064-7.503 0-3.345.354-6.083 1.064-7.502.76-1.571 2.332-3.447 5.272-3.447 2.787 0 4.511 1.774 5.221 3.447.43 1.053.545 2.107.599 2.605l.009.082c.051.253.051.608-.152.81-.152.204-.456.204-.76.204h-.913c-.253 0-.557 0-.709-.152-.152-.102-.203-.254-.254-.71-.152-1.014-.406-1.825-.862-2.433-.507-.71-1.216-1.116-2.128-1.116h-.051c-.456 0-1.47.102-2.231 1.116-.811 1.064-1.216 3.345-1.216 7.096 0 3.7.405 6.033 1.216 7.097a2.743 2.743 0 0 0 2.18 1.065h.051c.912 0 1.672-.355 2.179-1.065.406-.608.71-1.47.812-2.433 0-.253.05-.507.253-.71.152-.152.406-.152.659-.152Zm39.132-11.557c-.76-2.028-2.737-3.194-5.272-3.194-2.382 0-4.309 1.267-5.221 3.447-.435 1.043-.571 2.05-.633 2.507l-.026.18-.003.129c-.007.234-.015.512.155.682.152.152.456.203.761.203h.912c.253 0 .557 0 .76-.203.169-.168.197-.336.231-.533l.022-.126v-.05c.153-1.116.406-1.876.761-2.383.76-1.014 1.926-1.116 2.382-1.116.406 0 1.471.102 2.129.862.305.406.457.811.457 1.42 0 1.419-.963 2.129-1.47 2.483-.28.21-.631.42-1.038.662-.184.11-.379.226-.585.352a42.163 42.163 0 0 0-2.636 1.622c-3.244 2.23-3.649 4.512-3.649 6.489 0 1.673.609 3.041 1.724 3.954.963.81 2.331 1.267 3.852 1.267 1.318 0 2.535-.406 3.497-1.166l.102-.05c.101-.102.203-.153.253-.153.051 0 .051.152.051.203v.152c0 .254 0 .558.253.76.204.203.406.203.609.203h1.166c.202 0 .456 0 .608-.202.217-.174.211-.385.205-.601l-.002-.071v-14.13c.05-.811.05-2.535-.355-3.6Zm-2.484 12.166c0 1.166-.406 2.129-1.115 2.838a3.716 3.716 0 0 1-2.484.963h-.152c-1.267-.05-1.875-.507-2.18-.912a2.792 2.792 0 0 1-.608-1.774c0-1.521.608-2.636 2.078-3.903.74-.642 2.104-1.475 3.018-2.033l.075-.046c.152-.101.557-.355.557-.355.355-.253.608-.355.71-.355.101 0 .101.254.101.457v5.12ZM90.103 38.926c.76-1.571 2.332-3.447 5.272-3.447 2.23 0 4.207 1.318 5.271 3.447.659 1.42 1.065 4.157 1.065 7.503 0 3.345-.355 6.083-1.065 7.502-1.064 2.18-2.99 3.447-5.271 3.447-2.991 0-4.512-1.876-5.272-3.447-.66-1.369-1.065-4.106-1.065-7.502 0-3.346.355-6.083 1.065-7.503Zm5.22 15.715c.559 0 1.522-.102 2.231-1.065.811-1.014 1.217-3.498 1.115-7.096 0-3.65-.405-6.083-1.165-7.097a2.742 2.742 0 0 0-2.18-1.065c-.507 0-1.47.102-2.18 1.065-.81 1.064-1.166 3.295-1.166 7.096 0 3.752.355 6.033 1.166 7.097a2.742 2.742 0 0 0 2.18 1.065Zm66.1-23.52h-1.166c-.203 0-.457 0-.609.202-.253.203-.253.507-.253.76v24.23c0 .254 0 .508.253.761.204.203.406.203.609.203h1.166c.202 0 .456 0 .608-.203.217-.174.211-.384.205-.6a3.948 3.948 0 0 1-.002-.11v-24.23c0-.253 0-.558-.254-.76-.101-.254-.304-.254-.557-.254Zm-79.584 4.51h.102c.253 0 .557.051.81.254.203.203.203.456.203.71v.912c0 .254 0 .507-.202.71-.203.203-.457.253-.71.253h-.102c-1.824.152-2.838 1.572-2.838 4.106v13.738c0 .253 0 .557-.254.76-.152.203-.405.203-.608.203h-1.166c-.203 0-.405 0-.608-.203-.253-.253-.253-.507-.253-.76V42.678c0-4.258 2.18-7.046 5.626-7.046Zm63.262.203c-.152-.202-.456-.202-.71-.202h-1.115c-.254 0-.558 0-.71.202-.101.102-.203.355-.253.811l-2.94 14.346s-.051.152-.051.203l-.051-.203-2.94-14.346c-.101-.456-.152-.659-.253-.81-.152-.203-.406-.203-.71-.203h-1.115c-.254 0-.507 0-.71.202-.196.196-.155.44-.106.73l.005.03 4.36 19.872c.05.253.1.456.304.659.202.203.405.203.658.203h1.166c.203 0 .406 0 .608-.203.168-.168.232-.336.307-.533a3.36 3.36 0 0 1 .049-.126l4.359-19.82c0-.062.001-.121.003-.177.007-.265.012-.467-.155-.635Zm-17.942-.304c2.534 0 4.511 1.166 5.272 3.194.406 1.064.406 2.788.354 3.599v14.092l.003.109c.006.216.012.427-.205.6-.152.203-.406.203-.609.203h-1.165c-.203 0-.406 0-.608-.202-.254-.203-.254-.507-.254-.76v-.153c0-.05 0-.203-.05-.203-.052 0-.153.051-.254.152l-.102.051c-.963.76-2.179 1.166-3.497 1.166-1.521 0-2.89-.456-3.853-1.267-1.115-.913-1.723-2.281-1.723-3.954 0-1.977.406-4.258 3.65-6.489a41.307 41.307 0 0 1 2.636-1.622c.205-.126.4-.242.583-.352.407-.243.759-.452 1.039-.662.506-.354 1.469-1.064 1.469-2.483 0-.609-.152-1.014-.456-1.42-.659-.76-1.723-.862-2.128-.862-.457 0-1.623.102-2.383 1.116-.355.506-.608 1.267-.76 2.382v.05c-.009.044-.016.086-.023.127-.034.197-.063.365-.231.533-.202.203-.506.203-.76.203h-.913c-.304 0-.608-.051-.76-.203-.17-.17-.162-.448-.155-.682l.003-.13a6.4 6.4 0 0 0 .026-.18c.062-.456.198-1.463.633-2.506.912-2.18 2.839-3.447 5.221-3.447Zm1.673 18.198c.709-.71 1.115-1.673 1.115-2.838v-5.12c0-.203 0-.457-.102-.457-.101 0-.354.102-.709.355 0 0-.406.254-.558.355l-.075.046c-.913.558-2.277 1.391-3.017 2.032-1.47 1.268-2.078 2.383-2.078 3.904 0 .659.202 1.267.608 1.774.304.405.913.862 2.18.912h.152c.913 0 1.825-.355 2.484-.963Z" clip-rule="evenodd"/></svg>