<?xml version="1.0" encoding="UTF-8"?>
<svg id="Layer_1" xmlns="http://www.w3.org/2000/svg" version="1.1" viewBox="0 0 200 88">
  <!-- Generator: Adobe Illustrator 30.2.1, SVG Export Plug-In . SVG Version: 2.1.1 Build 1)  -->
  <defs>
    <style>
      .st0 {
        fill: #b6b6b6;
        fill-rule: evenodd;
      }
    </style>
  </defs>
  <path class="st0" d="M52.95,36.49c.76-.66,1.73-1.02,2.74-1.01,2.28,0,3.9,1.17,4.81,3.5.66,1.57,1.06,4.46,1.06,7.5,0,3.35-.41,6.08-1.06,7.5-1.01,2.18-2.94,3.45-5.17,3.45s-4.11-1.17-5.17-3.35c-.66-1.37-1.01-3.8-1.01-7.15v-14.85c0-.25,0-.56.25-.76.15-.2.41-.2.61-.2h1.17c.2,0,.46,0,.66.15.25.25.25.51.25.76v5.12c0,.15,0,.2.05.2l.15-.15c.05-.1.3-.41.66-.71ZM55.38,54.69c.86,0,1.62-.35,2.13-1.06.81-1.06,1.17-3.4,1.17-7.15s-.41-6.08-1.17-7.1c-.51-.71-1.17-1.06-2.13-1.06-.51,0-1.47.1-2.18,1.06-.81,1.12-1.17,3.35-1.17,7.5,0,3.55.35,5.68,1.17,6.74.52.67,1.33,1.07,2.18,1.06ZM166.44,31.12h-1.17c-.2,0-.46,0-.61.2-.25.2-.25.51-.25.76v24.23c0,.25,0,.56.25.76.2.2.4.2.61.2h1.17c.2,0,.46,0,.61-.2.22-.17.21-.38.21-.6,0-.04,0-.07,0-.11v-24.23c0-.25,0-.56-.25-.76-.1-.25-.36-.25-.56-.25h0ZM171.57,35.63h-1.17c-.2,0-.46,0-.61.2-.25.2-.25.51-.25.76v19.72c0,.25,0,.56.25.76.2.2.41.2.61.2h1.17c.2,0,.46,0,.61-.2.22-.17.21-.38.2-.6v-.11s0-19.72,0-19.72c0-.25,0-.56-.25-.76-.15-.2-.35-.25-.56-.25h0ZM169.74,34.31c.2.2.41.2.61.2h1.17c.2,0,.46,0,.61-.2.22-.17.21-.38.21-.6,0-.04,0-.07,0-.11v-1.52c0-.25,0-.56-.25-.76-.1-.2-.3-.2-.51-.2h-1.17c-.2,0-.46,0-.61.2-.25.2-.25.51-.25.76v1.47c0,.25,0,.51.2.76h0ZM73.12,50.28h1.01c.36,0,.61.05.71.2.17.17.16.45.15.68v.13c-.05.56-.26,1.77-.71,2.69-1.06,2.18-2.99,3.45-5.22,3.45-2.99,0-4.51-1.88-5.27-3.45-.66-1.37-1.06-4.11-1.06-7.5s.35-6.08,1.06-7.5c.76-1.57,2.33-3.45,5.27-3.45,2.38,0,4.36,1.27,5.27,3.45.36.76.56,1.93.61,2.99.05.56,0,.96-.15,1.22-.1.25-.3.46-.66.76l-7.81,5.58-.07.06c-.1.08-.25.22-.29.29-.07.11-.07.26-.06.4,0,.05,0,.1,0,.15.2,1.47.56,2.53,1.01,3.14.52.67,1.33,1.07,2.18,1.06h.05c.91,0,1.67-.35,2.18-1.06.46-.66.76-1.47.86-2.38v-.05s.02-.1.03-.15c.03-.2.06-.4.23-.56.2-.15.46-.15.66-.15ZM65.77,46.17c0,.15.05.3.1.3.1,0,.25-.05.46-.2l5.37-3.9.08-.06c.15-.11.23-.17.23-.3v-.61c-.05-.81-.3-1.62-.61-2.08-.51-.71-1.22-1.06-2.08-1.06h-.15c-.51,0-1.47.1-2.18,1.06-.86,1.12-1.32,3.6-1.22,6.84h0ZM35.41,37.51v-.91c0-.25,0-.51-.2-.71-.2-.2-.51-.25-.76-.25h-.1c-3.4,0-5.63,2.79-5.63,7.05v13.64c0,.25,0,.51.25.76.2.2.41.2.61.2h1.17c.2,0,.46,0,.61-.2.25-.2.25-.46.25-.76v-13.74c0-2.53,1.01-3.95,2.84-4.11h.1c.25,0,.51-.05.71-.25.15-.25.15-.46.15-.71h0ZM36.22,38.93c.76-1.57,2.33-3.45,5.27-3.45,2.23,0,4.21,1.32,5.27,3.45.66,1.42,1.06,4.16,1.06,7.5s-.35,6.08-1.06,7.5c-1.06,2.18-2.99,3.45-5.27,3.45-2.99,0-4.51-1.88-5.27-3.45-.66-1.37-1.06-4.11-1.06-7.5s.35-6.08,1.06-7.5h0ZM41.44,54.64c.56,0,1.52-.1,2.23-1.06.81-1.01,1.22-3.5,1.12-7.1,0-3.65-.41-6.08-1.17-7.1,0,0-.66-1.06-2.18-1.06s-2.18,1.06-2.18,1.06c-.81,1.06-1.17,3.3-1.17,7.1s.35,6.03,1.17,7.1c.52.67,1.33,1.07,2.18,1.06ZM89.34,37.56v-.96c0-.25,0-.51-.2-.71-.18-.17-.41-.26-.66-.25h-1.32c-.09,0-.18-.04-.25-.1-.06-.07-.1-.16-.1-.25v-2.48c0-.25,0-.56-.25-.76-.2-.2-.4-.2-.61-.2h-1.17c-.2,0-.46,0-.61.2-.25.2-.25.51-.25.76v23.47c0,.25,0,.56.25.76.2.2.4.2.61.2h1.17c.2,0,.46,0,.61-.2.22-.17.21-.38.21-.6v-.11s0-17.49,0-17.49c0-.1.05-.2.1-.25.05-.1.15-.1.25-.1h1.32c.25,0,.51,0,.66-.25.25-.2.25-.46.25-.66h0ZM117.68,50.28h1.01c.35,0,.61.05.86.2.17.17.16.45.15.68,0,.04,0,.09,0,.13-.05.56-.25,1.77-.71,2.69-1.07,2.18-2.99,3.45-5.22,3.45-2.99,0-4.51-1.88-5.27-3.45-.66-1.37-1.06-4.11-1.06-7.5s.35-6.08,1.06-7.5c.76-1.57,2.33-3.45,5.27-3.45,2.79,0,4.51,1.77,5.22,3.45.43,1.05.54,2.11.6,2.6v.08c.06.25.06.61-.14.81-.15.2-.46.2-.76.2h-.91c-.25,0-.56,0-.71-.15-.15-.1-.2-.25-.25-.71-.15-1.01-.41-1.83-.86-2.43-.51-.71-1.22-1.12-2.13-1.12h-.05c-.46,0-1.47.1-2.23,1.12-.81,1.06-1.22,3.35-1.22,7.1s.4,6.03,1.22,7.1c.52.67,1.33,1.07,2.18,1.06h.05c.91,0,1.67-.35,2.18-1.06.41-.61.71-1.47.81-2.43,0-.25.05-.51.25-.71.15-.15.41-.15.66-.15ZM156.81,38.72c-.76-2.03-2.74-3.19-5.27-3.19-2.38,0-4.31,1.27-5.22,3.45-.43,1.04-.57,2.05-.63,2.51l-.03.18v.13c-.01.23-.02.51.15.68.15.15.46.2.76.2h.91c.25,0,.56,0,.76-.2.17-.17.2-.34.23-.53l.02-.13v-.05c.15-1.12.41-1.88.76-2.38.76-1.01,1.93-1.12,2.38-1.12.41,0,1.47.1,2.13.86.3.41.46.81.46,1.42,0,1.42-.96,2.13-1.47,2.48-.28.21-.63.42-1.04.66-.18.11-.38.23-.59.35-.9.51-1.78,1.05-2.64,1.62-3.24,2.23-3.65,4.51-3.65,6.49,0,1.67.61,3.04,1.72,3.95.96.81,2.33,1.27,3.85,1.27,1.32,0,2.54-.41,3.5-1.17l.1-.05c.1-.1.2-.15.25-.15s.05.15.05.2v.15c0,.25,0,.56.25.76.2.2.41.2.61.2h1.17c.2,0,.46,0,.61-.2.22-.17.21-.38.21-.6v-.07s0-14.13,0-14.13c.05-.81.05-2.53-.35-3.6h0ZM154.33,50.89c0,1.17-.41,2.13-1.12,2.84-.68.62-1.57.96-2.48.96h-.15c-1.27-.05-1.88-.51-2.18-.91-.4-.5-.62-1.13-.61-1.77,0-1.52.61-2.64,2.08-3.9.74-.64,2.1-1.47,3.02-2.03l.07-.05c.15-.1.56-.35.56-.35.35-.25.61-.35.71-.35s.1.25.1.46v5.12h0ZM90.1,38.93c.76-1.57,2.33-3.45,5.27-3.45,2.23,0,4.21,1.32,5.27,3.45.66,1.42,1.07,4.16,1.07,7.5s-.36,6.08-1.07,7.5c-1.06,2.18-2.99,3.45-5.27,3.45-2.99,0-4.51-1.88-5.27-3.45-.66-1.37-1.07-4.11-1.07-7.5s.36-6.08,1.07-7.5ZM95.32,54.64c.56,0,1.52-.1,2.23-1.06.81-1.01,1.22-3.5,1.11-7.1,0-3.65-.4-6.08-1.17-7.1-.52-.67-1.33-1.07-2.18-1.06-.51,0-1.47.1-2.18,1.06-.81,1.06-1.17,3.3-1.17,7.1s.36,6.03,1.17,7.1c.52.67,1.33,1.07,2.18,1.06h0ZM161.42,31.12h-1.17c-.2,0-.46,0-.61.2-.25.2-.25.51-.25.76v24.23c0,.25,0,.51.25.76.2.2.41.2.61.2h1.17c.2,0,.46,0,.61-.2.22-.17.21-.38.21-.6,0-.04,0-.07,0-.11v-24.23c0-.25,0-.56-.25-.76-.1-.25-.3-.25-.56-.25h0ZM81.84,35.63h.1c.25,0,.56.05.81.25.2.2.2.46.2.71v.91c0,.25,0,.51-.2.71-.2.2-.46.25-.71.25h-.1c-1.82.15-2.84,1.57-2.84,4.11v13.74c0,.25,0,.56-.25.76-.15.2-.4.2-.61.2h-1.17c-.2,0-.4,0-.61-.2-.25-.25-.25-.51-.25-.76v-13.64c0-4.26,2.18-7.05,5.63-7.05h0ZM145.1,35.83c-.15-.2-.46-.2-.71-.2h-1.12c-.25,0-.56,0-.71.2-.1.1-.2.35-.25.81l-2.94,14.35s-.05.15-.05.2l-.05-.2-2.94-14.35c-.1-.46-.15-.66-.25-.81-.15-.2-.41-.2-.71-.2h-1.12c-.25,0-.51,0-.71.2-.2.2-.15.44-.11.73v.03s4.37,19.87,4.37,19.87c.05.25.1.46.3.66.2.2.4.2.66.2h1.17c.2,0,.41,0,.61-.2.17-.17.23-.34.31-.53.02-.04.03-.08.05-.13l4.36-19.82c0-.06,0-.12,0-.18,0-.26.01-.47-.15-.63h0ZM127.16,35.53c2.53,0,4.51,1.17,5.27,3.19.41,1.06.41,2.79.35,3.6v14.2c0,.22.01.43-.2.6-.15.2-.41.2-.61.2h-1.16c-.2,0-.41,0-.61-.2-.25-.2-.25-.51-.25-.76v-.15s0-.2-.05-.2-.15.05-.25.15l-.1.05c-.96.76-2.18,1.17-3.5,1.17-1.52,0-2.89-.46-3.85-1.27-1.11-.91-1.72-2.28-1.72-3.95,0-1.98.41-4.26,3.65-6.49.86-.57,1.74-1.11,2.64-1.62.21-.13.4-.24.58-.35.41-.24.76-.45,1.04-.66.51-.35,1.47-1.06,1.47-2.48,0-.61-.15-1.01-.46-1.42-.66-.76-1.72-.86-2.13-.86-.46,0-1.62.1-2.38,1.12-.36.51-.61,1.27-.76,2.38v.05s-.02.09-.02.13c-.03.2-.06.37-.23.53-.2.2-.51.2-.76.2h-.91c-.3,0-.61-.05-.76-.2-.17-.17-.16-.45-.15-.68v-.13c.01-.06.02-.12.03-.18.06-.46.2-1.46.63-2.51.91-2.18,2.84-3.45,5.22-3.45h0ZM128.83,53.73c.71-.71,1.12-1.67,1.12-2.84v-5.12c0-.2,0-.46-.1-.46s-.35.1-.71.35c0,0-.41.25-.56.35l-.07.05c-.91.56-2.28,1.39-3.02,2.03-1.47,1.27-2.08,2.38-2.08,3.9,0,.66.2,1.27.61,1.77.3.4.91.86,2.18.91h.15c.91,0,1.82-.35,2.48-.96Z"/>
</svg>