<?xml version="1.0" encoding="UTF-8"?>
<svg id="Layer_1" xmlns="http://www.w3.org/2000/svg" version="1.1" viewBox="0 0 200 88">
  <!-- Generator: Adobe Illustrator 30.2.1, SVG Export Plug-In . SVG Version: 2.1.1 Build 1)  -->
  <defs>
    <style>
      .st0 {
        fill: #b6b6b6;
      }
    </style>
  </defs>
  <path class="st0" d="M32.1,43.96l-.94-.28c-.65-.2-1.63-.57-1.51-1.42.12-.81,1.14-1.26,1.88-1.26,1.18-.04,2.12.16,2.73.73l.65-3.05c-1.04-.61-2.22-.94-3.43-.94-3.02,0-5.47,1.99-5.95,5.01-.45,2.89,1.06,3.54,3.39,4.23.77.24,2.28.61,2.08,1.71-.16,1.06-1.22,1.51-2.12,1.51-1.35,0-2.36-.69-3.22-1.55l-2.16,3.13c1.42,1.11,3.17,1.71,4.98,1.71,1.51,0,3.14-.41,4.49-1.42s1.96-2.52,2.2-4.03c.37-2.4-1.06-3.46-3.06-4.07ZM67.41,41.19c-1.47-2.85-4.49-2.85-6.2-2.85h-5.06l-2.24,12-2.53-12h-3.06l-7.99,13.59,1.88-10.17h3.06l1.96-3.42h-11.38l-.65,3.42h3.14l-2.2,11.8h7.42l1.22-2.2h5.3l.33,2.2h8.28c5.79,0,8.48-3.5,9.26-7.65.29-1.63.25-3.26-.53-4.72h0ZM46.41,48.31l2.53-5.21h.08l.61,5.21h-3.22ZM64.03,45.99c-.41,2.16-1.59,4.19-4.49,4.19h-1.67l1.55-8.38h1.67c1.71,0,2.37.73,2.69,1.38.41.85.41,1.95.25,2.81ZM69.82,38.38l-2.85,15.18h3.87l2.86-15.18h-3.88ZM86.17,38.38h-3.92l-1.71,9.2c-.24,1.22-.53,2.89-2.49,2.89s-1.63-1.87-1.43-2.89l1.71-9.2h-3.87l-1.71,9.2c-.41,2.24-.37,3.3.65,4.68,1.02,1.34,2.98,1.63,4.08,1.63,1.88,0,3.39-.65,4.57-1.63,1.14-.98,1.92-2.12,2.41-4.68l1.71-9.2ZM93.06,48.39h-.04l-1.18-10.01h-4.97l-2.86,15.18h3.59l2-11.35.04-.04,1.14,11.39h2.57l5.38-11.39.04.04-2.24,11.35h3.59l2.81-15.18h-5.02s-4.85,10.01-4.85,10.01ZM169.73,44.4l-.94-.28c-.65-.2-1.63-.57-1.51-1.42.12-.81,1.14-1.26,1.88-1.26.94,0,1.79.41,2.41.98l2.04-3.01c-1.22-.77-2.98-1.22-4.49-1.22-2.53,0-4.69,1.42-5.59,3.7-.08-.2-.16-.37-.24-.57-1.43-2.85-4.49-2.85-6.2-2.85h-5.06l-.73,3.91c-.86-2.44-3.14-4.19-6.36-4.19-4.12,0-6.93,2.64-8.2,4.6-.69-2.73-3.06-4.72-6.52-4.72-4.28,0-7.18,2.85-8.32,4.84-.33.57-.61,1.14-.78,1.71h-8.48l-.57,3.09h4.57c-.69,1.47-2.16,2.44-4.12,2.44s-3.92-1.38-3.34-4.56c.57-3.01,3.06-4.44,4.98-4.44,1.63,0,2.61.9,2.98,1.95h4.36c-.29-2.93-2.98-5.37-6.61-5.37-4.49,0-8.77,3.3-9.62,7.81-.82,4.4,2,7.98,6.61,7.98,3.43,0,6.97-1.99,8.73-5.45.29,3.13,2.69,5.74,6.69,5.74,3.43,0,6.49-1.91,8.2-4.6.69,2.65,2.98,4.68,6.49,4.68,3.26,0,6.16-1.71,7.91-4.19l-.73,3.91h5.34c5.75,0,8.48-3.46,9.26-7.57.61.61,1.59.98,2.77,1.3.82.24,2.29.61,2.08,1.71-.16,1.06-1.22,1.51-2.12,1.51-1.22,0-2.2-.65-3.02-1.42-.61,1.3-1.1,1.79-2,2.73,1.3.98,2.85,1.99,4.65,1.99,1.51,0,3.14-.41,4.49-1.42,1.35-1.02,1.96-2.52,2.2-4.03.37-2.32-1.06-3.38-3.06-3.99h0ZM132.91,45.99c-.37,1.95-2.16,4.48-4.93,4.48-2.61,0-3.79-2.16-3.34-4.52.41-2.16,2.29-4.44,4.97-4.44,2.82-.04,3.67,2.48,3.3,4.48ZM147.63,46.11c-.37,1.95-2.16,4.48-4.93,4.48-2.61,0-3.79-2.16-3.34-4.52.41-2.16,2.28-4.44,4.98-4.44,2.81-.04,3.67,2.48,3.3,4.48ZM159.86,46.11c-.41,2.16-1.59,4.19-4.49,4.19h-1.67l1.55-8.38h1.67c1.71,0,2.37.73,2.69,1.38.45.85.41,1.95.24,2.81ZM174.74,41.96c0-2.04,1.65-3.7,3.69-3.7,0,0,.02,0,.03,0,2.08,0,3.71,1.63,3.71,3.7,0,2.04-1.64,3.7-3.68,3.7,0,0-.02,0-.03,0-2.04,0-3.71-1.67-3.71-3.7ZM175.35,41.96c0,1.71,1.39,3.09,3.1,3.09,0,0,0,0,0,0,1.71,0,3.1-1.38,3.1-3.09s-1.39-3.09-3.1-3.09-3.1,1.34-3.1,3.09ZM178.37,42.41h-.69v1.67h-.65v-4.23h1.75c.82,0,1.43.49,1.43,1.3,0,.94-.86,1.26-1.1,1.26l1.14,1.71h-.77l-1.1-1.71h0ZM177.68,40.38v1.47h1.1c.49,0,.77-.28.77-.73,0-.49-.29-.77-.77-.77h-1.1v.04Z"/>
</svg>