<?xml version="1.0" encoding="UTF-8"?>
<svg id="Layer_1" xmlns="http://www.w3.org/2000/svg" version="1.1" viewBox="0 0 200 88">
  <!-- Generator: Adobe Illustrator 30.2.1, SVG Export Plug-In . SVG Version: 2.1.1 Build 1)  -->
  <defs>
    <style>
      .st0 {
        fill: #b6b6b6;
      }
    </style>
  </defs>
  <path class="st0" d="M24.19,48.98v-16.01h-4.9v-2.14h11.8v2.14h-4.92v16.01s-1.97,0-1.97,0ZM33.26,48.98v-18.15h1.97v7.45h7.74v-7.45h1.97v18.15h-1.97v-8.55h-7.74v8.55h-1.97ZM49.03,40.17c0,2.24.49,3.97,1.48,5.21.99,1.24,2.18,1.85,3.6,1.85s2.65-.62,3.63-1.87c.98-1.25,1.47-3.08,1.47-5.5,0-1.56-.26-2.96-.76-4.19-.39-.94-.97-1.69-1.75-2.26-.78-.57-1.63-.85-2.56-.85-1.49,0-2.71.62-3.67,1.86-.96,1.24-1.44,3.15-1.44,5.75M47,40.14c0-3.1.68-5.47,2.04-7.14,1.36-1.66,3.06-2.49,5.09-2.49,1.31,0,2.51.37,3.59,1.11,1.08.74,1.94,1.82,2.57,3.24.63,1.42.95,3.1.95,5.06,0,2.69-.61,4.88-1.83,6.57-1.34,1.87-3.11,2.8-5.29,2.8s-3.96-.95-5.3-2.87c-1.22-1.73-1.82-3.83-1.82-6.28M63.68,48.98v-18.15h2.96l3.53,12.85.71,2.69c.17-.67.44-1.64.79-2.91l3.57-12.63h2.65v18.15h-1.89v-15.18l-4.34,15.18h-1.77l-4.31-15.44v15.44h-1.9,0ZM88.19,46.84h3.71c.82,0,1.42-.07,1.81-.22.56-.21.99-.57,1.28-1.06.29-.49.44-1.11.44-1.85,0-.69-.14-1.26-.42-1.74-.26-.46-.66-.82-1.14-1.04-.47-.21-1.22-.33-2.24-.33h-3.45v6.24h0ZM88.19,38.46h3.22c.84,0,1.44-.06,1.8-.17.51-.17.91-.47,1.18-.87.28-.41.41-.96.41-1.67,0-.65-.13-1.2-.38-1.63-.25-.43-.59-.73-1-.9-.42-.17-1.17-.25-2.25-.25h-2.99v5.48h0ZM86.22,48.98v-18.15h5.59c1.13,0,2.03.17,2.69.53.66.35,1.2.9,1.63,1.64.42.74.63,1.56.63,2.46,0,.83-.18,1.59-.55,2.25-.36.66-.89,1.22-1.54,1.61.86.31,1.54.85,2.04,1.6.5.76.75,1.69.75,2.79s-.22,2.06-.68,2.89c-.45.83-1.05,1.43-1.8,1.81-.75.38-1.78.57-3.1.57h-5.67M102.12,38.84h4.23c.92,0,1.62-.11,2.11-.34.48-.22.88-.59,1.14-1.05.28-.48.42-1.03.42-1.67,0-.92-.27-1.64-.8-2.16-.54-.53-1.33-.79-2.39-.79h-4.7v6ZM100.15,48.98v-18.15h6.6c1.38,0,2.4.17,3.05.51.65.34,1.19.9,1.61,1.69.42.79.63,1.7.63,2.74,0,1.37-.36,2.48-1.07,3.33-.71.85-1.75,1.39-3.11,1.62.55.33.97.67,1.26,1.01.6.71,1.12,1.49,1.55,2.31l2.6,4.94h-2.48l-1.99-3.78c-.77-1.48-1.35-2.47-1.74-2.98-.39-.51-.77-.86-1.14-1.03-.37-.18-.88-.26-1.54-.26h-2.28v8.06h-1.97M115.92,40.17c0,2.24.49,3.97,1.48,5.21.99,1.24,2.19,1.85,3.6,1.85s2.65-.62,3.63-1.87c.98-1.25,1.47-3.08,1.47-5.5,0-1.56-.25-2.96-.75-4.19-.39-.94-.97-1.69-1.75-2.26-.78-.57-1.63-.85-2.56-.85-1.49,0-2.71.62-3.67,1.86-.96,1.24-1.44,3.15-1.44,5.75M113.89,40.14c0-3.1.68-5.47,2.04-7.14,1.36-1.66,3.06-2.49,5.09-2.49,1.28,0,2.54.38,3.59,1.11,1.08.74,1.94,1.82,2.57,3.24.63,1.42.95,3.1.95,5.06,0,2.69-.61,4.88-1.83,6.57-1.34,1.87-3.11,2.8-5.29,2.8s-3.97-.95-5.3-2.87c-1.21-1.73-1.82-3.83-1.82-6.28ZM132.55,48.98l-3.96-18.15h2.01l2.27,11.9c.24,1.23.45,2.47.63,3.71l.67-3.36,2.83-12.25h2.39l2.12,9.18c.52,2.24.9,4.38,1.16,6.42.19-1.19.44-2.49.73-3.95l2.34-11.67h1.98l-4.09,18.15h-1.89l-3.15-13.83-.47-2.13c-.12.71-.27,1.42-.43,2.13l-3.15,13.83h-1.99M149.51,48.98v-18.15h2.02l7.82,14.28v-14.28h1.88v18.15h-2.02l-7.81-14.28v14.28h-1.9M163.89,48.98v-18.15h10.76v2.14h-8.79v5.55h8.23v2.14h-8.24v6.18h9.14v2.14h-11.1M178.03,46.44h2.08v2.53h-2.08v-2.53ZM70.59,66.09v-10.31h1.14l4.45,8.11v-8.11h1.07v10.31h-1.15l-4.43-8.11v8.11h-1.08M78.56,66.09v-10.31h6.11v1.22h-4.99v3.15h4.67v1.22h-4.67v3.51h5.19v1.21h-6.31M88,66.09l-2.25-10.31h1.14l1.29,6.76c.14.69.25,1.4.36,2.11l.38-1.91,1.61-6.96h1.36l1.21,5.22c.29,1.27.51,2.49.66,3.65.11-.67.25-1.42.42-2.24l1.33-6.62h1.13l-2.32,10.31h-1.08l-1.79-7.85-.27-1.21c-.07.4-.15.81-.25,1.21l-1.79,7.85h-1.13M103.67,66.09v-4.37l-3.26-5.94h1.37l1.66,3.11c.31.57.6,1.15.86,1.74.25-.54.56-1.15.92-1.82l1.65-3.04h1.29l-3.38,5.94v4.37h-1.11M109.19,61.08c0,1.27.28,2.26.84,2.96.56.7,1.24,1.05,2.04,1.05s1.51-.35,2.06-1.06c.56-.71.83-1.75.83-3.12,0-.88-.14-1.68-.43-2.38-.2-.51-.55-.96-1-1.28-.42-.31-.93-.48-1.45-.48-.84,0-1.54.35-2.08,1.06-.55.71-.82,1.79-.82,3.26h0s0,0,0,0ZM108.04,61.07c0-1.75.38-3.11,1.16-4.05.77-.95,1.74-1.42,2.89-1.42.75,0,1.43.21,2.04.64.62.42,1.1,1.03,1.46,1.83.36.81.54,1.76.54,2.87,0,1.53-.34,2.77-1.04,3.73-.76,1.06-1.77,1.59-3,1.59s-2.25-.55-3.01-1.63c-.69-.98-1.03-2.17-1.03-3.57ZM118.32,60.33h2.4c.53,0,.92-.07,1.19-.19.27-.13.49-.33.64-.6.16-.27.24-.59.24-.95,0-.52-.15-.93-.46-1.23-.31-.29-.76-.45-1.36-.45h-2.67v3.42s0,0,0,0ZM117.2,66.09v-10.31h3.75c.78,0,1.36.09,1.73.29.37.19.68.51.92.96s.36.96.36,1.56c0,.77-.2,1.41-.61,1.89-.4.48-1,.79-1.77.92.31.19.55.38.72.57.34.4.63.85.88,1.31l1.48,2.81h-1.41l-1.13-2.14c-.44-.84-.77-1.4-.99-1.69-.22-.29-.44-.49-.65-.59-.21-.1-.5-.15-.88-.15h-1.29v4.57h-1.12M125.5,66.09v-10.31h1.12v5.11l4.2-5.11h1.52l-3.55,4.18,3.7,6.13h-1.48l-3-5.21-1.39,1.64v3.57h-1.12"/>
</svg>