<svg xmlns="http://www.w3.org/2000/svg" width="200" height="88" fill="none"><path fill="#96A1BC" d="M24.19 48.976V32.968h-4.903v-2.141h11.797v2.141H26.16v16.008h-1.97Zm9.072 0v-18.15h1.97v7.455h7.736v-7.454h1.97v18.15h-1.97v-8.554h-7.736v8.553h-1.97Zm15.767-8.808c0 2.238.493 3.975 1.48 5.213.986 1.235 2.184 1.85 3.597 1.85 1.413 0 2.655-.622 3.635-1.87.976-1.247 1.466-3.081 1.466-5.501 0-1.562-.255-2.956-.755-4.187-.387-.94-.97-1.695-1.75-2.261-.779-.566-1.633-.848-2.556-.848-1.486 0-2.708.616-3.671 1.86-.963 1.239-1.443 3.155-1.443 5.747m-2.033-.033c0-3.095.682-5.475 2.043-7.137 1.364-1.661 3.058-2.492 5.087-2.492 1.314 0 2.51.37 3.589 1.112 1.082.741 1.94 1.82 2.568 3.237.632 1.417.947 3.102.947 5.062 0 2.69-.613 4.879-1.834 6.57-1.344 1.867-3.108 2.797-5.286 2.797-2.178 0-3.962-.953-5.3-2.87-1.215-1.734-1.82-3.826-1.82-6.279m16.683 8.838v-18.15h2.962l3.532 12.85.709 2.688c.172-.671.436-1.638.794-2.91l3.568-12.627h2.648v18.15h-1.893V33.795l-4.34 15.18h-1.77l-4.314-15.442v15.442h-1.896Zm24.514-2.141h3.708c.817 0 1.42-.073 1.81-.222.56-.212.99-.566 1.281-1.056.295-.493.44-1.112.44-1.854 0-.685-.142-1.264-.42-1.738a2.527 2.527 0 0 0-1.135-1.04c-.474-.214-1.222-.327-2.238-.327h-3.449v6.24l.003-.003Zm0-8.379h3.224c.844 0 1.444-.056 1.798-.172.513-.175.907-.466 1.185-.873.278-.411.414-.964.414-1.666 0-.652-.126-1.198-.378-1.628-.251-.434-.589-.732-1.003-.897-.42-.166-1.172-.248-2.254-.248h-2.989v5.484h.003Zm-1.97 10.52v-18.15h5.592c1.132 0 2.025.173 2.687.527.662.35 1.202.897 1.626 1.638.42.745.632 1.563.632 2.463 0 .834-.182 1.586-.546 2.251a4.24 4.24 0 0 1-1.536 1.609c.86.311 1.542.847 2.039 1.605.496.758.745 1.689.745 2.794 0 1.106-.225 2.062-.676 2.893-.45.831-1.049 1.433-1.8 1.807-.752.378-1.781.567-3.095.567h-5.67m15.901-10.143h4.234c.923 0 1.625-.112 2.105-.338a2.56 2.56 0 0 0 1.139-1.049c.281-.48.42-1.033.42-1.671 0-.917-.268-1.639-.804-2.159-.536-.526-1.334-.787-2.39-.787h-4.704v6.004Zm-1.969 10.14v-18.15h6.6c1.38 0 2.397.168 3.052.506.655.338 1.192.9 1.615 1.688.421.788.633 1.702.633 2.741 0 1.37-.358 2.476-1.073 3.33-.715.848-1.751 1.387-3.111 1.619.552.33.973.668 1.264 1.01a12.546 12.546 0 0 1 1.546 2.313l2.602 4.939h-2.476l-1.986-3.777c-.768-1.476-1.351-2.47-1.741-2.98-.391-.512-.768-.857-1.136-1.035-.367-.179-.884-.265-1.539-.265h-2.277v8.06h-1.97m15.763-8.808c0 2.238.493 3.975 1.479 5.213.99 1.235 2.188 1.85 3.599 1.85 1.41 0 2.654-.622 3.631-1.87.976-1.247 1.466-3.081 1.466-5.501 0-1.562-.251-2.956-.755-4.187-.387-.94-.969-1.695-1.751-2.261-.778-.566-1.632-.848-2.555-.848-1.486 0-2.711.616-3.671 1.86-.963 1.239-1.443 3.155-1.443 5.747m-2.029-.033c0-3.095.682-5.475 2.042-7.137 1.364-1.661 3.059-2.492 5.091-2.492a6.2 6.2 0 0 1 3.588 1.112c1.079.741 1.937 1.82 2.569 3.237.629 1.417.947 3.102.947 5.062 0 2.69-.61 4.879-1.831 6.57-1.344 1.867-3.108 2.797-5.286 2.797-2.178 0-3.966-.953-5.3-2.87-1.215-1.734-1.82-3.826-1.82-6.279Zm18.659 8.838-3.962-18.15h2.015l2.268 11.897c.245 1.232.453 2.47.632 3.714l.669-3.356 2.833-12.254h2.39l2.125 9.185c.517 2.235.904 4.38 1.159 6.425.188-1.185.437-2.495.731-3.949l2.344-11.665h1.979l-4.088 18.15h-1.893l-3.145-13.827-.47-2.131a39.51 39.51 0 0 1-.433 2.131l-3.155 13.827h-1.993m16.955.003v-18.15h2.022l7.822 14.277V30.827h1.88v18.15h-2.019L151.4 34.692v14.283h-1.897m14.383 0v-18.15h10.758v2.142h-8.789v5.548h8.233v2.139h-8.236v6.176h9.136v2.142h-11.105m14.144-2.532h2.078v2.535h-2.078v-2.535ZM70.594 66.09V55.782h1.145l4.446 8.107v-8.107h1.069V66.09h-1.146l-4.435-8.113v8.113h-1.076m7.96 0V55.782h6.111V57h-4.991v3.151h4.674v1.215h-4.674v3.512h5.19v1.215h-6.31m9.438-.003-2.25-10.308h1.141l1.291 6.756c.136.695.255 1.4.358 2.109l.377-1.907 1.609-6.961h1.36l1.205 5.216c.295 1.272.513 2.486.659 3.648.109-.668.245-1.42.417-2.24l1.33-6.624h1.126l-2.324 10.307h-1.076l-1.787-7.855-.268-1.208c-.073.404-.153.808-.245 1.208l-1.794 7.855h-1.129m15.673.004v-4.366l-3.257-5.942h1.367l1.662 3.112c.308.572.596 1.155.864 1.744.248-.54.556-1.145.923-1.82l1.646-3.036h1.291l-3.377 5.942v4.366h-1.115m5.518-5.005c0 1.271.278 2.257.84 2.96.563.7 1.242 1.049 2.043 1.049.801 0 1.506-.351 2.062-1.063.556-.709.834-1.751.834-3.125 0-.884-.142-1.678-.427-2.377a2.93 2.93 0 0 0-.996-1.284 2.426 2.426 0 0 0-1.453-.483c-.841 0-1.54.354-2.082 1.056-.547.705-.821 1.794-.821 3.264v.003Zm-1.152-.017c0-1.754.384-3.108 1.158-4.048.772-.947 1.738-1.42 2.89-1.42.745 0 1.427.212 2.039.636.616.42 1.099 1.032 1.46 1.833.357.808.536 1.765.536 2.873 0 1.53-.344 2.774-1.039 3.734-.765 1.06-1.768 1.59-3.003 1.59-1.234 0-2.247-.547-3.008-1.63-.689-.982-1.033-2.174-1.033-3.568Zm10.278-.735h2.403c.526 0 .923-.066 1.195-.191.271-.126.486-.328.645-.596.159-.272.239-.59.239-.95 0-.52-.153-.927-.457-1.228-.305-.295-.758-.45-1.357-.45h-2.672v3.415h.004Zm-1.119 5.757V55.782h3.747c.781 0 1.36.093 1.731.288.371.192.679.513.917.96.238.447.357.963.357 1.556 0 .774-.201 1.407-.609 1.886-.403.484-.996.788-1.767.92.314.19.553.385.718.573.338.404.632.848.877 1.314l1.477 2.807h-1.407l-1.126-2.141c-.437-.84-.768-1.404-.989-1.695-.225-.288-.437-.487-.646-.59-.208-.098-.5-.148-.877-.148h-1.291v4.575h-1.119m8.312.003V55.782h1.119v5.11l4.197-5.11h1.519l-3.548 4.18 3.704 6.128h-1.476l-3.003-5.214-1.39 1.642v3.572h-1.119"/></svg>