<?xml version="1.0" encoding="UTF-8"?>
<svg id="Layer_1" xmlns="http://www.w3.org/2000/svg" version="1.1" viewBox="0 0 25 16">
  <!-- Generator: Adobe Illustrator 30.2.1, SVG Export Plug-In . SVG Version: 2.1.1 Build 1)  -->
  <defs>
    <style>
      .st0 {
        fill: #e3e3e3;
      }
    </style>
  </defs>
  <path class="st0" d="M17.55,1.09c-.09.09-.15.2-.2.32-.05.12-.07.25-.07.38s.02.26.07.38c.05.12.12.23.2.32l4.24,4.54H.92c-.24,0-.48.1-.65.29-.17.19-.27.44-.27.7s.1.51.27.7c.17.19.41.29.65.29h20.85l-4.22,4.51c-.17.18-.27.44-.27.7s.1.51.27.7c.17.18.41.29.65.29s.48-.1.65-.29l5.86-6.28c.08-.08.14-.18.18-.29.04-.11.06-.22.06-.34s-.02-.23-.06-.34c-.04-.11-.11-.21-.18-.29l-5.85-6.29c-.09-.09-.19-.17-.3-.22-.11-.05-.23-.08-.35-.08s-.24.03-.35.08c-.11.05-.21.12-.3.22Z"/>
</svg>