<?xml version="1.0" encoding="UTF-8"?>
<svg id="Layer_1" xmlns="http://www.w3.org/2000/svg" version="1.1" viewBox="0 0 78 60">
  <!-- Generator: Adobe Illustrator 30.2.1, SVG Export Plug-In . SVG Version: 2.1.1 Build 1)  -->
  <defs>
    <style>
      .st0 {
        fill: #e3e3e3;
      }

      .st0, .st1 {
        fill-rule: evenodd;
      }

      .st1 {
        fill: #38c545;
      }
    </style>
  </defs>
  <path class="st0" d="M3,0c1.66,0,3,1.34,3,3v54c0,1.66-1.34,3-3,3s-3-1.34-3-3V3C0,1.34,1.34,0,3,0Z"/>
  <path class="st1" d="M27,15c1.66,0,3,1.34,3,3v7.87l7.47-2.43c1.58-.51,3.27.35,3.78,1.92.51,1.58-.35,3.27-1.92,3.78l-7.48,2.44,4.63,6.37c.97,1.34.68,3.22-.67,4.19-1.34.97-3.22.68-4.19-.67l-4.62-6.37-4.62,6.37c-.97,1.34-2.85,1.64-4.19.67-1.34-.97-1.64-2.85-.67-4.19l4.63-6.37-7.48-2.44c-1.58-.51-2.44-2.21-1.92-3.78.51-1.58,2.21-2.44,3.78-1.92l7.47,2.43v-7.87c0-1.66,1.34-3,3-3Z"/>
  <path class="st1" d="M63,15c1.66,0,3,1.34,3,3v7.87l7.47-2.43c1.58-.51,3.27.35,3.78,1.92.51,1.58-.35,3.27-1.92,3.78l-7.48,2.44,4.63,6.37c.97,1.34.68,3.22-.67,4.19-1.34.97-3.22.68-4.19-.67l-4.62-6.37-4.62,6.37c-.97,1.34-2.85,1.64-4.19.67-1.34-.97-1.64-2.85-.67-4.19l4.63-6.37-7.48-2.44c-1.58-.51-2.44-2.21-1.92-3.78.51-1.58,2.21-2.44,3.78-1.92l7.47,2.43v-7.87c0-1.66,1.34-3,3-3Z"/>
</svg>