<?xml version="1.0" encoding="UTF-8"?>
<svg id="Layer_1" xmlns="http://www.w3.org/2000/svg" version="1.1" viewBox="0 0 101 60">
  <!-- Generator: Adobe Illustrator 30.2.1, SVG Export Plug-In . SVG Version: 2.1.1 Build 1)  -->
  <defs>
    <style>
      .st0 {
        fill: #38c545;
      }

      .st1 {
        fill: #e3e3e3;
      }
    </style>
  </defs>
  <path class="st1" d="M0,2.38C.02.66,1.66-.45,3.25.18c1.8.71,3.58,1.48,5.37,2.23,14.93,6.26,29.85,12.51,44.77,18.77,4.36,1.83,8.73,3.65,13.09,5.48,1.38.58,2.01,1.74,1.61,2.99-.28.87-.88,1.4-1.78,1.61-3.86.9-7.72,1.8-11.57,2.7-2.28.53-4.56,1.06-6.84,1.58-.32.07-.45.23-.54.53-.92,3.09-1.86,6.18-2.8,9.26-.55,1.82-2.31,2.41-3.85,1.3-2.33-1.67-4.66-3.34-6.97-5.05-.45-.33-.79-.37-1.31-.14-5.56,2.54-11.13,5.05-16.7,7.57-1.68.76-3.08.11-3.57-1.66-3-11.01-6-22.03-9-33.05C2.16,10.65,1.17,6.98.17,3.31.08,2.99-.03,2.68,0,2.38ZM29.54,37.6c-7.36-8.56-14.67-17.08-22.06-25.67,0,.16,0,.21,0,.26,2.82,10.36,5.65,20.72,8.46,31.08.12.44.29.36.58.22,2.64-1.2,5.28-2.4,7.92-3.59,1.68-.77,3.37-1.53,5.1-2.31ZM18.09,11.5s-.03.06-.04.08c.12.1.23.2.36.29,8.84,6.4,17.68,12.79,26.51,19.19.25.18.48.24.78.17,4.03-.94,8.06-1.88,12.09-2.81.09-.02.21-.02.23-.19-13.31-5.57-26.61-11.15-39.92-16.73ZM15.75,14.13s-.05.05-.08.08c.13.16.27.32.4.48,5.4,6.29,10.83,12.56,16.2,18.87,1.66,1.95,3.36,3.83,5.56,5.21,1.06.67,2.05,1.45,3.09,2.21.04-.12.07-.18.09-.24.66-2.17,1.31-4.34,1.98-6.5.1-.31-.04-.43-.25-.58-7.85-5.68-15.7-11.36-23.55-17.04-1.15-.83-2.29-1.66-3.44-2.48Z"/>
  <path class="st0" d="M67.38,60c-1.57,0-3.49-.16-5.38-.51-.97-.18-1.59-1.05-1.43-1.92.19-.98,1.05-1.54,2.06-1.38,2.23.36,4.47.52,6.73.38,1.04-.07,1.77.52,1.91,1.46.13.91-.48,1.74-1.4,1.88-.72.11-1.43.09-2.5.1Z"/>
  <path class="st0" d="M100.87,30.34c-.23,2.05-.66,4.17-1.31,6.23-.14.45-.28.9-.46,1.33-.36.9-1.26,1.3-2.14.99-.86-.3-1.33-1.22-1.02-2.12.77-2.25,1.3-4.55,1.58-6.91.1-.86.97-1.51,1.8-1.42.93.1,1.56.84,1.55,1.9Z"/>
  <path class="st0" d="M76.92,58.63c-.86,0-1.54-.55-1.69-1.38-.16-.82.29-1.61,1.12-1.89,1.52-.51,3.03-1.04,4.47-1.77.64-.32,1.27-.67,1.89-1.01.93-.5,1.93-.25,2.4.6.47.84.18,1.81-.72,2.32-2.2,1.27-4.51,2.29-6.94,3.02-.18.06-.37.11-.54.09Z"/>
  <path class="st0" d="M56.85,55.58c-.01,1.33-1.17,2.16-2.25,1.72-2.48-1.01-4.77-2.35-6.89-3.97-.74-.57-.82-1.57-.28-2.3.55-.74,1.55-.91,2.33-.35,1.64,1.17,3.34,2.23,5.17,3.09.33.16.67.29,1,.46.62.32.9.85.91,1.35Z"/>
  <path class="st0" d="M95.94,43.97c.03.32-.1.63-.29.91-1.41,2.16-3.06,4.13-4.93,5.9-.72.68-1.74.66-2.4-.03-.64-.66-.66-1.69.03-2.36,1.7-1.66,3.21-3.46,4.53-5.43.45-.66,1.24-.89,1.94-.64.69.25,1.12.87,1.12,1.64Z"/>
</svg>