<?xml version="1.0" encoding="UTF-8"?>
<svg id="Layer_1" xmlns="http://www.w3.org/2000/svg" version="1.1" viewBox="0 0 50 50">
  <!-- Generator: Adobe Illustrator 30.2.1, SVG Export Plug-In . SVG Version: 2.1.1 Build 1)  -->
  <defs>
    <style>
      .st0 {
        fill: #e3e3e3;
        fill-rule: evenodd;
      }
    </style>
  </defs>
  <path class="st0" d="M42.59,23.51c-.23-1.14-.58-2.27-1.04-3.35-.45-1.06-1-2.07-1.64-3.02-.64-.94-1.37-1.83-2.17-2.63-.8-.81-1.69-1.54-2.63-2.17-.95-.64-1.97-1.2-3.02-1.64-1.08-.45-2.2-.8-3.35-1.04-1.17-.24-2.38-.36-3.58-.36s-2.41.12-3.58.36c-1.14.23-2.27.58-3.34,1.04-1.05.45-2.07,1-3.02,1.64-.94.64-1.83,1.37-2.63,2.17-.8.8-1.54,1.69-2.17,2.63-.64.95-1.2,1.97-1.64,3.02-.46,1.08-.8,2.2-1.04,3.35-.24,1.17-.36,2.38-.36,3.58s.12,2.41.36,3.59c.23,1.14.58,2.27,1.04,3.34.45,1.05,1,2.07,1.64,3.02.64.94,1.37,1.83,2.17,2.63.8.8,1.69,1.53,2.63,2.17.95.64,1.97,1.2,3.02,1.64,1.07.46,2.2.8,3.34,1.04,1.17.24,2.38.36,3.58.36s2.41-.12,3.58-.36c1.14-.23,2.27-.58,3.35-1.04,1.05-.45,2.07-1,3.02-1.64.94-.64,1.83-1.37,2.63-2.17.8-.81,1.54-1.69,2.17-2.63.64-.95,1.2-1.97,1.64-3.02.45-1.07.8-2.2,1.04-3.34.24-1.17.36-2.38.36-3.59,0-1.21-.12-2.41-.36-3.58ZM40.35,26.94c-.22-.05-5.36-1.15-10.59-.5-.11-.26-.22-.52-.33-.78-.32-.74-.66-1.48-1.01-2.2,6-2.45,8.44-5.97,8.47-6.02,2.13,2.59,3.42,5.9,3.46,9.5ZM27.25,21.19c5.74-2.15,7.9-5.45,7.94-5.5-2.68-2.36-6.19-3.79-10.04-3.79-1.23,0-2.43.15-3.58.43.23.3,3.08,4.09,5.68,8.87ZM18.67,13.35c.2.27,3.01,4.08,5.64,8.76-7.3,1.94-13.63,1.86-14.03,1.86.99-4.71,4.15-8.61,8.39-10.61ZM9.96,26.69c0,.13,0,.26,0,.4,0,3.91,1.47,7.47,3.89,10.16,0,0,0,0,0,0,0,0,4.16-7.38,12.36-10.03.2-.06.4-.13.6-.18-.38-.87-.8-1.73-1.23-2.58-7.8,2.33-15.29,2.17-15.6,2.17h0s0,.08,0,.08ZM25.15,42.29c-3.68,0-7.05-1.31-9.68-3.48.2.16.34.27.34.27,0,0,2.91-6.35,11.93-9.5.03-.01.06-.02.08-.03h.02c2.14,5.55,3.02,10.21,3.25,11.54-1.82.78-3.83,1.2-5.93,1.2ZM30.69,28.84c1.99,5.48,2.8,9.94,2.96,10.86,3.41-2.31,5.84-5.96,6.51-10.19-.31-.1-4.57-1.45-9.47-.66Z"/>
</svg>