<svg width="53" height="52" viewBox="0 0 53 52" fill="none" xmlns="http://www.w3.org/2000/svg">
<path d="M26.6338 25.311C26.6338 22.1931 29.1296 19.6663 32.2067 19.6663H33.0128C33.0347 19.667 33.0589 19.6655 33.0816 19.6655C36.5343 19.6655 39.3339 22.5024 39.3339 25.9993C39.3339 29.4962 36.5343 32.3324 33.0816 32.3324C33.0589 32.3324 33.0347 32.3316 33.0121 32.3316L32.2067 32.3324C29.1296 32.3324 26.6338 29.804 26.6338 26.6868V25.311Z" fill="#00B6FF"/>
<path d="M14 38.6675C14 35.1699 16.7996 32.333 20.2523 32.333L26.6313 32.3337V38.6023C26.6313 42.1363 23.7717 44.9998 20.2831 44.9998C16.8311 44.9998 14 42.1645 14 38.6675Z" fill="#24CB71"/>
<path d="M26.6338 7.00074V19.6668H33.0128C33.0347 19.6661 33.0589 19.6676 33.0816 19.6676C36.5343 19.6676 39.3339 16.8307 39.3339 13.3338C39.3339 9.83611 36.5343 7 33.0816 7C33.0589 7 33.0347 7.00074 33.0121 7.00074H26.6338Z" fill="#FF7237"/>
<path d="M14 13.3333C14 16.8309 16.7996 19.6671 20.2523 19.6671H26.6313V7.00098H20.2516C16.7996 7.00098 14 9.83634 14 13.3333Z" fill="#FF3737"/>
<path d="M14 26.0003C14 29.4979 16.7996 32.334 20.2523 32.334H26.6313V19.668H20.2516C16.7996 19.668 14 22.5033 14 26.0003Z" fill="#874FFF"/>
</svg>
