<?xml version="1.0" encoding="UTF-8"?>
<svg id="Layer_1" xmlns="http://www.w3.org/2000/svg" version="1.1" viewBox="0 0 50 50">
  <!-- Generator: Adobe Illustrator 30.2.1, SVG Export Plug-In . SVG Version: 2.1.1 Build 1)  -->
  <defs>
    <style>
      .st0 {
        fill: #333;
        fill-rule: evenodd;
      }
    </style>
  </defs>
  <path class="st0" d="M15.72,12.47c-.04-1.87-1.29-3.3-3.31-3.3s-3.35,1.42-3.35,3.3,1.29,3.3,3.27,3.3h.04c2.07,0,3.35-1.47,3.35-3.3ZM15.72,40.8v-20.91h-6.46v20.91h6.46ZM26.27,28.88v11.92h-6.5s.09-19.04,0-21.04h6.5l-.05,2.8c.93-1.46,2.61-3.59,6.44-3.59,4.67,0,8.16,3.05,8.16,9.6v12.23h-6.51v-11.92c0-2.87-1.61-4.32-4.18-4.32-1.96,0-3.13,1.32-3.64,2.59-.19.45-.23,1.09-.23,1.73h.01Z"/>
</svg>