<?xml version="1.0" encoding="UTF-8"?>
<svg id="Layer_1" xmlns="http://www.w3.org/2000/svg" version="1.1" viewBox="0 0 52 52">
  <!-- Generator: Adobe Illustrator 30.2.1, SVG Export Plug-In . SVG Version: 2.1.1 Build 1)  -->
  <defs>
    <style>
      .st0 {
        fill: #e3e3e3;
      }
    </style>
  </defs>
  <path class="st0" d="M21.18,7.4h18.76c.59,0,1.06.47,1.06,1.06v35.29c0,.59-.48,1.06-1.06,1.06H12.06c-.59,0-1.06-.47-1.06-1.06V8.46c0-.59.47-1.06,1.06-1.06h2.32v-3.95c0-.59.47-1.06,1.06-1.06h4.68c.59,0,1.06.48,1.06,1.06v3.95ZM30.25,15.84c1.2,0,2.18.97,2.18,2.18,0,.82-.45,1.53-1.12,1.9v3.15c2.07-.49,3.54-2.34,3.54-4.48,0-2.54-2.06-4.6-4.6-4.6s-4.6,2.06-4.6,4.6c0,2.14,1.47,3.99,3.54,4.48v-3.15c-.67-.37-1.12-1.08-1.12-1.9,0-1.2.97-2.18,2.18-2.18ZM16.53,28.31c-1.39,0-1.39-2.12,0-2.12h7.73c1.39,0,1.39,2.12,0,2.12h-7.73ZM16.53,38.22c-1.39,0-1.39-2.12,0-2.12h18.95c1.39,0,1.39,2.12,0,2.12h-18.95ZM16.53,31.61c-1.39,0-1.39-2.12,0-2.12h7.73c1.39,0,1.39,2.12,0,2.12h-7.73ZM16.53,34.92c-1.39,0-1.39-2.12,0-2.12h18.95c1.39,0,1.39,2.12,0,2.12h-18.95ZM30.25,11.87c3.71,0,6.72,3.01,6.72,6.72s-3.01,6.72-6.72,6.72-6.72-3.01-6.72-6.72,3.01-6.72,6.72-6.72ZM14.38,9.52h-1.26v33.16h25.76V9.52h-17.7v2.32c0,.59-.47,1.06-1.06,1.06h-4.68c-.59,0-1.06-.47-1.06-1.06v-2.32ZM19.06,4.51h-2.56v6.26h2.56v-6.26Z"/>
</svg>