<svg xmlns="http://www.w3.org/2000/svg" width="200" height="88" fill="none"><path fill="#96A1BC" d="M76.963 55.517c-2.181-6.241-1.41-12.08 2.147-13.488 3.557-1.41 7.851 2.818 10.032 9.059.604 1.745 1.007 3.49 1.14 5.066h4.262c.235-.973.37-1.946.37-2.986 0-7.918-5.37-12.414-11.61-12.414-6.51 0-12.112 5.637-12.112 12.783 0 .906.1 1.779.235 2.617h5.77c-.067-.2-.134-.402-.234-.637ZM36.297 29.245h1.645c3.992 0 6.005 1.678 6.005 7.65 0 5.066-1.677 7.784-5.603 7.784h-2.047V29.245Zm-6.274 26.91h6.274V44.98h2.316c5.267 0 7.113 4.63 7.113 9.395 0 .638-.034 1.208-.101 1.812h6.677a8.96 8.96 0 0 0 .268-2.148c.034-5.267-4.932-8.69-11.91-9.193 4.83-.604 10.132-3.02 10.132-8.355 0-4.227-4.295-7.08-11.14-7.515h-3.321a254.8 254.8 0 0 1-3.758.067c-.637 0-1.711-.034-2.65-.034v4.328M140.98 43.874c2.718 0 4.228 1.14 4.228 6.107v6.173h5.435v-7.046c.067-5.536-1.744-8.32-6.106-8.32-2.953 0-6.375 2.75-8.422 4.864v.772c1.309-1.443 3.154-2.55 4.865-2.55Zm28.318 9.764c-3.321-3.255-9.696-3.422-9.696-8.623 0-2.282 1.141-3.859 3.489-3.859 2.919 0 4.899 3.456 6.174 6.812v-6.14c-.537-.27-2.416-1.007-5.738-1.007-4.73 0-8.555 2.785-8.555 6.677 0 5.57 5.032 6.543 8.455 8.69h5.838v-2.55h.033Zm-45.899-3.49c1.275-3.59 4.194-9.495 4.194-9.495-2.315.94-7.952 2.986-7.952 2.986s4.261 3.087 3.188 6.912l-1.644 5.603h.268c.839-2.617 1.577-4.999 1.946-6.006Zm-19.427-3.59c-1.342-4.294.235-5.939.235-5.939a61.049 61.049 0 0 1-9.361 2.987s2.55.973 3.389 3.657c.436 1.376 1.644 5.1 2.852 8.891h5.972a902.333 902.333 0 0 1-3.087-9.596Zm7.046 1.309 3.288 8.287h6.006l-6.677-16.273-5.972 16.273h.335l3.02-8.287Z"/><path fill="#96A1BC" d="M136.115 45.686c.034-3.054.034-5.033.034-5.033s-2.013 1.14-3.456 1.71c-1.242.504-2.416 1.008-4.06 1.242 0 0 1.98.906 1.98 4.43v8.12h5.469v-6.51c0-1.14.033-2.215.033-3.188m-67.104-5.67c-2.953 0-5.503 2.885-7.08 5.335v1.107c1.275-1.61 3.02-2.516 4.664-2.516 1.745 0 3.288 1.174 3.926 2.952v-6.543c-.034 0-.504-.335-1.51-.335Zm-7.08-.168s-2.013 1.14-3.456 1.711c-1.241.504-2.415 1.007-4.06 1.242 0 0 1.98.906 1.98 4.429v8.153h5.503v-6.51c0-.838 0-1.643.033-2.415v-6.61Z"/></svg>