<svg xmlns="http://www.w3.org/2000/svg" width="50" height="50" viewBox="0 0 50 50" fill="none">
<path fill-rule="evenodd" clip-rule="evenodd" d="M42.5896 23.505C42.3563 22.3616 42.0057 21.2355 41.5521 20.1598C41.1064 19.1036 40.5534 18.087 39.9112 17.1366C39.274 16.1941 38.5432 15.3085 37.7382 14.5042C36.934 13.6986 36.0477 12.967 35.1059 12.3313C34.1555 11.6869 33.1374 11.1361 32.0826 10.689C31.007 10.2361 29.8816 9.88472 28.7375 9.65288C27.5661 9.4124 26.3594 9.29 25.1541 9.29C23.9474 9.29 22.7421 9.4124 21.5692 9.65288C20.4258 9.88472 19.2998 10.2368 18.2248 10.689C17.17 11.1361 16.1519 11.6876 15.2001 12.3313C14.2576 12.967 13.372 13.6978 12.5678 14.5042C11.7628 15.3085 11.0327 16.1948 10.3962 17.1366C9.75328 18.087 9.20104 19.1036 8.75536 20.1598C8.2996 21.2355 7.9504 22.3616 7.7164 23.505C7.47664 24.675 7.35496 25.8817 7.35496 27.0877C7.35496 28.2958 7.47664 29.5026 7.7164 30.6733C7.9504 31.8166 8.30032 32.9427 8.75464 34.0177C9.20032 35.0725 9.75328 36.092 10.3955 37.0424C11.032 37.9849 11.7621 38.869 12.567 39.6747C13.3713 40.479 14.2576 41.209 15.1994 41.8462C16.1512 42.4892 17.1693 43.0414 18.2241 43.4871C19.2983 43.9429 20.4251 44.2899 21.5685 44.5246C22.7414 44.7666 23.9466 44.8875 25.1534 44.8875C26.3586 44.8875 27.5654 44.7666 28.7368 44.5246C29.8816 44.2899 31.0062 43.9422 32.0819 43.4871C33.1367 43.0414 34.1548 42.4885 35.1052 41.8462C36.0477 41.209 36.9333 40.4797 37.7375 39.6747C38.5418 38.869 39.2733 37.9842 39.9105 37.0424C40.5534 36.092 41.1057 35.0725 41.5514 34.0177C42.0057 32.9434 42.3556 31.8166 42.5889 30.6733C42.8294 29.5018 42.9503 28.2951 42.9503 27.0877C42.951 25.8817 42.8301 24.675 42.5896 23.505ZM40.3475 26.9372C40.1279 26.8897 34.9842 25.7823 29.7614 26.439C29.6548 26.179 29.5461 25.917 29.4338 25.6542C29.1177 24.9104 28.7771 24.1731 28.4229 23.4495C34.4262 21.0001 36.8634 17.4757 36.8915 17.4339C39.0234 20.0216 40.313 23.3293 40.3475 26.9372ZM27.2529 21.1851C32.9898 19.0345 35.1542 15.7398 35.1923 15.6807C32.5139 13.3227 29.0025 11.8885 25.1534 11.8885C23.9186 11.8885 22.7205 12.039 21.5714 12.3176C21.7996 12.6186 24.6544 16.4108 27.2529 21.1851ZM18.6676 13.3407C18.8699 13.6122 21.6815 17.4231 24.3124 22.0988C17.0138 24.0378 10.6799 23.9622 10.2782 23.955C11.266 19.2469 14.429 15.343 18.6676 13.3407ZM9.96339 26.6885C9.95841 26.821 9.95344 26.9531 9.95344 27.0877C9.95344 30.993 11.4273 34.5534 13.8472 37.2469C13.8472 37.244 13.8414 37.2397 13.8414 37.2397C13.8414 37.2397 18.0023 29.8582 26.2053 27.2072C26.4033 27.1424 26.6034 27.0819 26.8043 27.0258C26.4234 26.1603 26.0066 25.2942 25.571 24.4417C17.7712 26.7761 10.2839 26.6143 9.96929 26.6075L9.9664 26.6074L9.96339 26.6885ZM25.1534 42.289C21.4749 42.289 18.101 40.9815 15.4715 38.8057C15.671 38.9677 15.8121 39.0714 15.8121 39.0714C15.8121 39.0714 18.7259 32.7166 27.7396 29.576C27.7678 29.5652 27.7959 29.5569 27.8241 29.5486L27.8242 29.5486L27.8411 29.5436C29.9802 35.1013 30.863 39.7561 31.0883 41.0845C29.2638 41.8606 27.2586 42.289 25.1534 42.289ZM30.6887 28.8387C32.6824 34.3172 33.4924 38.7783 33.6472 39.6963C37.06 37.3909 39.4842 33.7376 40.161 29.5026C39.8478 29.3996 35.5948 28.0539 30.6887 28.8387Z" fill="url(#paint0_linear_416_2286)"/>
<defs>
<linearGradient id="paint0_linear_416_2286" x1="4.8029" y1="53.2992" x2="63.979" y2="27.6613" gradientUnits="userSpaceOnUse">
<stop stop-color="#25D16A"/>
<stop offset="1" stop-color="#CFF006"/>
</linearGradient>
</defs>
</svg>