<?xml version="1.0" encoding="UTF-8"?><svg xmlns="http://www.w3.org/2000/svg" fill="none" viewBox="0 0 158 18">
<path d="m4.7797 7.9447c0.48802-0.70332 1.0837-1.2631 1.787-1.6794 0.70333-0.43061 1.4354-0.64591 2.1961-0.64591v5.1027h-1.3564c-0.90427 0-1.5717 0.1579-2.0023 0.4736-0.41625 0.3158-0.62438 0.8756-0.62438 1.6794v4.9735h-4.7797v-12.143h4.7797v2.2392z" fill="url(#a)"/>
<path d="m22.06 11.669c0 0.3301-0.0215 0.6459-0.0645 0.9473h-7.6864c0.0718 1.0478 0.5096 1.5718 1.3134 1.5718 0.5167 0 0.8899-0.2369 1.1196-0.7105h5.0596c-0.1723 0.8612-0.5383 1.6363-1.0981 2.3252-0.5454 0.6746-1.2415 1.2129-2.0884 1.6148-0.8325 0.3875-1.7511 0.5813-2.7559 0.5813-1.2057 0-2.2822-0.2512-3.2295-0.7535-0.933-0.5024-1.665-1.2201-2.1961-2.1531-0.51673-0.9473-0.7751-2.0525-0.7751-3.3156s0.25837-2.3612 0.7751-3.2942c0.5311-0.94733 1.2631-1.6722 2.1961-2.1746 0.9473-0.50237 2.0238-0.75356 3.2295-0.75356s2.2751 0.25119 3.208 0.75356c0.9474 0.48802 1.6794 1.1913 2.1961 2.11 0.5311 0.91862 0.7966 2.0024 0.7966 3.2511zm-4.8443-1.1411c0-0.4019-0.1291-0.70332-0.3875-0.90427-0.2584-0.2153-0.5813-0.32295-0.9689-0.32295-0.8468 0-1.342 0.40907-1.4856 1.2272h2.842z" fill="url(#a)"/>
<path d="m32.331 5.6194c1.3923 0 2.476 0.46649 3.2511 1.3995 0.7894 0.93298 1.1842 2.1961 1.1842 3.7893v7.0404h-4.7582v-6.4376c0-0.5741-0.1579-1.0262-0.4737-1.3564-0.3014-0.34445-0.7105-0.51669-1.2272-0.51669-0.5311 0-0.9474 0.17224-1.2488 0.51669-0.3014 0.3302-0.4521 0.7823-0.4521 1.3564v6.4376h-4.7797v-12.143h4.7797v1.8516c0.3732-0.57414 0.8684-1.0406 1.4856-1.3995 0.6315-0.35884 1.3779-0.53826 2.2391-0.53826z" fill="url(#a)"/>
<path d="m38.447 11.777c0-1.2775 0.2153-2.3827 0.6459-3.3157 0.445-0.94733 1.0478-1.665 1.8086-2.153 0.7607-0.50237 1.6147-0.75356 2.5621-0.75356 0.7894 0 1.4712 0.16507 2.0453 0.4952 0.5742 0.31578 1.012 0.75356 1.3134 1.3133v-1.6578h4.7582v12.143h-4.7582v-1.6578c-0.3014 0.5598-0.7392 1.0047-1.3134 1.3348-0.5741 0.3158-1.2559 0.4737-2.0453 0.4737-0.9474 0-1.8014-0.244-2.5621-0.732-0.7608-0.5024-1.3636-1.2201-1.8086-2.153-0.4306-0.9474-0.6459-2.0598-0.6459-3.3372zm8.3753 0c0-0.6459-0.1651-1.1483-0.4952-1.5072-0.3301-0.3588-0.7536-0.53821-1.2703-0.53821s-0.9401 0.17941-1.2703 0.53821c-0.3301 0.3589-0.4952 0.8613-0.4952 1.5072s0.1651 1.1482 0.4952 1.5071c0.3302 0.3588 0.7536 0.5382 1.2703 0.5382s0.9402-0.1794 1.2703-0.5382c0.3301-0.3589 0.4952-0.8612 0.4952-1.5071z" fill="url(#a)"/>
<path d="m62.486 5.6194c1.3923 0 2.476 0.46649 3.2511 1.3995 0.7894 0.93298 1.1841 2.1961 1.1841 3.7893v7.0404h-4.7582v-6.4376c0-0.5741-0.1579-1.0262-0.4736-1.3564-0.3015-0.34445-0.7105-0.51669-1.2273-0.51669-0.531 0-0.9473 0.17224-1.2487 0.51669-0.3014 0.3302-0.4521 0.7823-0.4521 1.3564v6.4376h-4.7798v-12.143h4.7798v1.8516c0.3731-0.57414 0.8683-1.0406 1.4855-1.3995 0.6316-0.35884 1.378-0.53826 2.2392-0.53826z" fill="url(#a)"/>
<path d="m68.602 11.777c0-1.2631 0.2584-2.3612 0.7751-3.2942 0.5311-0.94733 1.2631-1.6722 2.1961-2.1746 0.9473-0.50237 2.0238-0.75356 3.2295-0.75356 1.5789 0 2.9066 0.44496 3.9831 1.3349 1.0909 0.88992 1.7798 2.1243 2.0669 3.7032h-5.0596c-0.1866-0.63156-0.5526-0.94734-1.098-0.94734-0.3876 0-0.6962 0.17942-0.9258 0.53824-0.2153 0.3589-0.323 0.8899-0.323 1.5933 0 0.7033 0.1077 1.2344 0.323 1.5932 0.2296 0.3588 0.5382 0.5383 0.9258 0.5383 0.5454 0 0.9114-0.3158 1.098-0.9474h5.0596c-0.2871 1.5789-0.976 2.8133-2.0669 3.7032-1.0765 0.8899-2.4042 1.3349-3.9831 1.3349-1.2057 0-2.2822-0.2512-3.2295-0.7535-0.933-0.5024-1.665-1.2201-2.1961-2.1531-0.5167-0.9473-0.7751-2.0525-0.7751-3.3156z" fill="url(#a)"/>
<path d="m87.402 7.9447c0.488-0.70332 1.0837-1.2631 1.787-1.6794 0.7033-0.43061 1.4353-0.64591 2.1961-0.64591v5.1027h-1.3564c-0.9043 0-1.5717 0.1579-2.0023 0.4736-0.4163 0.3158-0.6244 0.8756-0.6244 1.6794v4.9735h-4.7797v-12.143h4.7797v2.2392z" fill="url(#a)"/>
<path d="m98.698 17.999c-1.2201 0-2.3181-0.2512-3.2941-0.7535-0.9761-0.5024-1.744-1.2201-2.3038-2.1531-0.5454-0.9473-0.8181-2.0525-0.8181-3.3156s0.2727-2.3612 0.8181-3.2942c0.5598-0.94733 1.3277-1.6722 2.3038-2.1746 0.976-0.50237 2.074-0.75356 3.2941-0.75356 1.22 0 2.3185 0.25119 3.2945 0.75356s1.736 1.2272 2.282 2.1746c0.56 0.93298 0.84 2.0311 0.84 3.2942s-0.28 2.3683-0.84 3.3156c-0.546 0.933-1.306 1.6507-2.282 2.1531-0.976 0.5023-2.0745 0.7535-3.2945 0.7535zm0-4.1338c0.4449 0 0.8181-0.1722 1.1196-0.5167 0.3009-0.3589 0.4519-0.8828 0.4519-1.5717 0-0.689-0.151-1.2057-0.4519-1.5502-0.3015-0.35886-0.6747-0.53828-1.1196-0.53828-0.445 0-0.8182 0.17942-1.1196 0.53828-0.3014 0.3445-0.4521 0.8612-0.4521 1.5502 0 0.6889 0.1435 1.2128 0.4306 1.5717 0.3014 0.3445 0.6818 0.5167 1.1411 0.5167z" fill="url(#a)"/>
<path d="m106.22 11.777c0-1.2631 0.258-2.3612 0.775-3.2942 0.531-0.94733 1.263-1.6722 2.196-2.1746 0.947-0.50237 2.024-0.75356 3.229-0.75356 1.579 0 2.907 0.44496 3.983 1.3349 1.091 0.88992 1.78 2.1243 2.067 3.7032h-5.059c-0.187-0.63156-0.553-0.94734-1.098-0.94734-0.388 0-0.696 0.17942-0.926 0.53824-0.215 0.3589-0.323 0.8899-0.323 1.5933 0 0.7033 0.108 1.2344 0.323 1.5932 0.23 0.3588 0.538 0.5383 0.926 0.5383 0.545 0 0.911-0.3158 1.098-0.9474h5.059c-0.287 1.5789-0.976 2.8133-2.067 3.7032-1.076 0.8899-2.404 1.3349-3.983 1.3349-1.205 0-2.282-0.2512-3.229-0.7535-0.933-0.5024-1.665-1.2201-2.196-2.1531-0.517-0.9473-0.775-2.0525-0.775-3.3156z" fill="url(#a)"/>
<path d="m122.66 4.7367c-0.832 0-1.5-0.22248-2.002-0.66744s-0.754-1.0047-0.754-1.6794c0-0.68897 0.252-1.2559 0.754-1.7009 0.502-0.45931 1.17-0.68897 2.002-0.68897 0.819 0 1.479 0.22966 1.981 0.68897 0.503 0.44496 0.754 1.0119 0.754 1.7009 0 0.67462-0.251 1.2344-0.754 1.6794-0.502 0.44496-1.162 0.66744-1.981 0.66744zm2.369 0.96886v12.143h-4.78v-12.143h4.78z" fill="url(#a)"/>
<path d="m126.79 11.777c0-1.2775 0.215-2.3827 0.646-3.3157 0.445-0.94733 1.048-1.665 1.808-2.153 0.761-0.50237 1.615-0.75356 2.563-0.75356 0.789 0 1.471 0.16507 2.045 0.4952 0.574 0.31578 1.012 0.75356 1.313 1.3133v-1.6578h4.758v12.143h-4.758v-1.6578c-0.301 0.5598-0.739 1.0047-1.313 1.3348-0.574 0.3158-1.256 0.4737-2.045 0.4737-0.948 0-1.802-0.244-2.563-0.732-0.76-0.5024-1.363-1.2201-1.808-2.153-0.431-0.9474-0.646-2.0598-0.646-3.3372zm8.375 0c0-0.6459-0.165-1.1483-0.495-1.5072-0.33-0.3588-0.753-0.53821-1.27-0.53821s-0.94 0.17941-1.271 0.53821c-0.33 0.3589-0.495 0.8613-0.495 1.5072s0.165 1.1482 0.495 1.5071c0.331 0.3588 0.754 0.5382 1.271 0.5382s0.94-0.1794 1.27-0.5382c0.33-0.3589 0.495-0.8612 0.495-1.5071z" fill="url(#a)"/>
<path d="m147.27 7.9447c0.488-0.70332 1.084-1.2631 1.787-1.6794 0.704-0.43061 1.436-0.64591 2.196-0.64591v5.1027h-1.356c-0.904 0-1.572 0.1579-2.002 0.4736-0.417 0.3158-0.625 0.8756-0.625 1.6794v4.9735h-4.779v-12.143h4.779v2.2392z" fill="url(#a)"/>
<path d="m155.27 4.7367c-0.833 0-1.5-0.22248-2.003-0.66744-0.502-0.44496-0.753-1.0047-0.753-1.6794 0-0.68897 0.251-1.2559 0.753-1.7009 0.503-0.45931 1.17-0.68897 2.003-0.68897 0.818 0 1.478 0.22966 1.98 0.68897 0.503 0.44496 0.754 1.0119 0.754 1.7009 0 0.67462-0.251 1.2344-0.754 1.6794-0.502 0.44496-1.162 0.66744-1.98 0.66744zm2.368 0.96886v12.143h-4.78v-12.143h4.78z" fill="url(#a)"/>
<defs>
<linearGradient id="a" x1="-11.328" x2="8.8445" y1="22.252" y2="-54.47" gradientUnits="userSpaceOnUse">
<stop stop-color="#CFF006" offset="0"/>
<stop stop-color="#25D16A" offset="1"/>
</linearGradient>
</defs>
</svg>