<svg xmlns="http://www.w3.org/2000/svg" width="200" height="88" fill="none"><path fill="#96A1BC" d="m32.095 43.955-.938-.285c-.653-.203-1.632-.57-1.51-1.424.123-.814 1.143-1.261 1.877-1.261 1.182-.04 2.12.163 2.732.732l.653-3.052a6.695 6.695 0 0 0-3.426-.935c-3.018 0-5.465 1.993-5.954 5.005-.449 2.889 1.06 3.54 3.385 4.231.774.245 2.283.61 2.08 1.71-.164 1.057-1.224 1.505-2.121 1.505-1.346 0-2.365-.692-3.222-1.546l-2.161 3.133a8.082 8.082 0 0 0 4.975 1.709c1.509 0 3.14-.407 4.486-1.424 1.346-1.017 1.957-2.523 2.202-4.029.367-2.4-1.06-3.458-3.058-4.069ZM67.41 41.188c-1.467-2.849-4.485-2.849-6.198-2.849h-5.057l-2.243 12.004-2.528-12.004h-3.059L40.332 51.93l1.876-10.173h3.059l1.957-3.418H35.847l-.653 3.418h3.14l-2.202 11.8h7.422l1.224-2.197h5.301l.326 2.198h8.279c5.79 0 8.482-3.5 9.257-7.65.286-1.628.245-3.255-.53-4.72Zm-21.002 7.12 2.529-5.208h.081l.612 5.209h-3.222Zm17.618-2.319c-.408 2.157-1.59 4.191-4.486 4.191h-1.672l1.55-8.382h1.672c1.712 0 2.365.733 2.691 1.384.408.854.408 1.953.245 2.807ZM69.816 38.38l-2.854 15.178h3.874l2.855-15.178h-3.875ZM86.17 38.38h-3.915l-1.713 9.196c-.244 1.22-.53 2.89-2.487 2.89-1.917 0-1.632-1.873-1.428-2.89l1.713-9.196h-3.874l-1.713 9.196c-.408 2.238-.367 3.296.653 4.68 1.02 1.342 2.977 1.627 4.078 1.627 1.876 0 3.385-.65 4.567-1.627 1.142-.977 1.917-2.116 2.406-4.68l1.713-9.196ZM93.062 48.39h-.041l-1.183-10.01h-4.975l-2.855 15.178h3.589l1.998-11.353.041-.04 1.142 11.394h2.57l5.382-11.394.041.04-2.243 11.353h3.589l2.814-15.178h-5.016l-4.853 10.01ZM169.732 44.403l-.938-.285c-.653-.203-1.632-.57-1.509-1.424.122-.814 1.141-1.261 1.875-1.261.938 0 1.794.407 2.406.976l2.04-3.011c-1.224-.773-2.978-1.22-4.487-1.22-2.528 0-4.689 1.423-5.587 3.702-.081-.203-.163-.366-.245-.57-1.427-2.848-4.485-2.848-6.198-2.848h-5.057l-.734 3.906c-.856-2.441-3.14-4.19-6.362-4.19-4.119 0-6.932 2.644-8.197 4.597-.693-2.726-3.058-4.72-6.524-4.72-4.283 0-7.178 2.849-8.32 4.842-.326.57-.612 1.14-.775 1.71h-8.482l-.571 3.092h4.567c-.693 1.465-2.161 2.441-4.119 2.441-1.916 0-3.915-1.383-3.344-4.557.571-3.011 3.059-4.435 4.976-4.435 1.631 0 2.61.895 2.977 1.953h4.363c-.285-2.93-2.977-5.371-6.606-5.371-4.486 0-8.768 3.296-9.625 7.812-.815 4.395 1.999 7.976 6.607 7.976 3.425 0 6.973-1.994 8.727-5.453.285 3.133 2.692 5.738 6.688 5.738 3.425 0 6.485-1.913 8.197-4.599.693 2.645 2.977 4.68 6.485 4.68 3.261 0 6.158-1.71 7.91-4.191l-.733 3.906h5.342c5.75 0 8.482-3.459 9.258-7.568.611.61 1.589.976 2.772 1.302.816.244 2.285.61 2.08 1.709-.163 1.058-1.223 1.505-2.12 1.505-1.223 0-2.202-.65-3.018-1.424-.612 1.302-1.101 1.79-1.998 2.727 1.305.976 2.854 1.993 4.649 1.993 1.509 0 3.14-.407 4.486-1.424 1.346-1.017 1.957-2.523 2.202-4.028.367-2.32-1.061-3.378-3.058-3.988Zm-36.826 1.587c-.367 1.953-2.161 4.476-4.935 4.476-2.61 0-3.792-2.157-3.344-4.517.408-2.156 2.285-4.435 4.975-4.435 2.815-.04 3.671 2.482 3.304 4.476Zm14.722.122c-.367 1.953-2.162 4.476-4.935 4.476-2.609 0-3.792-2.157-3.344-4.517.408-2.156 2.284-4.435 4.976-4.435 2.813-.04 3.67 2.482 3.303 4.476Zm12.234 0c-.408 2.157-1.59 4.191-4.485 4.191h-1.673l1.55-8.382h1.672c1.712 0 2.365.732 2.692 1.383.448.855.408 1.953.244 2.808ZM174.741 41.963a3.695 3.695 0 0 1 3.712-3.703c2.08 0 3.711 1.628 3.711 3.703a3.694 3.694 0 0 1-3.711 3.703c-2.039 0-3.712-1.668-3.712-3.703Zm.612 0a3.095 3.095 0 0 0 3.1 3.093c1.713 0 3.1-1.384 3.1-3.093 0-1.75-1.387-3.093-3.1-3.093s-3.1 1.343-3.1 3.093Zm3.018.448h-.693v1.668h-.653v-4.232h1.754c.815 0 1.428.488 1.428 1.302 0 .936-.856 1.262-1.101 1.262l1.141 1.709h-.775l-1.101-1.71Zm-.693-2.035v1.465h1.101c.49 0 .775-.285.775-.733 0-.488-.285-.773-.775-.773h-1.101v.041Z"/></svg>