<svg class="hamburger-menu-svg" width="32" height="32" viewBox="0 0 32 32" fill="none" xmlns="http://www.w3.org/2000/svg">
<path class="top" x="15" y="21.75" d="M8 23C8 22.4477 8.44772 22 9 22H27C27.5523 22 28 22.4477 28 23C28 23.5523 27.5523 24 27 24H9C8.44772 24 8 23.5523 8 23Z" fill="#222222"/>
<path class="middle" x="15" y="21.75" d="M4 16C4 15.4477 4.44772 15 5 15H27C27.5523 15 28 15.4477 28 16C28 16.5523 27.5523 17 27 17H5C4.44772 17 4 16.5523 4 16Z" fill="#222222"/>
<path class="bottom" x="15" y="21.75" d="M8 9C8 8.44772 8.44772 8 9 8H27C27.5523 8 28 8.44772 28 9C28 9.55228 27.5523 10 27 10H9C8.44772 10 8 9.55228 8 9Z" fill="#222222"/>
</svg>







<svg class="hamburger-menu-svg" viewBox="0 0 220 100" xmlns="http://www.w3.org/2000/svg">
    <rect class="top" width="20" height="2" x="0" y="0" rx="2" />
    <rect class="middle" width="24" height="2" x="0" y="10" rx="2" />
    <rect class="bottom" width="20" height="2" x="0" y="10" rx="2" />
</svg>
