<svg xmlns="http://www.w3.org/2000/svg" width="200" height="88" fill="none"><path fill="#96A1BC" d="M46.143 36.51 40.78 51.63h-.16l-3.807-10.295-3.646 10.295h-.16l-6.81-18.605c-.16-.456-.322-.804-.483-1.046-.16-.24-.321-.455-.509-.59-.188-.133-.563-.24-.777-.294a15.847 15.847 0 0 0-.724-.161V30.8c.188 0 .402 0 .59.027.24 0 .697.026.991.026.295 0 .563.027.858.027h.805c.509 0 1.018 0 1.528-.027.482 0 1.099-.026 1.394-.053v.134c-.537.053-1.126.16-1.34.322-.215.16-.322.402-.322.723 0 .188.026.403.107.617.08.241.16.51.241.75l5.174 14.262 2.627-7.613-2.547-6.97c-.16-.456-.321-.804-.482-1.046-.161-.24-.322-.455-.51-.59a1.623 1.623 0 0 0-.563-.294c-.214-.054-.643-.107-.911-.161V30.8c3.351.053 7.747.08 11.018 0v.134c-.349.107-.858.268-1.153.456-.268.187-.536.482-.804.884s-.536.938-.831 1.609c-.295.67-.617 1.528-1.019 2.627l-.643 1.796 3.378 9.33 3.967-11.475c.268-.777.51-1.581.777-2.359.188-.643.295-1.126.295-1.5 0-.403-.107-.698-.348-.912-.241-.188-.804-.349-1.314-.43v-.133c.322.026.965.026 1.555.053.59 0 1.153.027 1.662.027.483 0 .831 0 1.046-.027.214 0 .67-.027.965-.053v.134c-.349.107-.858.268-1.153.455-.268.188-.536.483-.804.885s-.536.938-.831 1.608c-.241.644-.59 1.529-.965 2.6Zm-8.471-.375c.268-.778.509-1.582.777-2.36.188-.643.295-1.125.295-1.5 0-.403-.107-.698-.349-.912-.24-.188-.616-.349-1.126-.43-.536.055-.911.162-1.152.323-.215.16-.322.402-.322.723 0 .188.027.403.107.617.08.241.161.51.242.75l1.286 3.566c-.026 0 .242-.777.242-.777ZM24.16 35.92c.509 0 .911-.027 1.206-.053V36a4.363 4.363 0 0 0-.697.187 1.27 1.27 0 0 0-.51.322c-.133.16-.24.402-.321.697-.08.322-.107.75-.107 1.313v16.648c0 .831-.054 1.582-.161 2.279-.107.697-.322 1.287-.644 1.796-.321.51-.75.938-1.313 1.287-.563.322-1.287.563-2.172.67l-.026-.134c.482-.08.857-.214 1.18-.348.294-.135.535-.322.696-.59.161-.242.268-.59.322-.992.053-.402.08-.938.08-1.555v-19.06c0-.563-.053-.992-.134-1.314a1.821 1.821 0 0 0-.348-.724c-.161-.16-.349-.295-.563-.348a28.184 28.184 0 0 0-.697-.161v-.134c.402.026.83.026 1.233.053.51 0 1.019.027 1.555.027h1.42Zm73.988 2.68a8.708 8.708 0 0 1 2.44 3.218c.563 1.287.858 2.734.858 4.343 0 1.34-.215 2.627-.644 3.86-.429 1.206-1.072 2.279-1.957 3.19-.884.912-2.01 1.636-3.35 2.172-1.34.536-2.95.804-4.772.804-.376 0-.805 0-1.26-.027-.992-.027-2.01-.027-3.003-.053-.509 0-.965-.027-1.367-.027-.51 0-1.072 0-1.662.027-.59 0-1.045.026-1.34.053v-.134c.295-.054.616-.107.911-.16.241-.054.456-.161.617-.322.16-.161.268-.402.348-.724.08-.322.107-.75.107-1.314V38.574c0-.563-.053-.992-.134-1.313-.08-.322-.214-.563-.402-.698a1.244 1.244 0 0 0-.616-.321 28.29 28.29 0 0 0-.697-.161c-.295.107-.536.188-.724.268-.215.08-.402.295-.536.563-.134.295-.241.724-.322 1.287-.08.563-.134 1.367-.188 2.386a436.69 436.69 0 0 0-.08 3.914c0 1.581-.027 3.512-.027 5.844v6.407h-.134l-15.79-17.586v2.493c0 2.306 0 4.263.027 5.844 0 1.582.027 2.896.08 3.914.028 1.019.081 1.823.162 2.386.08.563.187.992.321 1.287.161.295.322.51.536.59.215.107.483.214.805.321v.134c-.322-.026-.67-.026-1.019-.053-.375 0-.804-.027-1.34-.027-.483 0-.885 0-1.234.027-.348 0-.67.027-.965.053-.294-.026-.643-.026-1.072-.053-.429 0-.858-.027-1.34-.027-.51 0-.992 0-1.394.027-.402 0-.778.027-1.073.053V56c.456-.026.778-.134.966-.321a.872.872 0 0 0 .268-.644c0-.214-.027-.429-.108-.67a5.097 5.097 0 0 0-.241-.777l-1.635-5.228h-4.691c-.483 0-.966 0-1.448.027l-1.662 4.504c-.134.321-.242.67-.322 1.018-.08.322-.134.617-.134.885 0 .322.08.59.268.804.188.215.51.349.992.43v.133c-.322-.027-.697-.027-1.153-.053-.455 0-.938-.027-1.447-.027-.483 0-.831 0-1.073.027-.24 0-.509.026-.804.053v-.134c.349-.08.644-.16.912-.295.24-.107.482-.321.697-.563.214-.268.455-.616.67-1.072.214-.456.482-1.1.777-1.903l6.273-16.702h.268l5.817 18.444c.134.456.242.804.322 1.046.08.268.188.455.295.59a.875.875 0 0 0 .402.294c.161.054.376.108.617.134.295-.107.536-.214.75-.321.215-.108.376-.322.51-.617s.241-.724.295-1.287c.053-.563.107-1.367.16-2.386.027-1.018.054-2.332.08-3.914 0-1.581.028-3.538.028-5.844v-6.139h.187L79.491 52.97v-2.466c0-2.333 0-4.316-.026-5.898 0-1.608-.027-2.922-.08-3.968a21.037 21.037 0 0 0-.189-2.412c-.08-.563-.187-.992-.321-1.287-.134-.295-.322-.483-.536-.59a7.615 7.615 0 0 0-.778-.322v-.134c.349.027.697.027 1.019.054.375 0 .804.027 1.34.027.483 0 .912 0 1.287-.027.295 0 .563-.027.831-.027h.563c.215 0 .456.027.697.027.241 0 .483.027.724.027h.643c.858 0 1.635 0 2.332-.027.67 0 1.368-.027 2.065-.027 1.903 0 3.619.241 5.147.697 1.581.456 2.868 1.126 3.94 1.984Zm-42.248 8.955-2.547-8.23-3.03 8.203c.457.027.885.027 1.314.027h4.263ZM99.114 46c0-1.689-.268-3.137-.777-4.316-.51-1.206-1.206-2.172-2.091-2.922a8.486 8.486 0 0 0-3.11-1.662c-1.206-.349-2.493-.51-3.86-.51-.536 0-1.072.027-1.608.054-.537.027-1.073.134-1.609.241v18.23c.697.134 1.475.214 2.332.295.831.053 1.609.107 2.28.107 1.179 0 2.278-.161 3.296-.456a6.543 6.543 0 0 0 2.681-1.528c.75-.724 1.367-1.689 1.796-2.922.456-1.206.67-2.761.67-4.611Zm14.557 6.514h.134c0 .59 0 1.046-.027 1.394-.027.322-.027.617-.053.858-.027.242-.027.456-.054.67-.027.215-.027.456-.027.751-.643-.027-1.179-.027-1.635-.054-.429 0-.858-.026-1.233-.026-.402 0-1.636-.027-2.064-.027h-3.325c-.589 0-1.152 0-1.688.027-.537 0-.992.026-1.394.026-.403 0-.671.027-.831.027v-.134c.321-.054.589-.134.804-.214.187-.08.375-.242.482-.43a2.28 2.28 0 0 0 .242-.723c.026-.295.053-.697.053-1.18V38.547c0-.563-.027-.992-.08-1.313-.054-.322-.161-.563-.295-.724a1.004 1.004 0 0 0-.536-.322c-.242-.053-.51-.107-.778-.16v-.135c.268.027.697.027 1.233.054.537 0 1.314.027 2.333.027h4.155c1.206 0 2.118-.027 2.734-.054 0 .161 0 .322.027.483 0 .241.027.455.027.67 0 .322 0 .697-.027 1.153-.027.455-.054.83-.134 1.126h-.134c0-.617-.054-1.1-.188-1.421-.134-.349-.375-.59-.724-.778-.348-.187-.857-.268-1.528-.295-.643-.026-.938-.053-1.956-.053-.403 0-.429 0-.671.027-.241 0-.455.026-.616.026-.161 0-.295.027-.429.054l-.322.08v8.284c1.287 0 1.448-.027 2.172-.054.723-.026 1.286-.107 1.662-.24.375-.135.643-.35.777-.644.134-.295.268-.697.375-1.206h.134c-.026.428-.026.83-.053 1.18 0 .348-.027.83-.027 1.393v.938c0 .215 0 .456.027.67 0 .215.027.403.027.59 0 .188.026.403.026.644h-.134a7.735 7.735 0 0 0-.375-1.394 1.301 1.301 0 0 0-.777-.724c-.376-.161-.939-.241-1.662-.268-.724-.027-.885-.054-2.172-.054v9.035c.295.107 1.072.16 2.359.16 1.073 0 2.761-.026 3.432-.053.67-.027 1.179-.134 1.554-.295.376-.188.644-.456.805-.831.107-.402.241-.938.375-1.609Zm11.983.858c.456.644.885 1.206 1.34 1.69.456.482.912.803 1.341.937v.161c-.134.027-.242.027-.322.027h-.349c-.723-.027-1.313-.08-1.769-.214-.456-.108-.884-.403-1.313-.831-.429-.43-.885-1.1-1.394-1.958a72.097 72.097 0 0 1-1.984-3.619c-.081-.16-.188-.348-.295-.563-.107-.24-.241-.482-.375-.723-.134-.242-.268-.483-.429-.697-.161-.215-.295-.403-.456-.537h-1.769v6.434c0 .563.027.992.08 1.314.054.322.134.563.241.724.108.16.242.295.429.348.188.054.402.107.644.161v.134c-.295-.027-.644-.027-1.073-.053-.429 0-.857-.027-1.34-.027-.456 0-.911 0-1.367.027-.402 0-.751.026-1.046.053v-.134a1.88 1.88 0 0 0 .644-.16c.187-.054.321-.188.429-.35.107-.16.187-.401.241-.723.054-.322.08-.75.08-1.314V38.547c0-.455-.026-.857-.053-1.152a1.9 1.9 0 0 0-.215-.751c-.107-.188-.241-.349-.429-.429a2.255 2.255 0 0 0-.643-.188v-.134c.214.027.429.027.643.054.188 0 .402.027.59.027h1.421c.429 0 .938 0 1.528-.027.59-.027 1.045-.027 1.367-.027 1.046 0 1.984.134 2.815.43.804.267 1.501.67 2.064 1.152a4.57 4.57 0 0 1 1.26 1.77c.295.696.429 1.42.429 2.224 0 .59-.107 1.18-.295 1.716a4.75 4.75 0 0 1-.885 1.555c-.402.482-.911.884-1.528 1.26a7.765 7.765 0 0 1-2.144.83c.161.108.348.403.616.859.295.536.617 1.099.912 1.635.375.67.75 1.367 1.126 2.037a28.65 28.65 0 0 0 1.233 1.984Zm-3.994-7.265c.643-.241 1.179-.563 1.554-.992.403-.429.671-.911.805-1.474.16-.563.214-1.18.214-1.85 0-.75-.08-1.42-.268-2.064-.188-.643-.456-1.206-.831-1.662a3.952 3.952 0 0 0-1.367-1.126 4.241 4.241 0 0 0-1.904-.43c-.321 0-.616.028-.938.054-.295.027-.67.108-1.072.215v9.678h1.34c.992.026 1.796-.108 2.467-.349Zm15.494-.027a7.264 7.264 0 0 1 1.528 1.957c.402.751.617 1.636.617 2.708 0 .885-.161 1.662-.456 2.36-.295.696-.697 1.286-1.233 1.768A5.492 5.492 0 0 1 135.787 56a6.366 6.366 0 0 1-2.279.402c-.455 0-.884-.026-1.233-.08a8.863 8.863 0 0 1-.965-.188c-.295-.053-.589-.134-.884-.187a5.107 5.107 0 0 0-.939-.08h-.214a.76.76 0 0 0-.215.026c.027-.08.027-.188.027-.322v-.402c0-.321-.027-.616-.08-.938a5.677 5.677 0 0 1-.081-.992c0-.295.027-.59.081-.858.053-.295.134-.616.268-.884h.134c-.027.134-.027.24-.054.348 0 .107-.026.215-.026.322 0 .563.134 1.072.375 1.528.241.429.59.804.992 1.099.402.295.858.51 1.394.67.509.161 1.045.215 1.608.215.483 0 .938-.08 1.394-.215a3.027 3.027 0 0 0 1.206-.697c.349-.322.644-.697.858-1.18.215-.455.322-1.018.322-1.661 0-.939-.214-1.716-.617-2.36a6.802 6.802 0 0 0-1.554-1.742 17.37 17.37 0 0 0-2.011-1.448 14.031 14.031 0 0 1-2.011-1.501 7.551 7.551 0 0 1-1.554-1.877c-.402-.697-.617-1.554-.617-2.573 0-.75.134-1.42.402-2.038.268-.616.617-1.152 1.072-1.581.456-.43.992-.75 1.636-.992.616-.241 1.313-.349 2.064-.349.804 0 1.474.08 2.037.215.563.16 1.126.214 1.662.214h.242c.08 0 .16 0 .241-.026-.027.294-.054.59-.081.857 0 .269-.026.59-.026.966v.777c0 .295 0 .563.026.777h-.16c-.215-1.099-.644-1.903-1.341-2.412-.697-.51-1.528-.778-2.546-.778-.429 0-.858.054-1.287.188a2.937 2.937 0 0 0-1.073.563c-.321.268-.562.59-.75.965-.188.402-.268.858-.268 1.42 0 .885.214 1.636.616 2.28.402.616.912 1.179 1.528 1.688.644.51 1.314.992 2.011 1.421.724.43 1.394.938 2.037 1.501Zm22.76.027c0 1.421-.268 2.761-.778 3.995-.509 1.233-1.206 2.332-2.117 3.243a9.958 9.958 0 0 1-3.217 2.199c-1.233.536-2.574.804-4.021.804-1.528 0-2.922-.295-4.155-.885-1.234-.59-2.279-1.34-3.137-2.305a10.072 10.072 0 0 1-1.984-3.244 10.679 10.679 0 0 1-.67-3.753c0-1.314.241-2.6.697-3.86a11.166 11.166 0 0 1 2.011-3.352c.857-.991 1.93-1.769 3.19-2.359 1.26-.59 2.68-.884 4.262-.884a9.8 9.8 0 0 1 3.834.777 9.534 9.534 0 0 1 3.163 2.172c.911.938 1.608 2.037 2.118 3.297.563 1.287.804 2.68.804 4.155Zm-2.547.161c0-1.77-.214-3.27-.643-4.53-.429-1.26-1.019-2.28-1.716-3.083-.724-.805-1.528-1.395-2.413-1.77a7.158 7.158 0 0 0-2.761-.563c-.938 0-1.823.188-2.707.536-.885.349-1.662.939-2.359 1.716-.697.778-1.26 1.796-1.662 3.03-.429 1.233-.617 2.734-.617 4.45 0 1.662.188 3.11.59 4.316.402 1.206.911 2.225 1.581 3.002.671.778 1.448 1.367 2.333 1.743a7.294 7.294 0 0 0 2.868.563 7.702 7.702 0 0 0 2.949-.563 6.32 6.32 0 0 0 2.386-1.743c.67-.777 1.206-1.77 1.608-2.949.349-1.126.563-2.547.563-4.155Zm21.848-10.348c.349 0 .671-.027 1.019-.053V36c-.268.08-.536.187-.804.294-.215.08-.402.295-.536.563-.134.295-.242.724-.322 1.287-.08.563-.134 1.367-.188 2.386a438.871 438.871 0 0 0-.08 3.914c0 1.582-.027 3.512-.027 5.844v6.407h-.134l-15.79-17.586v2.493c0 2.306 0 4.263.027 5.845 0 1.581.027 2.895.081 3.914.026 1.018.08 1.822.16 2.386.081.562.188.991.322 1.286.161.295.322.51.536.59.215.107.483.215.805.322v.134c-.322-.027-.671-.027-1.019-.054-.375 0-.804-.027-1.341-.027-.482 0-.884 0-1.233.027-.348 0-.67.027-.965.054v-.134c.295-.107.536-.215.751-.322.214-.107.375-.322.509-.617.134-.294.241-.723.295-1.286.054-.563.107-1.367.161-2.386.027-1.019.054-2.333.08-3.914 0-1.582.027-3.539.027-5.844v-6.14h.188l15.736 17.48V50.45c0-2.332 0-4.316-.027-5.898 0-1.608-.027-2.922-.08-3.967a21.159 21.159 0 0 0-.188-2.413c-.08-.563-.188-.992-.322-1.287-.134-.295-.321-.482-.536-.59a7.558 7.558 0 0 0-.777-.321v-.134c.348.026.697.026 1.018.053.376 0 .805.027 1.341.027h1.313Z"/></svg>