<svg xmlns="http://www.w3.org/2000/svg" width="200" height="88" fill="none"><path fill="#96A1BC" d="M134.753 55.803v-4.149h1.284c.644 1.66 2.348 2.739 4.194 3.27 1.917.55 4.233.663 6.209.41a5.493 5.493 0 0 0 2.897-1.191c2.038-1.708 1.334-5.009-1.228-5.716a14.386 14.386 0 0 0-1.656-.321c-.753-.115-4.088-.417-4.088-.417-2.321-.21-5.386-.599-7.072-2.408-.984-1.055-1.353-2.845-1.133-4.27.756-4.91 5.585-6.14 9.81-6.14 5.018 0 8.051 1.63 8.051 1.63v4.598h-.995l-.465-.566c-.302-.37-.626-.723-.97-1.054-1.057-1.011-2.429-2.08-5.339-2.08-5.222 0-7.585 2.127-7.274 4.352.257 1.834 2.128 2.33 3.679 2.556 1.471.215 2.939.305 4.404.463.959.094 1.912.243 2.854.445 1.7.382 3.39.964 4.537 2.357 1.703 2.069 1.712 5.243.177 7.4-1.98 2.784-5.914 3.017-9.034 3.017-3.767 0-7.716-1.316-8.842-2.186ZM72.11 46.43a11.559 11.559 0 1 1 11.559 11.558 11.572 11.572 0 0 1-11.56-11.558Zm4.758-3.927c-2.582 4.475-1.635 9.878 2.114 12.042 1.811 1.045 4 1.19 6.166.404 2.176-.79 4.066-2.421 5.32-4.593 1.255-2.173 1.723-4.626 1.319-6.904-.402-2.268-1.621-4.093-3.432-5.14a6.78 6.78 0 0 0-3.416-.898c-3.034 0-6.214 1.875-8.07 5.09Zm38.702 14.911V56.25l1.184-.77V37.157l-1.184-.77V35.19h17.333v3.431h-1.652c-.271-.101-.55-.21-.782-.299-1.184-.457-2.026-.925-3.339-.925l-7.222.74v6.712l10.443-.451v3.34l-10.443-.452v7.687h6.528c3.318 0 5.656-2.416 5.679-2.44h.993v4.88l-17.538.001Zm-19.837 0V56.25l1.185-.77V37.157l-1.185-.77V35.19h7.629c2.144 0 4.333.16 6.249 1.203a10.23 10.23 0 0 1 4.293 4.646c1.11 2.373 1.355 5.102.917 7.685-.347 2.048-1.137 4.059-2.514 5.613-2.603 2.934-6.034 3.077-9.914 3.077h-6.66Zm4.34-19.274v16.835c0 .002 2.209.008 3.293 0 1.736-.01 3.646-.355 5.093-1.362 1.373-.957 2.217-2.444 2.682-4.052 1.208-4.176.157-8.812-3.32-11.082-1.103-.72-2.537-1.08-4.039-1.08a9.691 9.691 0 0 0-3.709.741Zm-33.02 19.275V41.09c0-2.535-1.932-3.69-3.728-3.69-1.832 0-3.805 1.155-3.805 3.69v16.326h-3.1V38.14h-6.74v19.275h-3.136V35.191h10.978V37.4h1.592a3.599 3.599 0 0 1 .66-.822 6.37 6.37 0 0 1 5.319-1.603c.71.114 1.399.343 2.036.679 2.214 1.18 3.338 3.043 3.338 5.536v16.226h-3.415Z"/></svg>