<svg xmlns="http://www.w3.org/2000/svg" width="200" height="88" fill="none"><path fill="#96A1BC" d="M44.642 35.602c-6.445 0-10.61 4.329-10.61 11.026 0 3.026 1.021 5.787 2.875 7.774 1.985 2.128 4.766 3.253 8.043 3.253 6.445 0 10.61-4.328 10.61-11.027 0-3.025-1.021-5.786-2.875-7.773-1.985-2.128-4.766-3.252-8.044-3.252Zm7.753 12.045c0 5-2.729 8.231-6.951 8.231-2.067 0-4.121-.967-5.636-2.654-1.198-1.333-2.626-3.737-2.626-7.614 0-5 2.734-8.232 6.966-8.232 3.998 0 8.247 3.6 8.247 10.269ZM63.926 43.547H61.8c-.38 0-.547-.077-.547-.81 0-5.766 2.624-6.626 4.188-6.626a2.479 2.479 0 0 1 1.454.42c.33.196.672.397 1.293.397.948 0 1.46-.672 1.46-1.305 0-.722-.698-1.798-2.617-1.798-2.07 0-3.966.783-5.342 2.203-1.543 1.594-2.42 3.955-2.536 6.827-.032.613-.326.691-.578.691h-.787c-.77 0-1.197.717-1.197 1.212 0 .256.136.688 1.042.688 1.11 0 1.396.23 1.396 1.118v5.91c0 2.578-.134 3.176-1.555 3.654-.33.106-.652.243-.652.651 0 .222.108.487.626.487.611 0 1.283-.035 1.733-.061l.197-.01c.268-.01.5-.021.646-.021h.803c.437 0 .8.016 1.12.03l.018.001c.3.015.61.03.976.03.437 0 .904-.042.904-.548 0-.418-.341-.555-.597-.622-1.204-.312-1.934-.709-1.934-3.59v-6.42c0-.445.183-.67.547-.67h1.758c.826 0 1.259-.75 1.259-1.15 0-.457-.32-.688-.95-.688Z"/><path fill="#96A1BC" d="M74.614 36.11a2.48 2.48 0 0 1 1.454.421c.33.196.672.397 1.293.397.947 0 1.459-.672 1.459-1.305 0-.722-.697-1.798-2.617-1.798-2.068 0-3.965.783-5.341 2.203-1.544 1.594-2.42 3.955-2.536 6.827-.032.613-.326.691-.579.691h-.622c-.77 0-1.196.717-1.196 1.212 0 .256.135.688 1.042.688 1.109 0 1.231.23 1.231 1.118v5.91c0 2.578-.134 3.176-1.554 3.654-.33.106-.653.243-.653.651 0 .223.109.487.626.487.612 0 1.283-.035 1.734-.061l.197-.01c.267-.01.499-.021.646-.021H70c.437 0 .8.016 1.12.03l.018.001c.3.015.61.03.976.03.437 0 .903-.042.903-.548 0-.418-.34-.556-.597-.622-1.203-.312-1.934-.709-1.934-3.59v-6.42c0-.444.184-.67.548-.67h1.805c.826 0 1.258-.749 1.258-1.15 0-.456-.32-.688-.95-.688h-2.175c-.381 0-.548-.076-.548-.809 0-5.766 2.625-6.627 4.189-6.627ZM112.204 35.955a6.332 6.332 0 0 0-.706.047c-.488.054-.979.08-1.469.077h-.957c-.853 0-1.367-.044-1.779-.08-.278-.023-.517-.044-.783-.044-.593 0-.934.25-.934.688 0 .25.12.578.692.715.645.147 1.11.48 1.383.99.456.854.365 2.175-.262 3.824l-4.12 10.941c-.126.34-.236.373-.267.375-.035 0-.16-.02-.355-.39a68.4 68.4 0 0 1-3.112-6.579.87.87 0 0 1-.014-.745 64.244 64.244 0 0 1 1.709-3.974c1.305-2.771 2.105-3.643 2.746-4.344.09-.099.177-.193.26-.287.272-.301.368-.63.258-.88-.056-.125-.212-.334-.637-.334-.186 0-.337.01-.546.021-.489.029-1.308.077-3.714.087l-3.255.016c-1.777 0-2.487-.049-3.006-.085-.317-.021-.567-.039-.945-.039-.444 0-.602.2-.657.318-.109.236-.014.556.261.879.462.528 1.152 1.472 2.405 4.109.92 1.931 1.311 2.846 2.096 4.794a.93.93 0 0 1-.001.746c-.816 2.123-1.74 4.29-2.744 6.444-.107.233-.223.372-.31.372s-.204-.14-.312-.373a136.906 136.906 0 0 1-5.257-12.797c-.311-.878-.444-1.476-.198-1.933.253-.47.917-.818 2.153-1.125.343-.086.798-.256.798-.745 0-.437-.34-.688-.934-.688-.346 0-.766.023-1.253.05-.625.035-1.334.074-2.08.074h-1.45c-.397 0-.782-.032-1.155-.063-.373-.032-.723-.06-1.083-.06-.485 0-.81.238-.81.594 0 .325.23.545.575.775.659.446 1.512 1.8 2.536 4.026 1.82 3.977 4.051 9.234 6.124 14.423.508 1.269 1.053 1.786 1.883 1.786.807 0 1.233-.654 1.697-1.785.843-2.063 1.827-4.427 2.85-6.378.106-.2.218-.315.309-.315.09 0 .2.115.301.312a80.63 80.63 0 0 1 2.882 6.38c.561 1.418.916 1.786 1.729 1.786.692 0 1.191-.535 1.667-1.788l5.138-13.378c1.617-4.202 2.447-4.818 2.892-5.148.263-.19.48-.374.48-.712 0-.352-.282-.58-.719-.58Zm-12.483 5.073a39.943 39.943 0 0 1-1.093 2.554c-.087.187-.195.296-.296.297-.11.003-.227-.113-.328-.315a19.437 19.437 0 0 1-1.319-3.175c-.328-1.064-.307-1.89.06-2.387.291-.395.805-.595 1.526-.595.822 0 1.387.219 1.68.65.397.587.32 1.586-.23 2.971ZM128.133 55.959c-1.496-.403-1.873-.855-1.873-3.483 0-.719.011-1.496.023-2.248.012-.746.023-1.518.023-2.227 0-2.372-1.837-4.931-4.807-4.931-.995 0-1.681.218-2.823.897-.206.128-.409.16-.544.084-.135-.075-.204-.25-.204-.51v-2.7c0-4.495.274-5.585.406-6.11.043-.14.067-.286.072-.433a.596.596 0 0 0-.331-.584c-.31-.143-.763-.03-1.126.28a5.874 5.874 0 0 1-2.539 1.27c-.429.082-.665.303-.665.624 0 .274.163.428.416.633l.145.11c.843.629 1.308.976 1.336 4.21v11.635c0 2.578-.135 3.176-1.571 3.655-.329.11-.651.25-.651.65 0 .183.082.488.626.488.585 0 1.224-.033 1.736-.059.356-.018.663-.034.857-.034h.786c.44 0 .786.025 1.119.048.325.024.632.045 1.011.045.469 0 .903-.067.903-.549 0-.388-.299-.531-.591-.62-1.207-.373-1.939-.804-1.939-3.623v-5.092c0-1.552.826-2.275 2.599-2.275 1.935 0 3.34 1.748 3.34 4.158v3.21c0 2.463-.336 3.18-1.711 3.654-.46.153-.742.267-.742.65 0 .147.069.488.718.488.586 0 1.057-.033 1.435-.06.261-.017.487-.033.679-.033h.879c.434 0 .931.028 1.411.056.465.027.904.052 1.274.052.62 0 .935-.21.935-.626-.001-.355-.206-.59-.612-.7ZM133.529 40.061c1.095 0 1.891-.782 1.891-1.86 0-1.048-.76-1.752-1.891-1.752s-1.891.704-1.891 1.752c0 1.113.76 1.86 1.891 1.86ZM146.048 43.67h-2.593c-1.488 0-1.596-.18-1.596-1.302V38.88c0-.774-.334-1.146-.664-1.17-.278-.021-.646.21-.756.934-.671 3.717-1.471 4.706-3.011 5.52l-.039.02c-.571.309-.948.513-.948.869 0 .548.528.548 1.258.548 1.518 0 1.72.377 1.72 1.874 0 .408-.043 1.17-.092 2.054-.069 1.225-.155 2.749-.155 3.887 0 1.303.431 2.365 1.248 3.072.728.63 1.724.964 2.881.964 1.917 0 3.141-1.376 3.141-2.323a.38.38 0 0 0-.158-.346c-.085-.056-.24-.101-.494.006-.406.156-.818.285-1.764.285-1.14 0-2.291-.589-2.291-1.904v-6.543c0-.642.372-1.026.995-1.026h1.635c1.301 0 2.401-.597 2.401-1.305 0-.233-.093-.625-.718-.625ZM163.367 35.96a1.425 1.425 0 0 0-.233.023c-.232.035-.664.1-2.368.1-2.02 0-2.505-.08-2.738-.12a1.253 1.253 0 0 0-.219-.023c-.317 0-.521.225-.521.573 0 .129.01.311.022.542.024.424.059 1.064.059 1.947 0 .422.217.674.582.674a.603.603 0 0 0 .603-.623c0-1.24.467-1.806.901-1.806.315 0 .35.055.373.31l-.041 3.455c.01 1.183-.547 1.389-.968 1.44-.388.068-.597.35-.597.58a.588.588 0 0 0 .383.57c.077.028.159.04.24.034.234 0 .393-.012.578-.025.236-.017.504-.036 1.018-.036.531 0 .826.02 1.092.037.194.012.361.023.584.023a.633.633 0 0 0 .621-.373.65.65 0 0 0 .053-.25c0-.14-.062-.477-.638-.561-.389-.04-.906-.232-.897-1.438l.071-3.505c0-.186.082-.261.282-.261.413 0 .962.174.962 1.683 0 .59.407.654.583.654.282 0 .612-.169.612-.643 0-.453.027-1.117.046-1.603l.002-.055c.013-.33.023-.614.023-.75.001-.412-.132-.572-.47-.572ZM173.568 42.399c-.783-.24-.835-.396-.835-1.375v-2.185c0-1.195.079-1.275.792-1.64.355-.188.56-.355.56-.646 0-.333-.225-.532-.603-.532-.095 0-.217.01-.375.024a7.41 7.41 0 0 1-.641.037h-1.149a.658.658 0 0 0-.608.405l-1.24 2.692c-.014.032-.033.044-.041.044s-.027-.013-.044-.047l-1.374-2.748a.64.64 0 0 0-.544-.346h-1.127c-.302 0-.568-.02-.804-.037-.175-.013-.326-.025-.457-.025-.384 0-.613.2-.613.532 0 .318.266.452.587.583.882.34 1.009.46 1.009 1.541v2.277c0 1.303-.096 1.37-.971 1.577-.386.1-.523.338-.523.526 0 .36.252.593.643.593.123 0 .288-.014.479-.03.241-.019.514-.041.761-.041h.406c.285 0 .588.022.831.04.218.017.405.03.562.03.434 0 .704-.254.704-.663 0-.293-.184-.49-.549-.589-.934-.203-.996-.37-.996-1.443v-2.399a.32.32 0 0 1 .036-.18c.031.002.055.014.127.159l.889 1.757c.377.743.518 1.021.937 1.021.419 0 .56-.3.839-.897l.927-1.966c.074-.155.092-.155.155-.155.045 0 .068.074.068.22v2.51c0 1.178-.143 1.228-.933 1.505l-.09.032c-.36.096-.583.297-.583.526 0 .347.266.562.694.562.216 0 .478-.017.732-.033.198-.013.422-.028.569-.028h.417c.242 0 .496.019.72.035.185.014.36.026.499.026.434 0 .704-.258.704-.673.001-.27-.183-.465-.547-.576ZM82.945 47.807h-6.05c-.606 0-.933.839-.933 1.629 0 .5.088 1.073.78 1.073h6.048c.614 0 .966-.571.966-1.567 0-.701-.136-1.135-.811-1.135ZM136.559 56.13c-1.297-.417-1.911-.914-1.941-3.655l-.031-4.46c0-1.41.074-2.643.119-3.38.021-.343.035-.59.035-.724v-.385c0-.478-.295-.811-.718-.811-.523 0-.768.294-1.087.75-.478.777-1.173 1.191-1.98 1.672-.248.142-.429.412-.429.642 0 .183.09.443.52.647.879.363 1.208 1.151 1.255 3.01v3.04c0 2.534-.192 3.227-1.626 3.652-.475.123-.75.269-.75.652 0 .182.093.487.718.487.574 0 1.213-.032 1.726-.058.361-.018.672-.034.866-.034h.88c.37.003.74.024 1.109.064.325.03.632.06 1.004.06.309 0 .95 0 .95-.55 0-.45-.47-.578-.62-.62ZM158.244 46.824c-.736-2.366-2.638-3.723-5.219-3.723-3.567 0-6.258 3.154-6.258 7.338 0 2.276.695 4.166 2.01 5.466a6.102 6.102 0 0 0 4.325 1.748c2.555 0 4.684-1.51 5.299-3.764.03-.13.047-.263.049-.396 0-.291-.133-.51-.347-.572-.181-.053-.453.013-.671.356a4.262 4.262 0 0 1-3.558 1.966c-2.144 0-4.436-1.38-4.436-5.253 0-.34.048-.54.157-.649.172-.17.545-.167 1.165-.162l.352.002c.717 0 1.479-.006 2.363-.012 1.236-.009 2.636-.018 4.472-.018.568 0 .95-.32.95-.796a1.183 1.183 0 0 0-.255-.688c-.154-.199-.252-.376-.398-.843Zm-8.297.586c-.046-.058-.099-.165-.035-.412.222-.804.914-2.152 3.067-2.152 1.362 0 2.429.884 2.429 2.013 0 .662 0 .84-2.769.84h-.296c-1.309 0-2.171.002-2.396-.289Z"/></svg>