<svg xmlns="http://www.w3.org/2000/svg" width="200" height="88" fill="none"><path fill="#96A1BC" fill-rule="evenodd" d="m67.257 50.078-1.258 1.039-1.076-1.095V33.276l-4.43 3.429.878.93V49.91l-.956.869 2.74 3.093 4.306-3.539-.203-.255h-.001ZM46.01 38.698l-1.483 1.196v9.267l-3.017 2.366-2.925 2.345-1.53-1.154v3.087a7.405 7.405 0 0 0 2.207-1.149l.164.073c-.548 1.017-1.312 1.937-2.372 2.504v1.503l-3.509 1.194v-2.402c-.895-.339-1.603-.954-2.109-1.512-2.781-3.074-1.113-7.45 2.11-8.375v-5.744l-2.787 2.167-.196-.26 2.982-2.32v-2.95h-1.582c-.875 0-1.074-.87-1.233-1.658-.159-.787.007-2.748.007-2.748l.211-.027c-.039.687.338.896.557.936.218.041 3.598-.182 4.333-.242.736-.06 1.212.525 1.212.97 0 .445.004 1.512.004 1.512v1.478l3.17-2.464 1.927-1.56 3.859 3.967ZM33.545 50.205c-1.435-.189-3.115-.02-3.174 1.78-.063 1.964 1.297 3.42 3.174 3.933v-5.713ZM38.36 38.15l-1.306 1.017v8.824l1.306 1.037V38.15Zm.323-.248v11.38l2.336 1.853v-12.09l-1.658-1.672-.681.53.003-.001Zm19.804 13.051 1.028-.873.207.252-4.15 3.539-2.245-2.096v-1.34l-4.131 3.436-2.22-2.096v-10.65l3.508-1.581 2.728-1.235 3.493 2.679 1.245-.995.198.258-1.312 1.048v8.408l1.651 1.246Zm-8.003-1.221 1.653 1.286 1.19-1.005v-6.88l-2.842-2.167v8.765l-.001.001Zm85.945.703-.004-9.138 1.312-1.047-.198-.258-1.247.996-3.491-2.68-2.729 1.234-1.159.526-.011.005-2.338 1.098v10.604l2.025 1.91-3.561 3.025.206.25c1.414 0 3.093 1.244 4.244 2.883l.273.172c.013-.02 1.318-2.13 4.556-2.806 1.721-.297 3.81-1.19 3.81-3.588 0-.607-.344-.907-.72-1.237-.459-.402-.968-.85-.968-1.949Zm-6.357-.703v-8.734l2.844 2.153v2.362l-.005 4.504-1.182 1.004-1.657-1.289Zm4.145 7.162c-.918.188-1.8.526-2.609 1l-.032-.051c-.314-.525-1.447-2.416-4.615-2.348l5.949-5.051v1.904c0 .546.059 1.193 1.113 1.86.967.612 1.367 1.994.194 2.686Zm15.462-8.56.199.256-6.539 5.28-3.505-3.296-1.093.873-.199-.259 1.155-.921v-8.052l3.508-2.093v7.526l3.146-2.513-3.146-5.013 2.99-1.814 2.93 4.918-.004.005.051.067-5.967 4.767v.603l2.721 2.675 3.753-3.009Zm6.68 2.782 1.26-1.039.202.255-4.305 3.539-2.74-3.093.956-.869V37.635l-.879-.93 4.431-3.43v16.747l1.075 1.095Zm13.044-5.378-2.518-2.31c2.771-2.91 2.275-5.17 2.252-5.27a2.195 2.195 0 0 0-.19-.58s-.328 1.98-1.938 1.98c-.812 0-1.843-1.008-2.016-1.183l-.037-.044-3.473 2.196-2.523 1.52v3.366l.004-.001-.001.002 2.61 2.552c-.785.74-1.412 1.335-1.793 1.699-.696.477-1.263 1.25-1.263 2.489 0 2.82 2.877 2.935 2.877 2.935-2.356-.895-1.211-2.58 0-2.58 1.212 0 2.102 1.367 2.102 1.367l2.526-1.678 3.381-2.036v-4.424Zm-6.891-1.734v-3.743l.004-.003c.342.523 1.57 2.19 3.335 2.19.837 0 1.644-.488 2.255-1.187-.426.768-1.083 1.643-2.096 2.572-.649.596-1.289 1.19-1.902 1.758l-1.596-1.587Zm-.342 4.925c-.262 0-.816.055-1.416.258.851-.806 2.098-1.983 3.502-3.291l1.595 1.391v4.492c-1.156-2.6-2.996-2.85-3.681-2.85Zm-52.691 2.026 1.026-.875.206.252-4.15 3.539-1.473-1.401-1.445-5.354h-4.832l-.45 1.636h.053c1.935 0 3.525 1.75 3.525 1.75l-2.172 3.483c-.445-.872-1.301-1.766-2.575-2.06-.675-.157-2.344-.223-2.344 1.414 0 1.884 1.26 2.924 3.925 2.924 2.96 0 3.735-1.964 3.954-3.281h.245s.133 4.851-4.16 4.851c-2.677 0-4.294-2.29-4.294-4.555 0-1.804.729-4.295 3.502-4.51l3.037-11.01c-.409-.983-1.314-2.58-2.883-2.58-1.955 0-2.384 1.538-2.384 2.32 0 .995.685 1.759 2.023 1.759 1.484 0 1.921-1.441 1.921-1.441h.206s.284 2.545-1.936 2.708c-2.287.165-2.55-1.935-2.55-2.77 0-1.222.68-3.374 3.897-3.374 2.739 0 4.333 1.245 5.043 2.4l.713-1.929.302.115-.81 2.191c.044.095.084.189.115.279l3.389 12.478 1.378 1.04h-.002Zm-8.231-12.682-1.79 6.498h3.553l-1.689-6.26s-.024-.09-.074-.238ZM88.692 50.078l-1.26 1.039-1.077-1.097v-8.563l1.423-1.137-.199-.256-1.368 1.092-2.569-2.612-.23-.235-3.63 2.898-2.618-2.662-.23-.236-3.538 2.823-2.544-2.587-.23-.236-4.223 3.37.199.26 1.306-1.044 2.1 2.131v6.885l-.955.868 3.043 3.093 2.626-2.67-1.162-1.182v-8.598l.66-.526 2.11 2.14v6.875l-.957.868 3.043 3.093 2.627-2.67-1.163-1.182v-8.472l.818-.652 2.111 2.14v6.874l-.957.869 2.74 3.093 4.307-3.539-.203-.255Zm35.152 1.039 1.259-1.039.203.255L121 53.872l-2.74-3.093.957-.869v-6.912l-2.075-2.101-.855.681v8.443l1.162 1.18-2.626 2.672-3.043-3.093.955-.868v-6.914l-2.069-2.102-1.306 1.041-.2-.258 4.224-3.37.23.236 2.618 2.662 3.631-2.9.23.238 2.538 2.582 1.36-1.087.2.257-1.424 1.137v8.587l1.077 1.096Z" clip-rule="evenodd"/></svg>