<svg xmlns="http://www.w3.org/2000/svg" width="200" height="88" fill="none"><path fill="#96A1BC" d="M190.996 52.327h-2.777v-9.93h2.682v1.836c.518-1.365 1.506-2.07 2.777-2.07h.423v2.776h-.658c-1.506 0-2.447.988-2.447 2.588v4.8ZM177.631 46.352h4.283c-.094-.989-.894-2.024-2.071-2.024-1.176 0-2.023.753-2.212 2.023Zm2.071 6.258c-2.965 0-4.988-2.117-4.988-5.223s1.976-5.27 4.988-5.27c3.012 0 4.988 2.117 4.988 5.27v.8h-7.059c.095 1.035.753 2.212 2.212 2.212.847 0 1.553-.424 1.882-1.13l2.73.235v.047c-.659 1.93-2.4 3.06-4.753 3.06ZM168.22 52.336h2.776V37.842h-2.776v14.494ZM158.197 52.615c-2.118 0-3.435-1.318-3.435-3.482v-6.73h2.776v6.07c0 1.695 1.176 1.883 1.647 1.883 1.035 0 1.741-.894 1.741-2.259V42.45h2.776v9.93h-2.682v-1.27c-.706 1.034-1.6 1.505-2.823 1.505ZM146.244 44.422c-1.317 0-2.07 1.082-2.07 2.918 0 1.835.753 2.917 2.07 2.917 1.318 0 2.071-1.082 2.071-2.917 0-1.836-.8-2.918-2.071-2.918Zm0 8.188c-2.964 0-4.988-2.117-4.988-5.223s1.977-5.27 4.988-5.27c3.012 0 4.988 2.117 4.988 5.223 0 3.105-2.023 5.27-4.988 5.27ZM137.68 52.336h-2.777v-6.024c0-1.694-1.176-1.835-1.647-1.835-1.035 0-1.741.894-1.741 2.259v5.647h-2.776V37.842h2.776v5.835c.659-1.035 1.553-1.506 2.73-1.506 2.117 0 3.435 1.318 3.435 3.483v6.682ZM120.504 52.61c-3.012 0-4.8-1.93-4.8-5.13s1.882-5.364 4.753-5.364c3.058 0 4.282 2.07 4.423 3.953v.047h-.047l-2.87.094v-.047c-.047-1.364-.847-1.694-1.506-1.694-1.224 0-1.835.988-1.835 3.012 0 .659.141 2.73 1.835 2.73 1.176 0 1.553-.848 1.647-1.6v-.048l2.729.094v.047c-.329 1.836-1.365 3.906-4.329 3.906ZM107.328 52.612c-4.847 0-5.412-3.2-5.412-4.564V48l2.871-.047V48c0 1.882 1.741 2.07 2.541 2.07.941 0 2.259-.47 2.259-1.553 0-.706-.236-1.13-1.695-1.647l-3.058-1.13c-1.647-.61-2.683-2.023-2.683-3.67 0-1.647 1.036-4.517 4.942-4.517 5.035 0 5.082 3.905 5.082 4.047v.047l-2.918.047v-.047c0-.894-.847-1.553-2.023-1.553-1.365 0-2.212.612-2.212 1.553 0 .94.894 1.411 1.6 1.694l2.588.847c2.212.706 3.247 1.976 3.247 4 0 .517-.094 1.788-1.129 2.917-.894.989-2.306 1.506-4 1.506ZM86.681 48.044l-2.211.189c-1.13.094-1.6.47-1.6 1.176 0 .941.894 1.13 1.647 1.13.894 0 2.164-.518 2.164-1.648v-.847Zm-3.2 4.565c-1.6 0-3.435-.8-3.435-3.059 0-.706 0-2.823 4.141-3.058l2.447-.142v-.423c0-1.083-.659-1.694-1.835-1.694-1.035 0-1.741.517-1.788 1.411v.047h-2.682v-.047c.047-.8.517-3.482 4.564-3.482 2.776 0 4.424 1.224 4.424 3.247v5.741c0 .518.047.894.14 1.224v.047h-2.681v-1.27c-.989 1.176-2.353 1.458-3.295 1.458ZM76.047 52.326h-8.235v-2.07l4.658-5.6h-4.423V42.35H76v2.07l-4.612 5.6H76l.047 2.306ZM63.576 52.327H60.8v-6.024c0-1.694-1.13-1.835-1.647-1.835-1.035 0-1.741.894-1.741 2.259v5.647h-2.776v-9.977h2.682v1.271c.753-1.035 1.6-1.506 2.87-1.506 2.165 0 3.435 1.318 3.435 3.482l-.047 6.683ZM43.577 46.352h4.282c-.094-.989-.847-2.024-2.07-2.024-1.224 0-2.024.753-2.212 2.023Zm2.07 6.258c-2.964 0-4.988-2.117-4.988-5.223s1.977-5.27 4.988-5.27c3.012 0 4.988 2.117 4.988 5.27v.8h-7.058c.094 1.035.753 2.212 2.212 2.212.846 0 1.552-.424 1.882-1.13l2.73.235v.047c-.66 1.93-2.4 3.06-4.754 3.06ZM32.283 44.422c-1.317 0-2.07 1.082-2.07 2.918 0 1.835.8 2.917 2.07 2.917 1.27 0 2.07-1.082 2.07-2.917 0-1.836-.752-2.918-2.07-2.918Zm0 8.188c-2.964 0-4.988-2.117-4.988-5.223s2.024-5.27 4.988-5.27c2.965 0 4.989 2.117 4.989 5.223 0 3.105-1.977 5.27-4.989 5.27ZM21.32 52.327h-2.777v-9.93h2.682v1.836c.518-1.365 1.506-2.07 2.776-2.07h.424v2.776h-.659c-1.506 0-2.447.988-2.447 2.588v4.8ZM9.037 44.524h1.553c1.976 0 2.259-1.318 2.259-2.07 0-.989-.706-2.071-2.26-2.071H9.038v4.141Zm0 7.812H6.119V37.842h4.66c1.175 0 4.94.33 4.94 4.611 0 3.389-2.541 4.612-4.706 4.612H9.037v5.27Z"/></svg>