<svg xmlns="http://www.w3.org/2000/svg" width="200" height="88" fill="none"><path fill="#96A1BC" d="M48.616 49.306h3.117c2.014 0 4.029-.136 5.324-2.174 1.438-2.356 1.486-9.965.143-12.276-1.63-2.853-7.05-2.264-8.537-2.264v16.714h-.047Zm.815-17.258c4.796 0 9.304.498 12.278 4.847 1.534 2.22 1.39 5.571.24 8.063-1.775 3.714-7.195 4.665-9.449 4.71-1.534.046-2.685.046-3.884.046v10.78h3.213v.498H40.702v-.498h3.261V32.546h-3.26v-.498h8.728Zm101.675.498h-3.117v-.498h10.647v.498h-3.07v27.948h3.07v.498h-10.647v-.498h3.117V32.546Zm-63.547.046h-2.878v-.499h6.283v.499h-2.877v18.843c-.048 2.672.527 7.293-3.885 9.104-2.494 1.088-7.146 1.36-10.024-.317-4.124-2.264-4.316-4.756-4.316-8.787V32.592h-3.165v-.499h10.886v.499h-3.165v19.93c0 2.99-.048 5.934 3.261 7.746 1.679.906 4.94.317 6.235-.272 4.125-1.721 3.645-6.251 3.693-8.606V32.592h-.048Zm28.488 18.435c-.144 1.042-.288 7.61-6.235 9.83-3.261 1.268-7.242.226-10.743-2.582-4.46-3.579-5.42-9.06-5.131-12.955.287-4.394 2.877-10.237 8.297-12.638 1.391-.634 3.357-1.178 4.796-1.087 2.11.136 3.309.815 5.371 1.54 1.055.408 1.391.272 1.919-.272.527-.498.623-.905.767-1.313h.528v11.37h-.528c-.144-1.994-.288-5.391-2.973-8.38-.864-.952-1.871-1.54-3.214-2.13-1.055-.452-3.405-.679-4.94.182-3.693 2.083-4.46 5.616-4.652 9.874-.144 3.624-.144 4.756.096 7.565.432 4.394 1.391 8.334 5.084 10.191 1.487.725 3.933.544 5.515-.18 3.981-1.858 5.276-5.844 5.468-9.105m27.433.09c-.144 1.042-.288 7.61-6.235 9.83-3.261 1.268-7.242.226-10.743-2.582-4.46-3.579-5.42-9.06-5.132-12.955.288-4.394 2.878-10.237 8.297-12.638 1.391-.634 3.358-1.178 4.796-1.087 2.111.136 3.31.815 5.372 1.54 1.055.408 1.391.272 1.918-.272.528-.498.624-.905.768-1.313h.527v11.37h-.527c-.144-1.994-.288-5.391-2.974-8.38-.863-.952-1.87-1.54-3.213-2.13-1.055-.452-3.405-.679-4.94.182-3.693 2.083-4.46 5.616-4.652 9.874-.144 3.624-.144 4.756.096 7.565.431 4.394 1.391 8.334 5.083 10.191 1.487.725 3.933.544 5.516-.18 3.981-1.858 5.275-5.844 5.467-9.105"/></svg>