<?xml version="1.0" encoding="UTF-8"?>
<svg id="Layer_1" xmlns="http://www.w3.org/2000/svg" version="1.1" viewBox="0 0 50 50">
  <!-- Generator: Adobe Illustrator 30.2.1, SVG Export Plug-In . SVG Version: 2.1.1 Build 1)  -->
  <defs>
    <style>
      .st0 {
        fill: #e3e3e3;
      }
    </style>
  </defs>
  <path class="st0" d="M10.17,18.71c.04-.43-.12-.86-.44-1.15l-3.28-3.97v-.59h10.21l7.89,17.34,6.94-17.34h9.74v.59l-2.81,2.7c-.24.18-.36.49-.31.79v19.84c-.05.3.07.61.31.79l2.75,2.7v.59h-13.82v-.59l2.85-2.76c.28-.28.28-.36.28-.79v-16.04l-7.92,20.13h-1.07l-9.21-20.13v13.49c-.08.57.11,1.14.51,1.55l3.7,4.49v.59H6v-.58l3.7-4.5c.39-.41.58-.98.47-1.55v-15.6Z"/>
</svg>